<svg width="56" height="56" viewBox="0 0 56 56" fill="none" xmlns="http://www.w3.org/2000/svg">
<path opacity="0.4" d="M12.7633 21.0001C17.2737 21.0001 20.93 17.3437 20.93 12.8334C20.93 8.32309 17.2737 4.66675 12.7633 4.66675C8.25302 4.66675 4.59668 8.32309 4.59668 12.8334C4.59668 17.3437 8.25302 21.0001 12.7633 21.0001Z" fill="#227EFD"/>
<path opacity="0.4" d="M39.6667 35H46.6667C49.2333 35 51.3333 37.1 51.3333 39.6667V46.6667C51.3333 49.2333 49.2333 51.3333 46.6667 51.3333H39.6667C37.1 51.3333 35 49.2333 35 46.6667V39.6667C35 37.1 37.1 35 39.6667 35Z" fill="#227EFD"/>
<path d="M27.9999 46.0834H21.7466C19.0399 46.0834 16.6833 44.4501 15.7499 41.9301C14.7933 39.4101 15.4933 36.6334 17.5233 34.8367L36.1666 18.5267C37.2866 17.5467 37.3099 16.2167 36.9833 15.3067C36.6333 14.3967 35.7466 13.4167 34.2533 13.4167H27.9999C27.0433 13.4167 26.2499 12.6234 26.2499 11.6667C26.2499 10.7101 27.0433 9.91675 27.9999 9.91675H34.2533C36.9599 9.91675 39.3166 11.5501 40.2499 14.0701C41.2066 16.5901 40.5066 19.3667 38.4766 21.1634L19.8333 37.4734C18.7133 38.4534 18.6899 39.7834 19.0166 40.6934C19.3666 41.6034 20.2533 42.5834 21.7466 42.5834H27.9999C28.9566 42.5834 29.7499 43.3767 29.7499 44.3334C29.7499 45.2901 28.9566 46.0834 27.9999 46.0834Z" fill="#F77D08"/>
<path d="M43.19 45.4999C41.9067 45.4999 40.8567 44.4499 40.8567 43.1666C40.8567 41.8833 41.8834 40.8333 43.19 40.8333H43.2134C44.4967 40.8333 45.5467 41.8833 45.5467 43.1666C45.5467 44.4499 44.4967 45.4999 43.19 45.4999Z" fill="#227EFD"/>
<path d="M12.8568 15.1667C11.5734 15.1667 10.5234 14.1167 10.5234 12.8333C10.5234 11.55 11.5501 10.5 12.8568 10.5H12.8801C14.1634 10.5 15.2134 11.55 15.2134 12.8333C15.2134 14.1167 14.1634 15.1667 12.8568 15.1667Z" fill="#227EFD"/>
</svg>
