<svg width="56" height="56" viewBox="0 0 56 56" fill="none" xmlns="http://www.w3.org/2000/svg">
<path opacity="0.4" d="M46.3398 18.8767C46.3398 19.2267 46.3399 19.5767 46.3165 19.9034C42.7465 18.5734 38.5465 19.39 35.7465 21.91C33.8565 20.2067 31.4065 19.2501 28.7932 19.2501C23.0532 19.2501 18.3865 23.9401 18.3865 29.7267C18.3865 36.3301 21.6998 41.16 24.8732 44.2867C24.6165 44.2634 24.4065 44.2167 24.2199 44.1467C18.1765 42.07 4.6665 33.4834 4.6665 18.8767C4.6665 12.4367 9.84648 7.2334 16.2398 7.2334C20.0432 7.2334 23.4032 9.05338 25.5032 11.8767C27.6265 9.05338 30.9865 7.2334 34.7665 7.2334C41.1598 7.2334 46.3398 12.4367 46.3398 18.8767Z" fill="#F77D08"/>
<path d="M41.9999 22.3767C39.5033 22.3767 37.2399 23.5901 35.8399 25.4567C34.4399 23.5901 32.2 22.3767 29.68 22.3767C25.4333 22.3767 21.98 25.8301 21.98 30.1234C21.98 31.7801 22.2366 33.2967 22.7033 34.6967C24.8966 41.6267 31.6399 45.7567 34.9766 46.9001C35.4433 47.0634 36.2133 47.0634 36.7033 46.9001C40.04 45.7567 46.7833 41.6267 48.9766 34.6967C49.4433 33.2734 49.6999 31.7567 49.6999 30.1234C49.6999 25.8301 46.2466 22.3767 41.9999 22.3767Z" fill="#227EFD"/>
</svg>
