<svg width="56" height="56" viewBox="0 0 56 56" fill="none" xmlns="http://www.w3.org/2000/svg">
<path opacity="0.4" d="M49 4.66675V32.9001C49 37.3334 46.6667 39.6667 42.2333 39.6667H13.7667C9.33332 39.6667 7 37.3334 7 32.9001V4.66675H49Z" fill="#F77D08"/>
<path d="M51.3334 6.41675H4.66675C3.71008 6.41675 2.91675 5.62341 2.91675 4.66675C2.91675 3.71008 3.71008 2.91675 4.66675 2.91675H51.3334C52.2901 2.91675 53.0834 3.71008 53.0834 4.66675C53.0834 5.62341 52.2901 6.41675 51.3334 6.41675Z" fill="#F77D08"/>
<path d="M38.8966 52.1267C38.5933 52.7334 37.9632 53.0834 37.3332 53.0834C37.0766 53.0834 36.7966 53.0134 36.5633 52.8968L27.9999 48.6267L19.4365 52.8968C19.2032 53.0134 18.9232 53.0834 18.6666 53.0834C18.0366 53.0834 17.4065 52.7334 17.1032 52.1267C16.6599 51.2401 17.0099 50.1901 17.8966 49.7701L26.2499 45.5934V39.6667H29.7499V45.5934L38.1032 49.7701C38.9899 50.1901 39.3399 51.2401 38.8966 52.1267Z" fill="#227EFD"/>
<path d="M17.5 27.4167C17.01 27.4167 16.4967 27.2068 16.1467 26.7868C15.5167 26.0401 15.6333 24.9434 16.38 24.3134L23.73 18.1768C24.4067 17.6168 25.27 17.3834 26.0866 17.5234C26.9266 17.6634 27.65 18.1767 28.0933 18.9234L30.5433 23.0067L37.38 17.3134C38.1266 16.6834 39.2233 16.8 39.8533 17.5467C40.4833 18.2934 40.3667 19.39 39.62 20.02L32.27 26.1567C31.5933 26.7167 30.73 26.95 29.9133 26.81C29.0733 26.67 28.35 26.1568 27.9066 25.4101L25.4567 21.3268L18.62 27.02C18.2933 27.2767 17.8967 27.4167 17.5 27.4167Z" fill="#F77D08"/>
</svg>
