<svg width="56" height="56" viewBox="0 0 56 56" fill="none" xmlns="http://www.w3.org/2000/svg">
<path d="M11.6666 2.33325C9.47325 2.33325 7.44325 3.10326 5.83325 4.3866C3.68659 6.08993 2.33325 8.72659 2.33325 11.6666C2.33325 16.8233 6.50992 20.9999 11.6666 20.9999C14.0233 20.9999 16.17 20.1133 17.8266 18.6666C19.7633 16.9633 20.9999 14.4666 20.9999 11.6666C20.9999 6.50992 16.8233 2.33325 11.6666 2.33325ZM13.9999 12.2499C13.9999 12.8566 13.6733 13.44 13.16 13.7433L10.2433 15.4933C9.96329 15.6566 9.65994 15.7499 9.35661 15.7499C8.77328 15.7499 8.18991 15.4466 7.86324 14.91C7.37324 14.07 7.62993 12.9966 8.46993 12.5066L10.5466 11.27V8.74992C10.5466 7.79325 11.34 6.99992 12.2966 6.99992C13.2533 6.99992 14.0466 7.79325 14.0466 8.74992V12.2499H13.9999Z" fill="#227EFD"/>
<path opacity="0.4" d="M35.0001 7.00008V28.0001C35.0001 30.5667 32.9001 32.6667 30.3334 32.6667H4.66675V17.7801C6.37008 19.8101 8.98348 21.0701 11.8768 21.0001C14.2335 20.9534 16.3568 20.0434 17.9434 18.5268C18.6668 17.9201 19.2735 17.1501 19.7401 16.3101C20.5801 14.8867 21.0467 13.2067 21.0001 11.4567C20.9301 8.72669 19.7168 6.32341 17.8268 4.66675H32.6667C33.9501 4.66675 35.0001 5.71675 35.0001 7.00008Z" fill="#F77D08"/>
<path d="M51.3334 32.6667V39.6667C51.3334 43.5401 48.2067 46.6667 44.3334 46.6667H42.0001C42.0001 44.1001 39.9001 42.0001 37.3334 42.0001C34.7667 42.0001 32.6667 44.1001 32.6667 46.6667H23.3334C23.3334 44.1001 21.2334 42.0001 18.6667 42.0001C16.1001 42.0001 14.0001 44.1001 14.0001 46.6667H11.6667C7.79341 46.6667 4.66675 43.5401 4.66675 39.6667V32.6667H30.3334C32.9001 32.6667 35.0001 30.5667 35.0001 28.0001V11.6667H39.2935C40.9735 11.6667 42.5135 12.5768 43.3535 14.0234L47.3434 21.0001H44.3334C43.0501 21.0001 42.0001 22.0501 42.0001 23.3334V30.3334C42.0001 31.6167 43.0501 32.6667 44.3334 32.6667H51.3334Z" fill="#F77D08"/>
<path opacity="0.4" d="M18.6667 51.3333C21.244 51.3333 23.3333 49.244 23.3333 46.6667C23.3333 44.0893 21.244 42 18.6667 42C16.0893 42 14 44.0893 14 46.6667C14 49.244 16.0893 51.3333 18.6667 51.3333Z" fill="#F77D08"/>
<path opacity="0.4" d="M37.3332 51.3333C39.9105 51.3333 41.9998 49.244 41.9998 46.6667C41.9998 44.0893 39.9105 42 37.3332 42C34.7558 42 32.6665 44.0893 32.6665 46.6667C32.6665 49.244 34.7558 51.3333 37.3332 51.3333Z" fill="#F77D08"/>
<path opacity="0.4" d="M51.3333 29.2367V32.6667H44.3333C43.05 32.6667 42 31.6167 42 30.3333V23.3333C42 22.05 43.05 21 44.3333 21H47.3433L50.7266 26.9266C51.1233 27.6266 51.3333 28.4201 51.3333 29.2367Z" fill="#F77D08"/>
</svg>
