<svg width="56" height="56" viewBox="0 0 56 56" fill="none" xmlns="http://www.w3.org/2000/svg">
<path d="M47.8333 39.0833H42.5833V33.8333C42.5833 32.8766 41.7899 32.0833 40.8333 32.0833C39.8766 32.0833 39.0833 32.8766 39.0833 33.8333V39.0833H33.8333C32.8766 39.0833 32.0833 39.8766 32.0833 40.8333C32.0833 41.7899 32.8766 42.5833 33.8333 42.5833H39.0833V47.8333C39.0833 48.7899 39.8766 49.5833 40.8333 49.5833C41.7899 49.5833 42.5833 48.7899 42.5833 47.8333V42.5833H47.8333C48.7899 42.5833 49.5833 41.7899 49.5833 40.8333C49.5833 39.8766 48.7899 39.0833 47.8333 39.0833Z" fill="#227EFD"/>
<path opacity="0.4" d="M51.3333 19.8801V9.28675C51.3333 5.99675 49.84 4.66675 46.13 4.66675H36.7033C32.9933 4.66675 31.5 5.99675 31.5 9.28675V19.8567C31.5 23.1701 32.9933 24.4767 36.7033 24.4767H46.13C49.84 24.5001 51.3333 23.1701 51.3333 19.8801Z" fill="#F77D08"/>
<path d="M24.5001 19.8801V9.28675C24.5001 5.99675 23.0067 4.66675 19.2967 4.66675H9.87008C6.16008 4.66675 4.66675 5.99675 4.66675 9.28675V19.8567C4.66675 23.1701 6.16008 24.4767 9.87008 24.4767H19.2967C23.0067 24.5001 24.5001 23.1701 24.5001 19.8801Z" fill="#F77D08"/>
<path opacity="0.4" d="M24.5001 46.13V36.7033C24.5001 32.9933 23.0067 31.5 19.2967 31.5H9.87008C6.16008 31.5 4.66675 32.9933 4.66675 36.7033V46.13C4.66675 49.84 6.16008 51.3333 9.87008 51.3333H19.2967C23.0067 51.3333 24.5001 49.84 24.5001 46.13Z" fill="#F77D08"/>
</svg>
