<svg width="56" height="56" viewBox="0 0 56 56" fill="none" xmlns="http://www.w3.org/2000/svg">
<path opacity="0.4" d="M40.7167 40.3667C36.7967 40.3667 33.18 38.5234 30.8233 35.2801C30.2633 34.5101 30.4267 33.4135 31.1967 32.8301C31.9667 32.2468 33.0634 32.4335 33.6467 33.2035C35.35 35.5135 37.9167 36.8435 40.7167 36.8435C45.5934 36.8435 49.5833 32.8768 49.5833 27.9768C49.5833 23.0768 45.6167 19.1101 40.7167 19.1101C37.4034 19.1101 34.2766 20.8835 32.5733 23.7068L26.39 33.9968C24.0567 37.8935 19.7867 40.2968 15.26 40.2968C8.44669 40.2968 2.89331 34.7434 2.89331 27.9301C2.89331 21.1168 8.44669 15.5635 15.26 15.5635C19.18 15.5635 22.7967 17.4068 25.1533 20.6501C25.7133 21.4201 25.55 22.5168 24.78 23.1001C23.9867 23.6834 22.9134 23.4968 22.33 22.7268C20.6267 20.4168 18.06 19.0868 15.26 19.0868C10.3834 19.0868 6.39331 23.0535 6.39331 27.9535C6.39331 32.8535 10.36 36.8201 15.26 36.8201C18.5734 36.8201 21.7 35.0468 23.4033 32.2234L29.5867 21.9334C31.92 18.0368 36.19 15.6335 40.7167 15.6335C47.53 15.6335 53.0833 21.1868 53.0833 28.0001C53.0833 34.8134 47.53 40.3667 40.7167 40.3667Z" fill="#F77D08"/>
<path d="M15.1667 32.6666C17.744 32.6666 19.8333 30.5772 19.8333 27.9999C19.8333 25.4226 17.744 23.3333 15.1667 23.3333C12.5893 23.3333 10.5 25.4226 10.5 27.9999C10.5 30.5772 12.5893 32.6666 15.1667 32.6666Z" fill="#227EFD"/>
<path d="M40.8332 32.6666C43.4105 32.6666 45.4998 30.5772 45.4998 27.9999C45.4998 25.4226 43.4105 23.3333 40.8332 23.3333C38.2558 23.3333 36.1665 25.4226 36.1665 27.9999C36.1665 30.5772 38.2558 32.6666 40.8332 32.6666Z" fill="#227EFD"/>
</svg>
