<svg width="56" height="56" viewBox="0 0 56 56" fill="none" xmlns="http://www.w3.org/2000/svg">
<path opacity="0.4" d="M47.8335 23.7767H41.0902C35.5602 23.7767 31.0568 19.2734 31.0568 13.7434V7.00008C31.0568 5.71675 30.0068 4.66675 28.7235 4.66675H18.8302C11.6435 4.66675 5.8335 9.33342 5.8335 17.6634V38.3367C5.8335 46.6667 11.6435 51.3334 18.8302 51.3334H37.1702C44.3568 51.3334 50.1668 46.6667 50.1668 38.3367V26.1101C50.1668 24.8267 49.1168 23.7767 47.8335 23.7767Z" fill="#F77D08"/>
<path d="M36.8668 5.15657C35.9101 4.1999 34.2534 4.85324 34.2534 6.18324V14.3266C34.2534 17.7332 37.1468 20.5566 40.6701 20.5566C42.8868 20.5799 45.9668 20.5799 48.6034 20.5799C49.9334 20.5799 50.6334 19.0166 49.7001 18.0832C46.3401 14.6999 40.3201 8.6099 36.8668 5.15657Z" fill="#227EFD"/>
<path d="M31.5 32.0833H17.5C16.5433 32.0833 15.75 31.2899 15.75 30.3333C15.75 29.3766 16.5433 28.5833 17.5 28.5833H31.5C32.4567 28.5833 33.25 29.3766 33.25 30.3333C33.25 31.2899 32.4567 32.0833 31.5 32.0833Z" fill="#F77D08"/>
<path d="M26.8333 41.4167H17.5C16.5433 41.4167 15.75 40.6234 15.75 39.6667C15.75 38.7101 16.5433 37.9167 17.5 37.9167H26.8333C27.79 37.9167 28.5833 38.7101 28.5833 39.6667C28.5833 40.6234 27.79 41.4167 26.8333 41.4167Z" fill="#F77D08"/>
</svg>
