<svg width="20" height="20" viewBox="0 0 20 20" fill="none" xmlns="http://www.w3.org/2000/svg">
<path d="M18.001 7.14627L14.75 6.40238V4.80838C14.75 3.75438 14.033 2.85324 13.006 2.61624L3.00598 0.308383C2.33398 0.153383 1.63998 0.310268 1.09998 0.740268C0.559976 1.17027 0.25 1.81125 0.25 2.50125V17.0013C0.25 18.7493 1.252 19.7513 3 19.7513H17C18.748 19.7513 19.75 18.7493 19.75 17.0013V9.34037C19.75 8.28437 19.031 7.38127 18.001 7.14627ZM1.75 17.0003V2.50028C1.75 2.27028 1.85396 2.05636 2.03296 1.91336C2.16796 1.80636 2.33105 1.75028 2.49805 1.75028C2.55505 1.75028 2.61197 1.7563 2.66797 1.7703L12.668 4.07816C13.011 4.15716 13.25 4.45738 13.25 4.80838V7.00028V18.2503H10.25V15.0003C10.25 13.4833 9.017 12.2503 7.5 12.2503C5.983 12.2503 4.75 13.4833 4.75 15.0003V18.2503H3C2.077 18.2503 1.75 17.9233 1.75 17.0003ZM8.75 18.2503H6.25V15.0003C6.25 14.3113 6.811 13.7503 7.5 13.7503C8.189 13.7503 8.75 14.3113 8.75 15.0003V18.2503ZM18.25 17.0003C18.25 17.9233 17.923 18.2503 17 18.2503H14.75V7.9412L17.667 8.60819C18.01 8.68719 18.25 8.98739 18.25 9.33939V17.0003ZM8.25 7.00028C8.25 6.58628 8.586 6.25028 9 6.25028H10C10.414 6.25028 10.75 6.58628 10.75 7.00028C10.75 7.41428 10.414 7.75028 10 7.75028H9C8.586 7.75028 8.25 7.41428 8.25 7.00028ZM4.25 7.00028C4.25 6.58628 4.586 6.25028 5 6.25028H6C6.414 6.25028 6.75 6.58628 6.75 7.00028C6.75 7.41428 6.414 7.75028 6 7.75028H5C4.586 7.75028 4.25 7.41428 4.25 7.00028ZM8.25 10.0003C8.25 9.58628 8.586 9.25028 9 9.25028H10C10.414 9.25028 10.75 9.58628 10.75 10.0003C10.75 10.4143 10.414 10.7503 10 10.7503H9C8.586 10.7503 8.25 10.4143 8.25 10.0003ZM4.25 10.0003C4.25 9.58628 4.586 9.25028 5 9.25028H6C6.414 9.25028 6.75 9.58628 6.75 10.0003C6.75 10.4143 6.414 10.7503 6 10.7503H5C4.586 10.7503 4.25 10.4143 4.25 10.0003Z" fill="#575A63"/>
</svg>
