<svg width="44" height="44" viewBox="0 0 44 44" fill="none" xmlns="http://www.w3.org/2000/svg">
<rect x="0.5" y="0.5" width="43" height="43" rx="21.5" fill="black" fill-opacity="0.05"/>
<rect x="0.5" y="0.5" width="43" height="43" rx="21.5" stroke="#EEEFEF"/>
<path d="M25.553 31.75H18.448C16.243 31.75 15.028 30.542 15.028 28.35C15.028 25.946 16.388 23.139 20.223 23.139H23.778C27.613 23.139 28.973 25.946 28.973 28.35C28.973 30.542 27.758 31.75 25.553 31.75ZM20.223 24.639C16.794 24.639 16.528 27.479 16.528 28.35C16.528 29.7 17.085 30.25 18.448 30.25H25.553C26.916 30.25 27.473 29.699 27.473 28.35C27.473 27.479 27.206 24.639 23.778 24.639H20.223ZM22.0081 21.762C19.9371 21.762 18.252 20.077 18.252 18.006C18.252 15.935 19.9371 14.25 22.0081 14.25C24.0791 14.25 25.765 15.935 25.765 18.006C25.765 20.077 24.0791 21.762 22.0081 21.762ZM22.0081 15.75C20.7641 15.75 19.752 16.762 19.752 18.006C19.752 19.25 20.7641 20.262 22.0081 20.262C23.2521 20.262 24.265 19.25 24.265 18.006C24.265 16.762 23.2521 15.75 22.0081 15.75ZM32.75 22.65C32.75 20.674 31.525 18.6801 28.79 18.6801H27.8199C27.4059 18.6801 27.0699 19.0161 27.0699 19.4301C27.0699 19.8441 27.4059 20.1801 27.8199 20.1801H28.79C31.011 20.1801 31.25 21.907 31.25 22.65C31.25 23.514 30.9409 23.8199 30.0699 23.8199H29.71C29.296 23.8199 28.96 24.1559 28.96 24.5699C28.96 24.9839 29.296 25.3199 29.71 25.3199H30.0699C31.7729 25.3199 32.75 24.347 32.75 22.65ZM28.099 18.035C29.45 17.763 30.4301 16.557 30.4301 15.17C30.4301 13.56 29.12 12.25 27.51 12.25C26.749 12.25 26.041 12.532 25.517 13.043C25.22 13.332 25.2141 13.807 25.5031 14.104C25.7911 14.401 26.268 14.407 26.564 14.118C26.807 13.881 27.143 13.751 27.51 13.751C28.293 13.751 28.9301 14.388 28.9301 15.171C28.9301 15.847 28.455 16.434 27.802 16.566C27.396 16.648 27.133 17.044 27.215 17.45C27.287 17.806 27.6 18.052 27.949 18.052C27.999 18.05 28.049 18.045 28.099 18.035ZM15.03 24.5699C15.03 24.1559 14.694 23.8199 14.28 23.8199H13.929C13.058 23.8199 12.749 23.514 12.749 22.65C12.749 21.907 12.988 20.1801 15.209 20.1801H16.199C16.613 20.1801 16.949 19.8441 16.949 19.4301C16.949 19.0161 16.613 18.6801 16.199 18.6801H15.209C12.286 18.6801 11.249 20.819 11.249 22.65C11.249 24.347 12.226 25.3199 13.929 25.3199H14.28C14.694 25.3199 15.03 24.9839 15.03 24.5699ZM16.806 17.448C16.888 17.042 16.625 16.646 16.219 16.564C15.559 16.431 15.08 15.8449 15.08 15.1689C15.08 14.3859 15.722 13.749 16.51 13.749C16.87 13.749 17.2089 13.882 17.4659 14.124C17.7669 14.409 18.241 14.395 18.526 14.094C18.811 13.793 18.797 13.3181 18.496 13.0341C17.961 12.5281 17.256 12.249 16.511 12.249C14.896 12.249 13.5811 13.5589 13.5811 15.1689C13.5811 16.5549 14.566 17.7601 15.923 18.0341C15.973 18.0441 16.023 18.049 16.072 18.049C16.421 18.05 16.733 17.804 16.806 17.448Z" fill="black"/>
</svg>
