<svg width="52" height="52" viewBox="0 0 52 52" fill="none" xmlns="http://www.w3.org/2000/svg">
<g filter="url(#filter0_d_502_461)">
<rect x="4" width="44" height="44" rx="22" fill="black" fill-opacity="0.05" shape-rendering="crispEdges"/>
<rect x="4.5" y="0.5" width="43" height="43" rx="21.5" stroke="#EEEFEF" shape-rendering="crispEdges"/>
<path d="M26.001 12.25C20.626 12.25 16.2529 16.623 16.2529 21.999C16.2529 23.399 16.564 24.808 17.155 26.082C17.27 26.325 17.2789 26.633 17.1809 26.94L16.3401 29.441C16.1301 30.073 16.2931 30.76 16.7671 31.233C17.1031 31.569 17.5469 31.749 18.0039 31.749C18.1899 31.749 18.3771 31.719 18.5611 31.658L21.0501 30.822C21.3681 30.721 21.6771 30.728 21.9251 30.848C23.1921 31.437 24.601 31.748 26 31.748C31.376 31.748 35.749 27.375 35.749 21.999C35.749 16.623 31.377 12.25 26.001 12.25ZM26.001 30.248C24.818 30.248 23.628 29.985 22.565 29.491C21.976 29.21 21.277 29.175 20.583 29.397L18.085 30.236C17.96 30.278 17.8699 30.214 17.8279 30.172C17.7859 30.13 17.7219 30.041 17.7639 29.916L18.6079 27.405C18.8249 26.722 18.79 26.023 18.513 25.442C18.016 24.372 17.7529 23.182 17.7529 21.998C17.7529 17.45 21.453 13.749 26.001 13.749C30.55 13.749 34.25 17.449 34.25 21.998C34.25 26.547 30.55 30.248 26.001 30.248ZM28.584 19.905C28.769 20.957 28.329 21.897 27.345 22.551C26.789 22.92 26.713 23.108 26.71 23.115C26.597 23.417 26.3051 23.611 25.9971 23.611C25.9151 23.611 25.833 23.598 25.752 23.569C25.367 23.432 25.1581 23.023 25.2891 22.635C25.4921 22.034 26.0859 21.586 26.5149 21.302C27.1509 20.88 27.1579 20.451 27.1079 20.165C27.0299 19.724 26.653 19.347 26.211 19.269C25.875 19.209 25.5381 19.295 25.2781 19.513C25.0221 19.728 24.876 20.042 24.876 20.375C24.876 20.789 24.54 21.125 24.126 21.125C23.712 21.125 23.376 20.789 23.376 20.375C23.376 19.597 23.718 18.865 24.314 18.364C24.91 17.864 25.694 17.655 26.471 17.791C27.528 17.977 28.397 18.846 28.584 19.905ZM27.02 25.5C27.02 26.052 26.573 26.5 26.02 26.5C25.468 26.5 25.0149 26.052 25.0149 25.5C25.0149 24.948 25.458 24.5 26.01 24.5H26.02C26.572 24.5 27.02 24.948 27.02 25.5Z" fill="black"/>
</g>
<defs>
<filter id="filter0_d_502_461" x="0" y="0" width="52" height="52" filterUnits="userSpaceOnUse" color-interpolation-filters="sRGB">
<feFlood flood-opacity="0" result="BackgroundImageFix"/>
<feColorMatrix in="SourceAlpha" type="matrix" values="0 0 0 0 0 0 0 0 0 0 0 0 0 0 0 0 0 0 127 0" result="hardAlpha"/>
<feOffset dy="4"/>
<feGaussianBlur stdDeviation="2"/>
<feComposite in2="hardAlpha" operator="out"/>
<feColorMatrix type="matrix" values="0 0 0 0 0 0 0 0 0 0 0 0 0 0 0 0 0 0 0.25 0"/>
<feBlend mode="normal" in2="BackgroundImageFix" result="effect1_dropShadow_502_461"/>
<feBlend mode="normal" in="SourceGraphic" in2="effect1_dropShadow_502_461" result="shape"/>
</filter>
</defs>
</svg>
