<svg width="44" height="44" viewBox="0 0 44 44" fill="none" xmlns="http://www.w3.org/2000/svg">
<rect x="0.5" y="0.5" width="43" height="43" rx="21.5" fill="black" fill-opacity="0.05"/>
<rect x="0.5" y="0.5" width="43" height="43" rx="21.5" stroke="#EEEFEF"/>
<path d="M31.271 16.2841C31.177 16.0511 30.972 15.8811 30.726 15.8301C30.479 15.7791 30.224 15.8561 30.047 16.0331L27.865 18.2041C27.578 18.4901 27.111 18.4901 26.823 18.2031L25.798 17.1781C25.511 16.8911 25.51 16.4231 25.797 16.1351L27.968 13.9541C28.145 13.7761 28.221 13.5211 28.171 13.2751C28.121 13.0291 27.95 12.8241 27.717 12.7301C25.795 11.9531 23.654 12.1311 21.841 13.2161C21.019 13.7091 20.323 14.3861 19.83 15.1721C19.83 15.1721 19.829 15.1731 19.829 15.1741L19.747 15.3091C18.935 16.6521 18.621 18.1591 18.84 19.6701C18.871 19.8841 18.792 20.1101 18.629 20.2741L13.306 25.5971C12.625 26.2781 12.25 27.1831 12.25 28.1471C12.25 29.1111 12.625 30.0151 13.306 30.6961C13.987 31.3771 14.892 31.7521 15.856 31.7521C16.819 31.7521 17.724 31.3771 18.405 30.6961L23.728 25.3731C23.891 25.2101 24.118 25.1311 24.332 25.1621C25.84 25.3811 27.344 25.0711 28.681 24.2661C29.544 23.7471 30.269 23.0221 30.774 22.1731C31.869 20.3591 32.051 18.2131 31.271 16.2841ZM29.487 21.4011C29.106 22.0421 28.56 22.5881 27.907 22.9791C26.598 23.7681 25.357 23.7931 24.548 23.6761C23.864 23.5761 23.164 23.8141 22.668 24.3111L17.345 29.6341C16.548 30.4301 15.162 30.4291 14.367 29.6341C13.97 29.2361 13.75 28.7071 13.75 28.1451C13.75 27.5831 13.969 27.0541 14.367 26.6561L19.691 21.3331C20.187 20.8361 20.424 20.1341 20.325 19.4541C20.157 18.2921 20.401 17.1271 21.035 16.0781L21.102 15.9681C21.47 15.3821 21.993 14.8751 22.612 14.5031C23.886 13.7401 25.082 13.6651 26 13.8051L24.733 15.0771C23.865 15.9501 23.866 17.3681 24.737 18.2391L25.762 19.2631C26.633 20.1351 28.051 20.1361 28.924 19.2671L30.195 18.0021C30.364 19.1571 30.123 20.3481 29.487 21.4011ZM16.02 27.0001H16.01C15.458 27.0001 15.015 27.4481 15.015 28.0001C15.015 28.5521 15.468 29.0001 16.02 29.0001C16.572 29.0001 17.02 28.5521 17.02 28.0001C17.02 27.4481 16.572 27.0001 16.02 27.0001Z" fill="black"/>
</svg>
