<svg width="44" height="44" viewBox="0 0 44 44" fill="none" xmlns="http://www.w3.org/2000/svg">
<rect x="0.5" y="0.5" width="43" height="43" rx="21.5" fill="black" fill-opacity="0.05"/>
<rect x="0.5" y="0.5" width="43" height="43" rx="21.5" stroke="#EEEFEF"/>
<path d="M22.75 28C22.75 28.414 22.414 28.75 22 28.75H15C12.582 28.75 11.25 27.418 11.25 25V17C11.25 14.582 12.582 13.25 15 13.25H27C29.418 13.25 30.75 14.582 30.75 17V21C30.75 21.414 30.414 21.75 30 21.75C29.586 21.75 29.25 21.414 29.25 21V17C29.25 15.423 28.577 14.75 27 14.75H15C13.423 14.75 12.75 15.423 12.75 17V25C12.75 26.577 13.423 27.25 15 27.25H22C22.414 27.25 22.75 27.586 22.75 28ZM14 21C14 21.552 14.448 22 15 22C15.552 22 16 21.552 16 21C16 20.448 15.552 20 15 20C14.448 20 14 20.448 14 21ZM24.75 21C24.75 23.068 23.068 24.75 21 24.75C18.932 24.75 17.25 23.068 17.25 21C17.25 18.932 18.932 17.25 21 17.25C23.068 17.25 24.75 18.932 24.75 21ZM23.25 21C23.25 19.759 22.241 18.75 21 18.75C19.759 18.75 18.75 19.759 18.75 21C18.75 22.241 19.759 23.25 21 23.25C22.241 23.25 23.25 22.241 23.25 21ZM32.75 27.5C32.75 29.844 30.843 31.75 28.5 31.75C26.157 31.75 24.25 29.844 24.25 27.5C24.25 25.156 26.157 23.25 28.5 23.25C30.843 23.25 32.75 25.156 32.75 27.5ZM25.75 27.5C25.75 27.985 25.887 28.435 26.108 28.831L29.831 25.109C29.435 24.888 28.985 24.75 28.5 24.75C26.983 24.75 25.75 25.984 25.75 27.5ZM31.25 27.5C31.25 27.015 31.113 26.565 30.892 26.169L27.169 29.891C27.565 30.112 28.015 30.25 28.5 30.25C30.017 30.25 31.25 29.016 31.25 27.5Z" fill="black"/>
</svg>
