<svg width="44" height="44" viewBox="0 0 44 44" fill="none" xmlns="http://www.w3.org/2000/svg">
<rect x="0.5" y="0.5" width="43" height="43" rx="21.5" fill="black" fill-opacity="0.05"/>
<rect x="0.5" y="0.5" width="43" height="43" rx="21.5" stroke="#EEEFEF"/>
<path d="M25.8172 28.5789C24.4462 29.5649 22.9612 29.8969 21.5832 29.8969C20.0662 29.8969 18.6851 29.4949 17.7191 29.1189C17.2141 30.3359 17.0321 31.134 17.0271 31.155C16.9521 31.508 16.6402 31.749 16.2942 31.749C16.2432 31.749 16.1911 31.7439 16.1391 31.7329C15.7341 31.6479 15.4751 31.2509 15.5601 30.8459C15.6171 30.5749 17.0271 24.1489 23.7091 19.1329C24.0411 18.8839 24.5111 18.9519 24.7591 19.2829C25.0081 19.6139 24.9411 20.0839 24.6101 20.3329C21.3601 22.7729 19.4471 25.5989 18.3521 27.7549C19.9261 28.3539 22.6762 28.99 24.9422 27.361C29.6912 23.945 28.1861 17.0999 27.3211 14.3209C26.7581 14.9049 25.9022 15.5889 24.7262 15.9979C23.8822 16.2869 23.1111 16.4909 22.3651 16.6879C21.1441 17.0109 20.0902 17.2889 19.0442 17.8499C15.3592 19.8359 15.3522 23.9149 16.2472 26.1729C16.4002 26.5579 16.2111 26.9939 15.8261 27.1469C15.4421 27.2989 15.0051 27.1109 14.8521 26.7259C13.7601 23.9699 13.7852 18.98 18.3332 16.53C19.5362 15.885 20.7242 15.5709 21.9812 15.2379C22.7012 15.0479 23.4461 14.8509 24.2351 14.5799C25.6511 14.0869 26.4661 13.075 26.7511 12.663C26.9381 12.375 27.2831 12.2109 27.6471 12.2559C28.0081 12.3009 28.3041 12.5449 28.4201 12.8909C29.0891 14.6949 32.1402 24.0319 25.8172 28.5789Z" fill="black"/>
</svg>
