<svg width="44" height="44" viewBox="0 0 44 44" fill="none" xmlns="http://www.w3.org/2000/svg">
<rect x="0.5" y="0.5" width="43" height="43" rx="21.5" fill="black" fill-opacity="0.05"/>
<rect x="0.5" y="0.5" width="43" height="43" rx="21.5" stroke="#EEEFEF"/>
<path d="M22 11.25C16.072 11.25 11.25 16.073 11.25 22C11.25 27.927 16.072 32.75 22 32.75C27.928 32.75 32.75 27.927 32.75 22C32.75 16.073 27.928 11.25 22 11.25ZM31.212 21.25H27.162C27.031 18.507 26.187 15.712 24.727 13.161C28.27 14.257 30.903 17.43 31.212 21.25ZM22.73 12.787C24.486 15.398 25.509 18.36 25.662 21.25H18.338C18.49 18.36 19.514 15.398 21.27 12.787C21.512 12.768 21.754 12.75 22 12.75C22.246 12.75 22.489 12.768 22.73 12.787ZM19.273 13.161C17.813 15.712 16.969 18.507 16.838 21.25H12.788C13.097 17.43 15.73 14.257 19.273 13.161ZM12.788 22.75H16.838C16.969 25.493 17.813 28.288 19.273 30.839C15.73 29.743 13.097 26.57 12.788 22.75ZM21.27 31.213C19.514 28.602 18.491 25.64 18.338 22.75H25.662C25.51 25.64 24.486 28.602 22.73 31.213C22.488 31.232 22.246 31.25 22 31.25C21.754 31.25 21.511 31.232 21.27 31.213ZM24.727 30.839C26.187 28.288 27.031 25.493 27.162 22.75H31.212C30.903 26.57 28.27 29.743 24.727 30.839Z" fill="black"/>
</svg>
