<svg width="44" height="44" viewBox="0 0 44 44" fill="none" xmlns="http://www.w3.org/2000/svg">
<rect x="0.5" y="0.5" width="43" height="43" rx="21.5" fill="black" fill-opacity="0.05"/>
<rect x="0.5" y="0.5" width="43" height="43" rx="21.5" stroke="#EEEFEF"/>
<path d="M21.7129 12.253C19.7239 12.19 17.863 12.9231 16.447 14.3001C15.03 15.6771 14.25 17.5241 14.25 19.5001C14.25 21.2551 14.993 22.977 16.521 24.763C17.263 25.631 17.75 26.2781 17.75 27.3221V28.0001C17.75 30.2431 19.258 31.7501 21.501 31.7501C23.744 31.7501 25.251 30.2431 25.251 28.0001V27.317C25.251 26.259 25.742 25.609 26.436 24.804C27.601 23.452 28.788 21.757 28.749 19.431C28.686 15.583 25.5289 12.362 21.7129 12.253ZM21.5 30.2501C20.091 30.2501 19.25 29.4091 19.25 28.0001V27.7501H23.751V28.0001C23.751 29.4091 22.909 30.2501 21.5 30.2501ZM25.2991 23.825C24.6861 24.536 24.121 25.2661 23.877 26.2501H22.25V23.3111L24.03 21.5311C24.323 21.2381 24.323 20.7631 24.03 20.4701C23.737 20.1771 23.262 20.1771 22.969 20.4701L21.499 21.94L20.0291 20.4701C19.7361 20.1771 19.261 20.1771 18.968 20.4701C18.675 20.7631 18.675 21.2381 18.968 21.5311L20.748 23.3111V26.2501H19.1189C18.8749 25.2811 18.3099 24.5482 17.6599 23.7882C16.3729 22.2852 15.748 20.8821 15.748 19.5001C15.748 17.9331 16.367 16.4681 17.491 15.3761C18.574 14.3241 19.9901 13.7501 21.4971 13.7501C21.5541 13.7501 21.611 13.751 21.668 13.752C24.693 13.839 27.1961 16.3972 27.2471 19.4552C27.2791 21.2782 26.2801 22.687 25.2991 23.825Z" fill="black"/>
</svg>
