<svg width="44" height="44" viewBox="0 0 44 44" fill="none" xmlns="http://www.w3.org/2000/svg">
<rect x="0.5" y="0.5" width="43" height="43" rx="21.5" fill="black" fill-opacity="0.05"/>
<rect x="0.5" y="0.5" width="43" height="43" rx="21.5" stroke="#EEEFEF"/>
<path d="M15.85 25.73C15.2 25.73 14.56 25.98 14.07 26.47C13.26 27.28 12.49 30 12.28 30.81C12.21 31.07 12.28 31.34 12.47 31.53C12.61 31.68 12.81 31.76 13.01 31.76C13.07 31.76 13.13 31.76 13.19 31.74C13.97 31.55 16.58 30.86 17.4 30.05C18.42 29.03 18.49 27.43 17.55 26.48C17.09 26.02 16.49 25.76 15.87 25.74L15.85 25.73ZM16.33 28.97C16.08 29.22 15.13 29.59 14.11 29.91C14.47 28.81 14.88 27.79 15.14 27.52C15.34 27.32 15.57 27.21 15.82 27.22C16.06 27.22 16.29 27.33 16.48 27.52C16.84 27.88 16.77 28.53 16.33 28.96V28.97ZM25.26 15.78C23.61 15.78 22.26 17.12 22.26 18.77C22.26 20.42 23.61 21.76 25.26 21.76C26.91 21.76 28.26 20.42 28.26 18.77C28.26 17.12 26.91 15.78 25.26 15.78ZM25.26 20.27C24.43 20.27 23.76 19.6 23.76 18.78C23.76 17.96 24.43 17.29 25.26 17.29C26.09 17.29 26.76 17.96 26.76 18.78C26.76 19.6 26.09 20.27 25.26 20.27ZM31.44 13.07C31.37 12.8 31.16 12.59 30.89 12.53C30.65 12.47 24.87 11.12 21.1 14.89C20.59 15.4 20.16 15.9 19.76 16.38L17.67 16.83C15.69 17.15 14.01 18.5 13.27 20.35L12.31 22.74C12.21 23 12.25 23.29 12.43 23.5C12.57 23.67 12.78 23.76 13 23.76C13.05 23.76 13.11 23.76 13.16 23.74L16.53 22.99C16.48 23.16 16.43 23.33 16.37 23.51C16.24 23.96 16.35 24.44 16.68 24.76L19.2 27.28C19.44 27.52 19.76 27.65 20.09 27.65C20.2 27.65 20.31 27.64 20.41 27.61C20.62 27.55 20.82 27.5 21.02 27.44L20.26 30.83C20.2 31.1 20.29 31.38 20.51 31.56C20.65 31.68 20.82 31.74 21 31.74C21.09 31.74 21.19 31.72 21.28 31.69L23.67 30.73C25.53 29.99 26.89 28.31 27.2 26.38L27.64 24.36C28.14 23.95 28.65 23.51 29.19 22.97C32.96 19.19 31.5 13.31 31.44 13.06V13.07ZM14.24 21.98L14.67 20.91C15.21 19.54 16.46 18.55 17.95 18.31L18.5 18.19C18.25 18.61 18.04 19.03 17.84 19.47C17.83 19.49 17.82 19.51 17.81 19.53C17.54 20.11 17.3 20.72 17.08 21.35L14.24 21.98ZM20.17 26.13L17.86 23.82C18.16 22.81 18.45 21.93 18.77 21.11L22.96 25.29C22.14 25.59 21.24 25.85 20.18 26.14L20.17 26.13ZM25.73 26.11C25.5 27.56 24.5 28.8 23.12 29.34L22.05 29.77L22.68 26.96C23.35 26.75 23.97 26.51 24.56 26.26C24.57 26.26 24.59 26.25 24.6 26.24C25.03 26.05 25.44 25.84 25.84 25.61L25.73 26.11ZM24.45 24.66L19.41 19.63C20.04 18.4 20.86 17.25 22.16 15.95C24.77 13.34 28.74 13.69 30.08 13.9C30.32 15.25 30.75 19.3 28.13 21.92C26.83 23.22 25.71 24.04 24.45 24.66Z" fill="black"/>
</svg>
