<svg width="44" height="44" viewBox="0 0 44 44" fill="none" xmlns="http://www.w3.org/2000/svg">
<rect x="0.5" y="0.5" width="43" height="43" rx="21.5" fill="black" fill-opacity="0.05"/>
<rect x="0.5" y="0.5" width="43" height="43" rx="21.5" stroke="#EEEFEF"/>
<path d="M31.176 19.608C30.73 18.988 29.7991 18.2501 27.9041 18.2501H24.748V15.7631C24.748 14.5071 24.124 13.3411 23.079 12.6431C22.482 12.2451 21.748 12.1431 21.066 12.3631C20.382 12.5831 19.846 13.0941 19.585 13.7951L17.457 20.2501H14.501C13.261 20.2501 12.251 21.2591 12.251 22.5001V29.5001C12.251 30.7411 13.261 31.7501 14.501 31.7501H25.905C28.401 31.7501 29.012 30.537 29.463 29.186L31.462 23.186C31.929 21.782 31.827 20.511 31.176 19.608ZM13.75 29.5001V22.5001C13.75 22.0861 14.087 21.7501 14.5 21.7501H16.5V30.2501H14.5C14.087 30.2501 13.75 29.9141 13.75 29.5001ZM30.037 22.7111L28.038 28.7111C27.683 29.7781 27.4601 30.2501 25.9041 30.2501H18V21.7501C18.324 21.7501 18.6101 21.5421 18.7111 21.2351L20.998 14.2941C21.089 14.0531 21.28 13.8701 21.525 13.7911C21.77 13.7111 22.032 13.7491 22.246 13.8911C22.873 14.3091 23.2469 15.0091 23.2469 15.7631V19.0001C23.2469 19.4141 23.5829 19.7501 23.9969 19.7501H27.903C28.599 19.7501 29.521 19.8771 29.959 20.4851C30.315 20.9791 30.345 21.7911 30.037 22.7111Z" fill="black"/>
</svg>
