<svg width="44" height="44" viewBox="0 0 44 44" fill="none" xmlns="http://www.w3.org/2000/svg">
<rect x="0.5" y="0.5" width="43" height="43" rx="21.5" fill="black" fill-opacity="0.05"/>
<rect x="0.5" y="0.5" width="43" height="43" rx="21.5" stroke="#EEEFEF"/>
<path d="M28 31.75H16C13.582 31.75 12.25 30.418 12.25 28V19.732C12.25 18.643 12.791 17.632 13.697 17.028L19.9199 12.88C21.1839 12.038 22.8161 12.038 24.0801 12.88L30.303 17.028C31.209 17.632 31.75 18.643 31.75 19.732V28C31.75 30.418 30.418 31.75 28 31.75ZM22 13.749C21.565 13.749 21.131 13.875 20.752 14.128L14.5291 18.276C14.0411 18.601 13.75 19.146 13.75 19.732V28C13.75 29.577 14.423 30.25 16 30.25H28C29.577 30.25 30.25 29.577 30.25 28V19.732C30.25 19.146 29.9589 18.601 29.4709 18.276L23.248 14.128C22.869 13.875 22.435 13.749 22 13.749ZM22.8569 24.94L27.4409 21.606C27.7759 21.362 27.85 20.893 27.606 20.558C27.363 20.224 26.8961 20.148 26.5581 20.393L21.9751 23.726C21.9091 23.774 21.8231 23.774 21.7581 23.727L17.1741 20.393C16.8371 20.149 16.368 20.224 16.126 20.558C15.882 20.893 15.956 21.362 16.291 21.606L20.875 24.94C21.171 25.155 21.518 25.263 21.865 25.263C22.213 25.263 22.5609 25.156 22.8569 24.94Z" fill="black"/>
</svg>
