<svg width="16" height="20" viewBox="0 0 16 20" fill="none" xmlns="http://www.w3.org/2000/svg">
<path d="M11.647 6.16602C11.402 6.03702 11.25 5.78596 11.25 5.51196V1.75H12C12.414 1.75 12.75 1.414 12.75 1C12.75 0.586 12.414 0.25 12 0.25H4C3.586 0.25 3.25 0.586 3.25 1C3.25 1.414 3.586 1.75 4 1.75H4.75V5.51196C4.75 5.78596 4.59805 6.03699 4.35205 6.16699C1.82205 7.50799 0.25 10.126 0.25 13C0.25 15.143 1.104 17.1339 2.651 18.6069L2.80005 18.752C3.45605 19.39 3.90696 19.751 5.55896 19.751H10.4399C12.0909 19.751 12.543 19.39 13.199 18.752L13.347 18.6079C14.896 17.1349 15.749 15.143 15.749 13.001C15.75 10.125 14.179 7.50702 11.647 6.16602ZM5.05396 7.49194C5.79195 7.10094 6.25 6.34296 6.25 5.51196V1.75H9.75V5.51196C9.75 6.34296 10.2079 7.10194 10.9449 7.49194C12.9469 8.55294 14.1979 10.6109 14.2419 12.8799C13.1179 13.3429 10.826 13.902 8 12.5C5.217 11.123 2.95999 11.6379 1.81799 12.0959C2.10099 10.1439 3.28595 8.42894 5.05396 7.49194Z" fill="#6F5DE6"/>
</svg>
