<svg width="622" height="240" viewBox="0 0 622 240" fill="none" xmlns="http://www.w3.org/2000/svg">
<rect x="52.3333" y="28" width="517.333" height="200" rx="12" fill="white" fill-opacity="0.8"/>
<g filter="url(#filter0_d_430_576)">
<rect x="20" y="16" width="582" height="200" rx="16" fill="white" shape-rendering="crispEdges"/>
<rect x="40" y="36" width="44" height="44" rx="22" fill="#FEF2E6"/>
<path d="M68 55.44C68.03 57.4 67.0701 58.9201 65.8701 60.3101C65.3961 60.8651 64.9731 61.396 64.7271 62.052C64.6831 62.169 64.5769 62.25 64.4529 62.25H62.55C62.384 62.25 62.25 62.116 62.25 61.95V59.3101L64.03 57.5301C64.32 57.2401 64.32 56.76 64.03 56.47C63.74 56.18 63.26 56.18 62.97 56.47L61.5 57.94L60.03 56.47C59.74 56.18 59.26 56.18 58.97 56.47C58.68 56.76 58.68 57.2401 58.97 57.5301L60.75 59.3101V61.95C60.75 62.116 60.616 62.25 60.45 62.25H58.5349C58.4109 62.25 58.306 62.17 58.262 62.054C58.007 61.386 57.5741 60.8451 57.0901 60.2801C56.0001 59.0001 55 57.39 55 55.5C55 51.85 58.0099 48.9 61.6899 49C65.1199 49.1 67.94 52.02 68 55.44ZM64.2 63.75C64.082 63.75 58.918 63.75 58.8 63.75C58.5 63.75 58.5 64 58.5 64C58.5 65 58.8399 65.75 59.3799 66.25C59.9199 66.75 60.67 67 61.5 67C62.33 67 63.0801 66.75 63.6201 66.25C64.1601 65.75 64.5 65 64.5 64C64.5 64 64.5 63.75 64.2 63.75Z" fill="#F99739"/>
<path d="M94.96 64L97.136 52.8H98.752L101.48 59.976L104.208 52.8H105.824L108 64H106.008L104.664 57.072L102.144 63.744H100.808L98.288 57.072L96.952 64H94.96ZM114.495 56H116.567L112.191 68H110.119L111.567 64L108.687 56H110.823L112.543 61.328L114.495 56ZM122.007 64V52.8H126.087C126.679 52.8 127.212 52.9227 127.687 53.168C128.167 53.408 128.546 53.7547 128.823 54.208C129.106 54.656 129.247 55.1867 129.247 55.8C129.247 56.072 129.207 56.3467 129.127 56.624C129.047 56.9013 128.924 57.152 128.759 57.376C128.594 57.5947 128.38 57.7573 128.119 57.864C128.466 57.9493 128.748 58.104 128.967 58.328C129.186 58.552 129.356 58.816 129.479 59.12C129.602 59.4187 129.684 59.7253 129.727 60.04C129.775 60.3493 129.799 60.6373 129.799 60.904C129.799 61.496 129.652 62.024 129.359 62.488C129.066 62.952 128.671 63.32 128.175 63.592C127.684 63.864 127.14 64 126.543 64H122.007ZM123.959 62.328H126.343C126.663 62.328 126.951 62.2507 127.207 62.096C127.463 61.9413 127.668 61.728 127.823 61.456C127.978 61.184 128.055 60.8747 128.055 60.528C128.055 60.2293 127.978 59.9467 127.823 59.68C127.668 59.4133 127.463 59.1973 127.207 59.032C126.951 58.8667 126.663 58.784 126.343 58.784H123.959V62.328ZM123.959 57.136H125.863C126.258 57.136 126.594 57.0133 126.871 56.768C127.154 56.5227 127.295 56.1973 127.295 55.792C127.295 55.36 127.154 55.0347 126.871 54.816C126.594 54.592 126.258 54.48 125.863 54.48H123.959V57.136ZM130.765 61.04V56H132.717V60.528C132.717 60.8427 132.794 61.1307 132.949 61.392C133.104 61.648 133.309 61.8533 133.565 62.008C133.826 62.1573 134.112 62.232 134.421 62.232C134.741 62.232 135.029 62.1573 135.285 62.008C135.541 61.8533 135.746 61.648 135.901 61.392C136.056 61.1307 136.133 60.8427 136.133 60.528V56H138.085L138.093 64H136.141L136.133 63.272C135.856 63.56 135.528 63.7893 135.149 63.96C134.77 64.1253 134.365 64.208 133.933 64.208C133.352 64.208 132.821 64.0667 132.341 63.784C131.861 63.496 131.477 63.1147 131.189 62.64C130.906 62.16 130.765 61.6267 130.765 61.04ZM142.054 64.144C141.638 64.1173 141.236 64.0347 140.846 63.896C140.462 63.752 140.121 63.5573 139.822 63.312C139.524 63.0667 139.294 62.7733 139.134 62.432L140.782 61.728C140.846 61.8347 140.95 61.9493 141.094 62.072C141.238 62.1893 141.409 62.288 141.606 62.368C141.809 62.448 142.03 62.488 142.27 62.488C142.473 62.488 142.665 62.4613 142.846 62.408C143.033 62.3493 143.182 62.2613 143.294 62.144C143.412 62.0267 143.47 61.8747 143.47 61.688C143.47 61.4907 143.401 61.3387 143.262 61.232C143.129 61.12 142.958 61.0373 142.75 60.984C142.548 60.9253 142.35 60.872 142.158 60.824C141.652 60.7227 141.18 60.5653 140.742 60.352C140.31 60.1387 139.961 59.864 139.694 59.528C139.433 59.1867 139.302 58.776 139.302 58.296C139.302 57.768 139.441 57.312 139.718 56.928C140.001 56.544 140.366 56.248 140.814 56.04C141.268 55.832 141.756 55.728 142.278 55.728C142.913 55.728 143.494 55.8613 144.022 56.128C144.556 56.3893 144.977 56.76 145.286 57.24L143.742 58.152C143.668 58.024 143.564 57.9067 143.43 57.8C143.297 57.688 143.145 57.5973 142.974 57.528C142.804 57.4533 142.625 57.4107 142.438 57.4C142.198 57.3893 141.98 57.4107 141.782 57.464C141.585 57.5173 141.425 57.608 141.302 57.736C141.185 57.864 141.126 58.0347 141.126 58.248C141.126 58.4507 141.206 58.6027 141.366 58.704C141.526 58.8 141.718 58.8747 141.942 58.928C142.172 58.9813 142.39 59.04 142.598 59.104C143.068 59.2587 143.508 59.448 143.918 59.672C144.334 59.896 144.668 60.1707 144.918 60.496C145.169 60.8213 145.289 61.2107 145.278 61.664C145.278 62.1813 145.124 62.6347 144.814 63.024C144.505 63.408 144.105 63.7013 143.614 63.904C143.129 64.1067 142.609 64.1867 142.054 64.144ZM146.46 56H148.412V64H146.46V56ZM147.452 54.968C147.164 54.968 146.921 54.8747 146.724 54.688C146.527 54.496 146.428 54.256 146.428 53.968C146.428 53.6853 146.527 53.448 146.724 53.256C146.921 53.064 147.161 52.968 147.444 52.968C147.727 52.968 147.964 53.064 148.156 53.256C148.353 53.448 148.452 53.6853 148.452 53.968C148.452 54.256 148.356 54.496 148.164 54.688C147.972 54.8747 147.735 54.968 147.452 54.968ZM157.601 58.944V64H155.649V59.456C155.649 59.1413 155.571 58.856 155.417 58.6C155.262 58.3387 155.054 58.1333 154.793 57.984C154.537 57.8293 154.251 57.752 153.937 57.752C153.622 57.752 153.334 57.8293 153.073 57.984C152.817 58.1333 152.611 58.3387 152.457 58.6C152.307 58.856 152.233 59.1413 152.233 59.456V64H150.281L150.273 56H152.225L152.233 56.712C152.505 56.424 152.83 56.1973 153.209 56.032C153.587 55.8613 153.995 55.776 154.433 55.776C155.014 55.776 155.545 55.92 156.025 56.208C156.505 56.4907 156.886 56.872 157.169 57.352C157.457 57.8267 157.601 58.3573 157.601 58.944ZM162.558 64.208C161.822 64.208 161.15 64.0187 160.542 63.64C159.939 63.2613 159.457 62.752 159.094 62.112C158.737 61.472 158.558 60.7653 158.558 59.992C158.558 59.4107 158.662 58.8667 158.87 58.36C159.078 57.848 159.363 57.4 159.726 57.016C160.094 56.6267 160.521 56.3227 161.006 56.104C161.491 55.8853 162.009 55.776 162.558 55.776C163.182 55.776 163.753 55.9093 164.27 56.176C164.793 56.4373 165.235 56.7973 165.598 57.256C165.961 57.7147 166.225 58.2373 166.39 58.824C166.555 59.4107 166.593 60.024 166.502 60.664H160.654C160.729 60.9627 160.851 61.232 161.022 61.472C161.193 61.7067 161.409 61.896 161.67 62.04C161.931 62.1787 162.227 62.2507 162.558 62.256C162.899 62.2613 163.209 62.1813 163.486 62.016C163.769 61.8453 164.003 61.616 164.19 61.328L166.182 61.792C165.857 62.5013 165.371 63.0827 164.726 63.536C164.081 63.984 163.358 64.208 162.558 64.208ZM160.59 59.2H164.526C164.467 58.88 164.342 58.592 164.15 58.336C163.963 58.0747 163.731 57.8667 163.454 57.712C163.177 57.5573 162.878 57.48 162.558 57.48C162.238 57.48 161.942 57.5573 161.67 57.712C161.398 57.8613 161.166 58.0667 160.974 58.328C160.787 58.584 160.659 58.8747 160.59 59.2ZM170.226 64.144C169.81 64.1173 169.408 64.0347 169.018 63.896C168.634 63.752 168.293 63.5573 167.994 63.312C167.696 63.0667 167.466 62.7733 167.306 62.432L168.954 61.728C169.018 61.8347 169.122 61.9493 169.266 62.072C169.41 62.1893 169.581 62.288 169.778 62.368C169.981 62.448 170.202 62.488 170.442 62.488C170.645 62.488 170.837 62.4613 171.018 62.408C171.205 62.3493 171.354 62.2613 171.466 62.144C171.584 62.0267 171.642 61.8747 171.642 61.688C171.642 61.4907 171.573 61.3387 171.434 61.232C171.301 61.12 171.13 61.0373 170.922 60.984C170.72 60.9253 170.522 60.872 170.33 60.824C169.824 60.7227 169.352 60.5653 168.914 60.352C168.482 60.1387 168.133 59.864 167.866 59.528C167.605 59.1867 167.474 58.776 167.474 58.296C167.474 57.768 167.613 57.312 167.89 56.928C168.173 56.544 168.538 56.248 168.986 56.04C169.44 55.832 169.928 55.728 170.45 55.728C171.085 55.728 171.666 55.8613 172.194 56.128C172.728 56.3893 173.149 56.76 173.458 57.24L171.914 58.152C171.84 58.024 171.736 57.9067 171.602 57.8C171.469 57.688 171.317 57.5973 171.146 57.528C170.976 57.4533 170.797 57.4107 170.61 57.4C170.37 57.3893 170.152 57.4107 169.954 57.464C169.757 57.5173 169.597 57.608 169.474 57.736C169.357 57.864 169.298 58.0347 169.298 58.248C169.298 58.4507 169.378 58.6027 169.538 58.704C169.698 58.8 169.89 58.8747 170.114 58.928C170.344 58.9813 170.562 59.04 170.77 59.104C171.24 59.2587 171.68 59.448 172.09 59.672C172.506 59.896 172.84 60.1707 173.09 60.496C173.341 60.8213 173.461 61.2107 173.45 61.664C173.45 62.1813 173.296 62.6347 172.986 63.024C172.677 63.408 172.277 63.7013 171.786 63.904C171.301 64.1067 170.781 64.1867 170.226 64.144ZM177.179 64.144C176.763 64.1173 176.361 64.0347 175.971 63.896C175.587 63.752 175.246 63.5573 174.947 63.312C174.649 63.0667 174.419 62.7733 174.259 62.432L175.907 61.728C175.971 61.8347 176.075 61.9493 176.219 62.072C176.363 62.1893 176.534 62.288 176.731 62.368C176.934 62.448 177.155 62.488 177.395 62.488C177.598 62.488 177.79 62.4613 177.971 62.408C178.158 62.3493 178.307 62.2613 178.419 62.144C178.537 62.0267 178.595 61.8747 178.595 61.688C178.595 61.4907 178.526 61.3387 178.387 61.232C178.254 61.12 178.083 61.0373 177.875 60.984C177.673 60.9253 177.475 60.872 177.283 60.824C176.777 60.7227 176.305 60.5653 175.867 60.352C175.435 60.1387 175.086 59.864 174.819 59.528C174.558 59.1867 174.427 58.776 174.427 58.296C174.427 57.768 174.566 57.312 174.843 56.928C175.126 56.544 175.491 56.248 175.939 56.04C176.393 55.832 176.881 55.728 177.403 55.728C178.038 55.728 178.619 55.8613 179.147 56.128C179.681 56.3893 180.102 56.76 180.411 57.24L178.867 58.152C178.793 58.024 178.689 57.9067 178.555 57.8C178.422 57.688 178.27 57.5973 178.099 57.528C177.929 57.4533 177.75 57.4107 177.563 57.4C177.323 57.3893 177.105 57.4107 176.907 57.464C176.71 57.5173 176.55 57.608 176.427 57.736C176.31 57.864 176.251 58.0347 176.251 58.248C176.251 58.4507 176.331 58.6027 176.491 58.704C176.651 58.8 176.843 58.8747 177.067 58.928C177.297 58.9813 177.515 59.04 177.723 59.104C178.193 59.2587 178.633 59.448 179.043 59.672C179.459 59.896 179.793 60.1707 180.043 60.496C180.294 60.8213 180.414 61.2107 180.403 61.664C180.403 62.1813 180.249 62.6347 179.939 63.024C179.63 63.408 179.23 63.7013 178.739 63.904C178.254 64.1067 177.734 64.1867 177.179 64.144ZM185.856 64V52.8H187.808V64H185.856ZM197.304 58.944V64H195.352V59.456C195.352 59.1413 195.274 58.856 195.12 58.6C194.965 58.3387 194.757 58.1333 194.496 57.984C194.24 57.8293 193.954 57.752 193.64 57.752C193.325 57.752 193.037 57.8293 192.776 57.984C192.52 58.1333 192.314 58.3387 192.16 58.6C192.01 58.856 191.936 59.1413 191.936 59.456V64H189.984L189.976 56H191.928L191.936 56.712C192.208 56.424 192.533 56.1973 192.912 56.032C193.29 55.8613 193.698 55.776 194.136 55.776C194.717 55.776 195.248 55.92 195.728 56.208C196.208 56.4907 196.589 56.872 196.872 57.352C197.16 57.8267 197.304 58.3573 197.304 58.944ZM201.258 64.144C200.842 64.1173 200.439 64.0347 200.049 63.896C199.666 63.752 199.324 63.5573 199.026 63.312C198.727 63.0667 198.498 62.7733 198.338 62.432L199.986 61.728C200.05 61.8347 200.154 61.9493 200.298 62.072C200.442 62.1893 200.612 62.288 200.81 62.368C201.012 62.448 201.234 62.488 201.474 62.488C201.676 62.488 201.868 62.4613 202.049 62.408C202.236 62.3493 202.386 62.2613 202.498 62.144C202.615 62.0267 202.674 61.8747 202.674 61.688C202.674 61.4907 202.604 61.3387 202.466 61.232C202.332 61.12 202.162 61.0373 201.954 60.984C201.751 60.9253 201.554 60.872 201.362 60.824C200.855 60.7227 200.383 60.5653 199.946 60.352C199.514 60.1387 199.164 59.864 198.898 59.528C198.636 59.1867 198.506 58.776 198.506 58.296C198.506 57.768 198.644 57.312 198.922 56.928C199.204 56.544 199.57 56.248 200.018 56.04C200.471 55.832 200.959 55.728 201.482 55.728C202.116 55.728 202.698 55.8613 203.226 56.128C203.759 56.3893 204.18 56.76 204.49 57.24L202.946 58.152C202.871 58.024 202.767 57.9067 202.634 57.8C202.5 57.688 202.348 57.5973 202.178 57.528C202.007 57.4533 201.828 57.4107 201.642 57.4C201.402 57.3893 201.183 57.4107 200.986 57.464C200.788 57.5173 200.628 57.608 200.506 57.736C200.388 57.864 200.33 58.0347 200.33 58.248C200.33 58.4507 200.41 58.6027 200.57 58.704C200.73 58.8 200.922 58.8747 201.146 58.928C201.375 58.9813 201.594 59.04 201.802 59.104C202.271 59.2587 202.711 59.448 203.122 59.672C203.538 59.896 203.871 60.1707 204.122 60.496C204.372 60.8213 204.492 61.2107 204.482 61.664C204.482 62.1813 204.327 62.6347 204.018 63.024C203.708 63.408 203.308 63.7013 202.818 63.904C202.332 64.1067 201.812 64.1867 201.258 64.144ZM205.663 56H207.615V64H205.663V56ZM206.655 54.968C206.367 54.968 206.124 54.8747 205.927 54.688C205.73 54.496 205.631 54.256 205.631 53.968C205.631 53.6853 205.73 53.448 205.927 53.256C206.124 53.064 206.364 52.968 206.647 52.968C206.93 52.968 207.167 53.064 207.359 53.256C207.556 53.448 207.655 53.6853 207.655 53.968C207.655 54.256 207.559 54.496 207.367 54.688C207.175 54.8747 206.938 54.968 206.655 54.968ZM215.287 56H217.239V64.152C217.239 64.728 217.121 65.2507 216.887 65.72C216.652 66.1947 216.332 66.6 215.927 66.936C215.521 67.2773 215.057 67.5387 214.535 67.72C214.012 67.9067 213.463 68 212.887 68C212.327 68 211.788 67.8853 211.271 67.656C210.753 67.4267 210.295 67.112 209.895 66.712C209.5 66.3173 209.199 65.8667 208.991 65.36L210.775 64.552C210.881 64.8453 211.041 65.1013 211.255 65.32C211.473 65.544 211.724 65.7173 212.007 65.84C212.289 65.968 212.583 66.032 212.887 66.032C213.196 66.032 213.492 65.9893 213.775 65.904C214.063 65.8187 214.321 65.6933 214.551 65.528C214.78 65.368 214.959 65.1707 215.087 64.936C215.22 64.7067 215.287 64.4453 215.287 64.152V63.024C215.036 63.376 214.721 63.6613 214.343 63.88C213.964 64.0987 213.527 64.208 213.031 64.208C212.455 64.208 211.916 64.0987 211.415 63.88C210.913 63.6613 210.471 63.36 210.087 62.976C209.708 62.5867 209.409 62.1387 209.191 61.632C208.977 61.1253 208.871 60.5813 208.871 60C208.871 59.4187 208.977 58.8747 209.191 58.368C209.409 57.8613 209.708 57.416 210.087 57.032C210.471 56.6427 210.913 56.3387 211.415 56.12C211.916 55.9013 212.455 55.792 213.031 55.792C213.527 55.792 213.964 55.9013 214.343 56.12C214.721 56.3333 215.036 56.616 215.287 56.968V56ZM213.055 62.328C213.465 62.328 213.828 62.224 214.143 62.016C214.463 61.8027 214.713 61.52 214.895 61.168C215.076 60.8107 215.167 60.4213 215.167 60C215.167 59.5733 215.073 59.184 214.887 58.832C214.705 58.48 214.455 58.1973 214.135 57.984C213.82 57.7707 213.46 57.664 213.055 57.664C212.655 57.664 212.289 57.7707 211.959 57.984C211.628 58.192 211.364 58.472 211.167 58.824C210.969 59.176 210.871 59.568 210.871 60C210.871 60.432 210.969 60.824 211.167 61.176C211.364 61.528 211.628 61.808 211.959 62.016C212.289 62.224 212.655 62.328 213.055 62.328ZM226.491 58.944V64H224.539V59.456C224.539 59.1413 224.462 58.856 224.307 58.6C224.152 58.3387 223.944 58.1333 223.683 57.984C223.427 57.8293 223.142 57.752 222.827 57.752C222.512 57.752 222.224 57.8293 221.963 57.984C221.707 58.1333 221.502 58.3387 221.347 58.6C221.198 58.856 221.123 59.1413 221.123 59.456V64H219.171L219.163 52H221.115L221.123 56.712C221.395 56.424 221.72 56.1973 222.099 56.032C222.478 55.8613 222.886 55.776 223.323 55.776C223.904 55.776 224.435 55.92 224.915 56.208C225.395 56.4907 225.776 56.872 226.059 57.352C226.347 57.8267 226.491 58.3573 226.491 58.944ZM232.373 57.952H230.821V64H228.869V57.952H227.685V56H228.869V53.488H230.821V56H232.373V57.952ZM236.054 64.144C235.638 64.1173 235.236 64.0347 234.846 63.896C234.462 63.752 234.121 63.5573 233.822 63.312C233.524 63.0667 233.294 62.7733 233.134 62.432L234.782 61.728C234.846 61.8347 234.95 61.9493 235.094 62.072C235.238 62.1893 235.409 62.288 235.606 62.368C235.809 62.448 236.03 62.488 236.27 62.488C236.473 62.488 236.665 62.4613 236.846 62.408C237.033 62.3493 237.182 62.2613 237.294 62.144C237.412 62.0267 237.47 61.8747 237.47 61.688C237.47 61.4907 237.401 61.3387 237.262 61.232C237.129 61.12 236.958 61.0373 236.75 60.984C236.548 60.9253 236.35 60.872 236.158 60.824C235.652 60.7227 235.18 60.5653 234.742 60.352C234.31 60.1387 233.961 59.864 233.694 59.528C233.433 59.1867 233.302 58.776 233.302 58.296C233.302 57.768 233.441 57.312 233.718 56.928C234.001 56.544 234.366 56.248 234.814 56.04C235.268 55.832 235.756 55.728 236.278 55.728C236.913 55.728 237.494 55.8613 238.022 56.128C238.556 56.3893 238.977 56.76 239.286 57.24L237.742 58.152C237.668 58.024 237.564 57.9067 237.43 57.8C237.297 57.688 237.145 57.5973 236.974 57.528C236.804 57.4533 236.625 57.4107 236.438 57.4C236.198 57.3893 235.98 57.4107 235.782 57.464C235.585 57.5173 235.425 57.608 235.302 57.736C235.185 57.864 235.126 58.0347 235.126 58.248C235.126 58.4507 235.206 58.6027 235.366 58.704C235.526 58.8 235.718 58.8747 235.942 58.928C236.172 58.9813 236.39 59.04 236.598 59.104C237.068 59.2587 237.508 59.448 237.918 59.672C238.334 59.896 238.668 60.1707 238.918 60.496C239.169 60.8213 239.289 61.2107 239.278 61.664C239.278 62.1813 239.124 62.6347 238.814 63.024C238.505 63.408 238.105 63.7013 237.614 63.904C237.129 64.1067 236.609 64.1867 236.054 64.144Z" fill="black"/>
<g filter="url(#filter1_d_430_576)">
<rect x="484" y="36" width="98" height="38" rx="19" fill="white" shape-rendering="crispEdges"/>
<path d="M501.074 50.6V51.608H498.278V59H497.27V51.608H494.48V50.6H501.074ZM507.583 55.268V59H506.575V55.49C506.575 55.186 506.501 54.91 506.353 54.662C506.205 54.414 506.007 54.218 505.759 54.074C505.511 53.926 505.235 53.852 504.931 53.852C504.631 53.852 504.355 53.926 504.103 54.074C503.855 54.218 503.657 54.414 503.509 54.662C503.361 54.91 503.287 55.186 503.287 55.49V59H502.279V50H503.287V53.75C503.499 53.47 503.767 53.248 504.091 53.084C504.415 52.916 504.767 52.832 505.147 52.832C505.595 52.832 506.003 52.942 506.371 53.162C506.743 53.378 507.037 53.67 507.253 54.038C507.473 54.406 507.583 54.816 507.583 55.268ZM508.783 53H509.791V59H508.783V53ZM509.299 52.022C509.139 52.022 509.005 51.97 508.897 51.866C508.789 51.762 508.735 51.632 508.735 51.476C508.735 51.32 508.789 51.19 508.897 51.086C509.005 50.982 509.137 50.93 509.293 50.93C509.449 50.93 509.581 50.982 509.689 51.086C509.797 51.19 509.851 51.32 509.851 51.476C509.851 51.632 509.797 51.762 509.689 51.866C509.585 51.97 509.455 52.022 509.299 52.022ZM513.003 59.114C512.679 59.102 512.363 59.042 512.055 58.934C511.751 58.822 511.483 58.672 511.251 58.484C511.023 58.292 510.857 58.072 510.753 57.824L511.617 57.452C511.677 57.588 511.785 57.716 511.941 57.836C512.097 57.956 512.277 58.052 512.481 58.124C512.685 58.196 512.891 58.232 513.099 58.232C513.319 58.232 513.525 58.198 513.717 58.13C513.909 58.062 514.065 57.962 514.185 57.83C514.309 57.694 514.371 57.532 514.371 57.344C514.371 57.144 514.303 56.988 514.167 56.876C514.035 56.76 513.867 56.67 513.663 56.606C513.463 56.538 513.259 56.474 513.051 56.414C512.639 56.31 512.271 56.186 511.947 56.042C511.623 55.894 511.367 55.708 511.179 55.484C510.995 55.256 510.903 54.966 510.903 54.614C510.903 54.242 511.005 53.92 511.209 53.648C511.417 53.376 511.689 53.166 512.025 53.018C512.361 52.87 512.721 52.796 513.105 52.796C513.589 52.796 514.031 52.9 514.431 53.108C514.831 53.316 515.129 53.598 515.325 53.954L514.515 54.428C514.447 54.284 514.343 54.158 514.203 54.05C514.063 53.938 513.903 53.85 513.723 53.786C513.543 53.722 513.359 53.688 513.171 53.684C512.939 53.676 512.721 53.706 512.517 53.774C512.317 53.842 512.155 53.946 512.031 54.086C511.911 54.222 511.851 54.392 511.851 54.596C511.851 54.796 511.915 54.948 512.043 55.052C512.175 55.156 512.345 55.24 512.553 55.304C512.765 55.364 512.995 55.434 513.243 55.514C513.607 55.63 513.947 55.764 514.263 55.916C514.579 56.068 514.833 56.258 515.025 56.486C515.221 56.714 515.317 56.996 515.313 57.332C515.313 57.7 515.203 58.022 514.983 58.298C514.763 58.57 514.477 58.778 514.125 58.922C513.777 59.066 513.403 59.13 513.003 59.114ZM520.988 59L518.84 50.6H519.878L521.57 57.23L523.256 50.6H524.162L525.854 57.23L527.54 50.6H528.578L526.442 59H525.266L523.712 52.916L522.158 59H520.988ZM531.579 59.156C531.027 59.156 530.523 59.014 530.067 58.73C529.615 58.446 529.253 58.066 528.981 57.59C528.713 57.11 528.579 56.58 528.579 56C528.579 55.56 528.657 55.15 528.813 54.77C528.969 54.386 529.183 54.05 529.455 53.762C529.731 53.47 530.051 53.242 530.415 53.078C530.779 52.914 531.167 52.832 531.579 52.832C532.031 52.832 532.445 52.924 532.821 53.108C533.201 53.288 533.525 53.54 533.793 53.864C534.065 54.188 534.267 54.564 534.399 54.992C534.535 55.42 534.585 55.878 534.549 56.366H529.653C529.701 56.706 529.813 57.01 529.989 57.278C530.165 57.542 530.389 57.752 530.661 57.908C530.937 58.064 531.243 58.144 531.579 58.148C531.939 58.148 532.265 58.056 532.557 57.872C532.849 57.684 533.085 57.428 533.265 57.104L534.291 57.344C534.051 57.876 533.689 58.312 533.205 58.652C532.721 58.988 532.179 59.156 531.579 59.156ZM529.623 55.574H533.535C533.503 55.238 533.395 54.932 533.211 54.656C533.027 54.376 532.793 54.152 532.509 53.984C532.225 53.816 531.915 53.732 531.579 53.732C531.243 53.732 530.935 53.814 530.655 53.978C530.375 54.142 530.143 54.364 529.959 54.644C529.779 54.92 529.667 55.23 529.623 55.574ZM538.165 59.156C537.613 59.156 537.109 59.014 536.653 58.73C536.201 58.446 535.839 58.066 535.567 57.59C535.299 57.11 535.165 56.58 535.165 56C535.165 55.56 535.243 55.15 535.399 54.77C535.555 54.386 535.769 54.05 536.041 53.762C536.317 53.47 536.637 53.242 537.001 53.078C537.365 52.914 537.753 52.832 538.165 52.832C538.617 52.832 539.031 52.924 539.407 53.108C539.787 53.288 540.111 53.54 540.379 53.864C540.651 54.188 540.853 54.564 540.985 54.992C541.121 55.42 541.171 55.878 541.135 56.366H536.239C536.287 56.706 536.399 57.01 536.575 57.278C536.751 57.542 536.975 57.752 537.247 57.908C537.523 58.064 537.829 58.144 538.165 58.148C538.525 58.148 538.851 58.056 539.143 57.872C539.435 57.684 539.671 57.428 539.851 57.104L540.877 57.344C540.637 57.876 540.275 58.312 539.791 58.652C539.307 58.988 538.765 59.156 538.165 59.156ZM536.209 55.574H540.121C540.089 55.238 539.981 54.932 539.797 54.656C539.613 54.376 539.379 54.152 539.095 53.984C538.811 53.816 538.501 53.732 538.165 53.732C537.829 53.732 537.521 53.814 537.241 53.978C536.961 54.142 536.729 54.364 536.545 54.644C536.365 54.92 536.253 55.23 536.209 55.574ZM546.953 59H545.795L544.199 56.246L543.095 57.566V59H542.087V50H543.095V56L545.609 53H546.923L544.883 55.43L546.953 59Z" fill="black"/>
<path d="M564 56.8333C563.872 56.8333 563.744 56.7847 563.647 56.6867L560.98 54.02C560.785 53.8247 560.785 53.508 560.98 53.3126C561.175 53.1173 561.492 53.1173 561.687 53.3126L564.001 55.626L566.314 53.3126C566.509 53.1173 566.826 53.1173 567.021 53.3126C567.217 53.508 567.217 53.8247 567.021 54.02L564.355 56.6867C564.256 56.7847 564.128 56.8333 564 56.8333Z" fill="black"/>
</g>
<rect x="40" y="100" width="542" height="88" rx="15" fill="#F8F8F8"/>
<rect x="60" y="124" width="6" height="40" fill="#00C67E"/>
<g filter="url(#filter2_d_430_576)">
<path d="M93.424 158.6V149.096H83.92V144.104H93.424V134.6H98.416V144.104H107.92V149.096H98.416V158.6H93.424ZM126.14 161V152.408H111.764V147.392L124.94 127.4H131.132V147.416H134.204V152.408H131.132V161H126.14ZM117.572 147.392L126.14 147.416L126.092 134.288L117.572 147.392ZM139.982 161L156.47 132.392H138.038V127.4H162.254V132.392L145.718 161H139.982ZM167.77 161.624C167.034 161.624 166.41 161.368 165.898 160.856C165.402 160.344 165.154 159.72 165.154 158.984C165.154 158.264 165.402 157.648 165.898 157.136C166.41 156.624 167.034 156.368 167.77 156.368C168.506 156.368 169.13 156.624 169.642 157.136C170.154 157.648 170.41 158.264 170.41 158.984C170.41 159.72 170.154 160.344 169.642 160.856C169.13 161.368 168.506 161.624 167.77 161.624ZM185.409 161.624C183.377 161.624 181.553 161.152 179.937 160.208C178.337 159.264 177.073 158 176.145 156.416C175.217 154.832 174.753 153.072 174.753 151.136H179.745C179.745 152.144 179.985 153.064 180.465 153.896C180.945 154.728 181.609 155.392 182.457 155.888C183.305 156.384 184.289 156.632 185.409 156.632C186.417 156.632 187.353 156.384 188.217 155.888C189.081 155.392 189.777 154.728 190.305 153.896C190.833 153.064 191.097 152.144 191.097 151.136C191.097 149.856 190.761 148.784 190.089 147.92C189.417 147.056 188.481 146.416 187.281 146C186.097 145.568 184.729 145.352 183.177 145.352V141.416C185.289 141.416 186.977 141 188.241 140.168C189.505 139.336 190.137 138.096 190.137 136.448C190.137 135.584 189.905 134.8 189.441 134.096C188.993 133.376 188.393 132.808 187.641 132.392C186.905 131.96 186.113 131.744 185.265 131.744C184.385 131.744 183.537 131.96 182.721 132.392C181.921 132.808 181.265 133.376 180.753 134.096C180.241 134.8 179.985 135.584 179.985 136.448H174.993C174.993 135.12 175.265 133.872 175.809 132.704C176.369 131.52 177.121 130.488 178.065 129.608C179.025 128.712 180.113 128.016 181.329 127.52C182.561 127.008 183.849 126.752 185.193 126.752C186.953 126.752 188.585 127.192 190.089 128.072C191.609 128.936 192.825 130.104 193.737 131.576C194.665 133.032 195.129 134.656 195.129 136.448C195.129 137.872 194.777 139.224 194.073 140.504C193.385 141.768 192.425 142.664 191.193 143.192C192.265 143.576 193.161 144.184 193.881 145.016C194.617 145.832 195.169 146.776 195.537 147.848C195.905 148.904 196.089 150 196.089 151.136C196.089 153.056 195.601 154.816 194.625 156.416C193.649 158 192.345 159.264 190.713 160.208C189.097 161.152 187.329 161.624 185.409 161.624ZM202.107 161L221.499 127.4H227.259L207.867 161H202.107ZM206.163 141.488C204.947 141.488 203.827 141.192 202.803 140.6C201.795 139.992 200.987 139.184 200.379 138.176C199.771 137.152 199.467 136.024 199.467 134.792C199.467 133.512 199.771 132.368 200.379 131.36C201.003 130.352 201.819 129.56 202.827 128.984C203.851 128.392 204.963 128.096 206.163 128.096C207.395 128.096 208.515 128.4 209.523 129.008C210.531 129.6 211.339 130.4 211.947 131.408C212.555 132.416 212.859 133.544 212.859 134.792C212.859 136.056 212.547 137.192 211.923 138.2C211.315 139.208 210.499 140.008 209.475 140.6C208.467 141.192 207.363 141.488 206.163 141.488ZM206.163 137.96C207.059 137.96 207.811 137.656 208.419 137.048C209.027 136.424 209.331 135.672 209.331 134.792C209.331 133.896 209.027 133.144 208.419 132.536C207.811 131.912 207.059 131.6 206.163 131.6C205.283 131.6 204.531 131.912 203.907 132.536C203.299 133.144 202.995 133.896 202.995 134.792C202.995 135.672 203.299 136.424 203.907 137.048C204.531 137.656 205.283 137.96 206.163 137.96ZM223.251 160.352C222.003 160.352 220.867 160.04 219.843 159.416C218.835 158.776 218.027 157.952 217.419 156.944C216.827 155.92 216.531 154.816 216.531 153.632C216.531 152.384 216.843 151.256 217.467 150.248C218.091 149.224 218.907 148.416 219.915 147.824C220.939 147.216 222.051 146.912 223.251 146.912C224.515 146.912 225.651 147.224 226.659 147.848C227.667 148.472 228.467 149.296 229.059 150.32C229.651 151.344 229.947 152.448 229.947 153.632C229.947 154.864 229.643 155.992 229.035 157.016C228.443 158.024 227.635 158.832 226.611 159.44C225.603 160.048 224.483 160.352 223.251 160.352ZM223.251 156.824C224.115 156.824 224.859 156.512 225.483 155.888C226.107 155.264 226.419 154.512 226.419 153.632C226.419 152.752 226.107 152 225.483 151.376C224.859 150.752 224.115 150.44 223.251 150.44C222.371 150.44 221.611 150.752 220.971 151.376C220.347 152 220.035 152.752 220.035 153.632C220.035 154.512 220.347 155.264 220.971 155.888C221.611 156.512 222.371 156.824 223.251 156.824Z" fill="#25262A"/>
</g>
<path d="M242.72 133H243.968V139H242.72V133ZM243.356 132.13C243.164 132.13 243.004 132.068 242.876 131.944C242.748 131.82 242.684 131.664 242.684 131.476C242.684 131.292 242.748 131.138 242.876 131.014C243.004 130.886 243.162 130.822 243.35 130.822C243.534 130.822 243.69 130.886 243.818 131.014C243.946 131.138 244.01 131.292 244.01 131.476C244.01 131.664 243.946 131.82 243.818 131.944C243.694 132.068 243.54 132.13 243.356 132.13ZM250.757 135.238V139H249.509V135.544C249.509 135.276 249.443 135.032 249.311 134.812C249.183 134.592 249.009 134.418 248.789 134.29C248.573 134.158 248.329 134.092 248.057 134.092C247.793 134.092 247.551 134.158 247.331 134.29C247.111 134.418 246.935 134.592 246.803 134.812C246.671 135.032 246.605 135.276 246.605 135.544V139H245.357V133H246.605V133.636C246.813 133.388 247.069 133.192 247.373 133.048C247.677 132.904 248.005 132.832 248.357 132.832C248.801 132.832 249.205 132.94 249.569 133.156C249.933 133.372 250.221 133.662 250.433 134.026C250.649 134.39 250.757 134.794 250.757 135.238ZM255.755 137.296L256.871 137.902C256.599 138.282 256.253 138.586 255.833 138.814C255.417 139.042 254.965 139.156 254.477 139.156C253.925 139.156 253.421 139.014 252.965 138.73C252.513 138.446 252.151 138.066 251.879 137.59C251.611 137.11 251.477 136.58 251.477 136C251.477 135.56 251.555 135.15 251.711 134.77C251.867 134.386 252.081 134.05 252.353 133.762C252.629 133.47 252.949 133.242 253.313 133.078C253.677 132.914 254.065 132.832 254.477 132.832C254.965 132.832 255.417 132.946 255.833 133.174C256.253 133.402 256.599 133.708 256.871 134.092L255.755 134.698C255.587 134.498 255.391 134.346 255.167 134.242C254.943 134.134 254.713 134.08 254.477 134.08C254.149 134.08 253.851 134.17 253.583 134.35C253.319 134.526 253.109 134.76 252.953 135.052C252.801 135.34 252.725 135.656 252.725 136C252.725 136.34 252.803 136.656 252.959 136.948C253.115 137.236 253.325 137.468 253.589 137.644C253.857 137.82 254.153 137.908 254.477 137.908C254.725 137.908 254.961 137.852 255.185 137.74C255.409 137.628 255.599 137.48 255.755 137.296ZM257.954 139V133H259.202V133.636C259.41 133.388 259.666 133.192 259.97 133.048C260.274 132.904 260.602 132.832 260.954 132.832C261.178 132.832 261.4 132.862 261.62 132.922L261.122 134.182C260.966 134.122 260.81 134.092 260.654 134.092C260.39 134.092 260.148 134.158 259.928 134.29C259.708 134.418 259.532 134.592 259.4 134.812C259.268 135.032 259.202 135.276 259.202 135.544V139H257.954ZM264.673 139.156C264.121 139.156 263.617 139.014 263.161 138.73C262.709 138.446 262.347 138.066 262.075 137.59C261.807 137.11 261.673 136.58 261.673 136C261.673 135.56 261.751 135.15 261.907 134.77C262.063 134.386 262.277 134.05 262.549 133.762C262.825 133.47 263.145 133.242 263.509 133.078C263.873 132.914 264.261 132.832 264.673 132.832C265.133 132.832 265.555 132.928 265.939 133.12C266.323 133.308 266.651 133.57 266.923 133.906C267.195 134.238 267.395 134.622 267.523 135.058C267.651 135.49 267.689 135.95 267.637 136.438H263.011C263.063 136.714 263.163 136.964 263.311 137.188C263.463 137.408 263.655 137.582 263.887 137.71C264.123 137.838 264.385 137.904 264.673 137.908C264.977 137.908 265.253 137.832 265.501 137.68C265.753 137.528 265.959 137.318 266.119 137.05L267.385 137.344C267.145 137.876 266.783 138.312 266.299 138.652C265.815 138.988 265.273 139.156 264.673 139.156ZM262.969 135.484H266.377C266.337 135.196 266.235 134.936 266.071 134.704C265.911 134.468 265.709 134.282 265.465 134.146C265.225 134.006 264.961 133.936 264.673 133.936C264.389 133.936 264.125 134.004 263.881 134.14C263.641 134.276 263.441 134.462 263.281 134.698C263.125 134.93 263.021 135.192 262.969 135.484ZM273.286 133H274.534V139H273.28L273.232 138.13C273.056 138.438 272.818 138.686 272.518 138.874C272.218 139.062 271.864 139.156 271.456 139.156C271.016 139.156 270.602 139.074 270.214 138.91C269.826 138.742 269.484 138.51 269.188 138.214C268.896 137.918 268.668 137.578 268.504 137.194C268.34 136.806 268.258 136.39 268.258 135.946C268.258 135.518 268.338 135.116 268.498 134.74C268.658 134.36 268.88 134.028 269.164 133.744C269.448 133.46 269.776 133.238 270.148 133.078C270.524 132.914 270.926 132.832 271.354 132.832C271.79 132.832 272.174 132.932 272.506 133.132C272.842 133.328 273.12 133.58 273.34 133.888L273.286 133ZM271.426 137.95C271.778 137.95 272.086 137.864 272.35 137.692C272.614 137.516 272.818 137.28 272.962 136.984C273.11 136.688 273.184 136.36 273.184 136C273.184 135.636 273.11 135.306 272.962 135.01C272.814 134.714 272.608 134.48 272.344 134.308C272.084 134.132 271.778 134.044 271.426 134.044C271.078 134.044 270.76 134.132 270.472 134.308C270.184 134.484 269.956 134.72 269.788 135.016C269.62 135.312 269.536 135.64 269.536 136C269.536 136.364 269.622 136.694 269.794 136.99C269.97 137.282 270.2 137.516 270.484 137.692C270.772 137.864 271.086 137.95 271.426 137.95ZM277.532 139.114C277.216 139.094 276.908 139.03 276.608 138.922C276.308 138.814 276.044 138.668 275.816 138.484C275.592 138.296 275.424 138.076 275.312 137.824L276.374 137.368C276.426 137.476 276.516 137.582 276.644 137.686C276.776 137.79 276.93 137.876 277.106 137.944C277.282 138.008 277.466 138.04 277.658 138.04C277.846 138.04 278.02 138.014 278.18 137.962C278.344 137.906 278.478 137.822 278.582 137.71C278.686 137.598 278.738 137.464 278.738 137.308C278.738 137.132 278.678 136.996 278.558 136.9C278.442 136.8 278.296 136.724 278.12 136.672C277.944 136.62 277.768 136.57 277.592 136.522C277.2 136.434 276.84 136.314 276.512 136.162C276.188 136.006 275.93 135.808 275.738 135.568C275.546 135.324 275.45 135.026 275.45 134.674C275.45 134.29 275.554 133.958 275.762 133.678C275.97 133.394 276.242 133.176 276.578 133.024C276.918 132.872 277.28 132.796 277.664 132.796C278.144 132.796 278.584 132.898 278.984 133.102C279.384 133.306 279.69 133.586 279.902 133.942L278.912 134.53C278.852 134.41 278.762 134.302 278.642 134.206C278.522 134.11 278.386 134.034 278.234 133.978C278.082 133.918 277.924 133.884 277.76 133.876C277.556 133.868 277.366 133.892 277.19 133.948C277.018 134 276.88 134.084 276.776 134.2C276.672 134.316 276.62 134.464 276.62 134.644C276.62 134.82 276.682 134.952 276.806 135.04C276.93 135.124 277.086 135.192 277.274 135.244C277.466 135.296 277.662 135.354 277.862 135.418C278.218 135.53 278.552 135.668 278.864 135.832C279.176 135.992 279.428 136.19 279.62 136.426C279.812 136.662 279.904 136.95 279.896 137.29C279.896 137.666 279.782 137.996 279.554 138.28C279.33 138.564 279.038 138.78 278.678 138.928C278.318 139.076 277.936 139.138 277.532 139.114ZM283.481 139.156C282.929 139.156 282.425 139.014 281.969 138.73C281.517 138.446 281.155 138.066 280.883 137.59C280.615 137.11 280.481 136.58 280.481 136C280.481 135.56 280.559 135.15 280.715 134.77C280.871 134.386 281.085 134.05 281.357 133.762C281.633 133.47 281.953 133.242 282.317 133.078C282.681 132.914 283.069 132.832 283.481 132.832C283.941 132.832 284.363 132.928 284.747 133.12C285.131 133.308 285.459 133.57 285.731 133.906C286.003 134.238 286.203 134.622 286.331 135.058C286.459 135.49 286.497 135.95 286.445 136.438H281.819C281.871 136.714 281.971 136.964 282.119 137.188C282.271 137.408 282.463 137.582 282.695 137.71C282.931 137.838 283.193 137.904 283.481 137.908C283.785 137.908 284.061 137.832 284.309 137.68C284.561 137.528 284.767 137.318 284.927 137.05L286.193 137.344C285.953 137.876 285.591 138.312 285.107 138.652C284.623 138.988 284.081 139.156 283.481 139.156ZM281.777 135.484H285.185C285.145 135.196 285.043 134.936 284.879 134.704C284.719 134.468 284.517 134.282 284.273 134.146C284.033 134.006 283.769 133.936 283.481 133.936C283.197 133.936 282.933 134.004 282.689 134.14C282.449 134.276 282.249 134.462 282.089 134.698C281.933 134.93 281.829 135.192 281.777 135.484ZM290.427 133H291.675V139H290.427V133ZM291.063 132.13C290.871 132.13 290.711 132.068 290.583 131.944C290.455 131.82 290.391 131.664 290.391 131.476C290.391 131.292 290.455 131.138 290.583 131.014C290.711 130.886 290.869 130.822 291.057 130.822C291.241 130.822 291.397 130.886 291.525 131.014C291.653 131.138 291.717 131.292 291.717 131.476C291.717 131.664 291.653 131.82 291.525 131.944C291.401 132.068 291.247 132.13 291.063 132.13ZM298.464 135.238V139H297.216V135.544C297.216 135.276 297.15 135.032 297.018 134.812C296.89 134.592 296.716 134.418 296.496 134.29C296.28 134.158 296.036 134.092 295.764 134.092C295.5 134.092 295.258 134.158 295.038 134.29C294.818 134.418 294.642 134.592 294.51 134.812C294.378 135.032 294.312 135.276 294.312 135.544V139H293.064V133H294.312V133.636C294.52 133.388 294.776 133.192 295.08 133.048C295.384 132.904 295.712 132.832 296.064 132.832C296.508 132.832 296.912 132.94 297.276 133.156C297.64 133.372 297.928 133.662 298.14 134.026C298.356 134.39 298.464 134.794 298.464 135.238ZM302.544 139V133H303.792V133.636C304 133.388 304.256 133.192 304.56 133.048C304.864 132.904 305.192 132.832 305.544 132.832C305.768 132.832 305.99 132.862 306.21 132.922L305.712 134.182C305.556 134.122 305.4 134.092 305.244 134.092C304.98 134.092 304.738 134.158 304.518 134.29C304.298 134.418 304.122 134.592 303.99 134.812C303.858 135.032 303.792 135.276 303.792 135.544V139H302.544ZM309.262 139.156C308.71 139.156 308.206 139.014 307.75 138.73C307.298 138.446 306.936 138.066 306.664 137.59C306.396 137.11 306.262 136.58 306.262 136C306.262 135.56 306.34 135.15 306.496 134.77C306.652 134.386 306.866 134.05 307.138 133.762C307.414 133.47 307.734 133.242 308.098 133.078C308.462 132.914 308.85 132.832 309.262 132.832C309.722 132.832 310.144 132.928 310.528 133.12C310.912 133.308 311.24 133.57 311.512 133.906C311.784 134.238 311.984 134.622 312.112 135.058C312.24 135.49 312.278 135.95 312.226 136.438H307.6C307.652 136.714 307.752 136.964 307.9 137.188C308.052 137.408 308.244 137.582 308.476 137.71C308.712 137.838 308.974 137.904 309.262 137.908C309.566 137.908 309.842 137.832 310.09 137.68C310.342 137.528 310.548 137.318 310.708 137.05L311.974 137.344C311.734 137.876 311.372 138.312 310.888 138.652C310.404 138.988 309.862 139.156 309.262 139.156ZM307.558 135.484H310.966C310.926 135.196 310.824 134.936 310.66 134.704C310.5 134.468 310.298 134.282 310.054 134.146C309.814 134.006 309.55 133.936 309.262 133.936C308.978 133.936 308.714 134.004 308.47 134.14C308.23 134.276 308.03 134.462 307.87 134.698C307.714 134.93 307.61 135.192 307.558 135.484ZM316.371 139H314.769L312.579 132.988H313.911L315.567 137.56L317.229 132.988H318.555L316.371 139ZM321.883 139.156C321.331 139.156 320.827 139.014 320.371 138.73C319.919 138.446 319.557 138.066 319.285 137.59C319.017 137.11 318.883 136.58 318.883 136C318.883 135.56 318.961 135.15 319.117 134.77C319.273 134.386 319.487 134.05 319.759 133.762C320.035 133.47 320.355 133.242 320.719 133.078C321.083 132.914 321.471 132.832 321.883 132.832C322.343 132.832 322.765 132.928 323.149 133.12C323.533 133.308 323.861 133.57 324.133 133.906C324.405 134.238 324.605 134.622 324.733 135.058C324.861 135.49 324.899 135.95 324.847 136.438H320.221C320.273 136.714 320.373 136.964 320.521 137.188C320.673 137.408 320.865 137.582 321.097 137.71C321.333 137.838 321.595 137.904 321.883 137.908C322.187 137.908 322.463 137.832 322.711 137.68C322.963 137.528 323.169 137.318 323.329 137.05L324.595 137.344C324.355 137.876 323.993 138.312 323.509 138.652C323.025 138.988 322.483 139.156 321.883 139.156ZM320.179 135.484H323.587C323.547 135.196 323.445 134.936 323.281 134.704C323.121 134.468 322.919 134.282 322.675 134.146C322.435 134.006 322.171 133.936 321.883 133.936C321.599 133.936 321.335 134.004 321.091 134.14C320.851 134.276 320.651 134.462 320.491 134.698C320.335 134.93 320.231 135.192 320.179 135.484ZM331.241 135.238V139H329.993V135.544C329.993 135.276 329.927 135.032 329.795 134.812C329.667 134.592 329.493 134.418 329.273 134.29C329.057 134.158 328.813 134.092 328.541 134.092C328.277 134.092 328.035 134.158 327.815 134.29C327.595 134.418 327.419 134.592 327.287 134.812C327.155 135.032 327.089 135.276 327.089 135.544V139H325.841V133H327.089V133.636C327.297 133.388 327.553 133.192 327.857 133.048C328.161 132.904 328.489 132.832 328.841 132.832C329.285 132.832 329.689 132.94 330.053 133.156C330.417 133.372 330.705 133.662 330.917 134.026C331.133 134.39 331.241 134.794 331.241 135.238ZM332.199 136.75V133H333.447V136.444C333.447 136.712 333.513 136.956 333.645 137.176C333.777 137.396 333.953 137.572 334.173 137.704C334.393 137.832 334.635 137.896 334.899 137.896C335.167 137.896 335.409 137.832 335.625 137.704C335.845 137.572 336.019 137.396 336.147 137.176C336.279 136.956 336.345 136.712 336.345 136.444V133H337.593L337.599 139H336.351L336.345 138.352C336.141 138.6 335.887 138.796 335.583 138.94C335.279 139.084 334.953 139.156 334.605 139.156C334.161 139.156 333.757 139.048 333.393 138.832C333.029 138.616 332.739 138.326 332.523 137.962C332.307 137.598 332.199 137.194 332.199 136.75ZM341.36 139.156C340.808 139.156 340.304 139.014 339.848 138.73C339.396 138.446 339.034 138.066 338.762 137.59C338.494 137.11 338.36 136.58 338.36 136C338.36 135.56 338.438 135.15 338.594 134.77C338.75 134.386 338.964 134.05 339.236 133.762C339.512 133.47 339.832 133.242 340.196 133.078C340.56 132.914 340.948 132.832 341.36 132.832C341.82 132.832 342.242 132.928 342.626 133.12C343.01 133.308 343.338 133.57 343.61 133.906C343.882 134.238 344.082 134.622 344.21 135.058C344.338 135.49 344.376 135.95 344.324 136.438H339.698C339.75 136.714 339.85 136.964 339.998 137.188C340.15 137.408 340.342 137.582 340.574 137.71C340.81 137.838 341.072 137.904 341.36 137.908C341.664 137.908 341.94 137.832 342.188 137.68C342.44 137.528 342.646 137.318 342.806 137.05L344.072 137.344C343.832 137.876 343.47 138.312 342.986 138.652C342.502 138.988 341.96 139.156 341.36 139.156ZM339.656 135.484H343.064C343.024 135.196 342.922 134.936 342.758 134.704C342.598 134.468 342.396 134.282 342.152 134.146C341.912 134.006 341.648 133.936 341.36 133.936C341.076 133.936 340.812 134.004 340.568 134.14C340.328 134.276 340.128 134.462 339.968 134.698C339.812 134.93 339.708 135.192 339.656 135.484ZM351.426 132.832C352.01 132.832 352.54 132.974 353.016 133.258C353.496 133.542 353.878 133.924 354.162 134.404C354.446 134.88 354.588 135.41 354.588 135.994C354.588 136.43 354.506 136.84 354.342 137.224C354.178 137.604 353.95 137.94 353.658 138.232C353.37 138.52 353.034 138.746 352.65 138.91C352.27 139.074 351.862 139.156 351.426 139.156C351.006 139.156 350.638 139.06 350.322 138.868C350.01 138.672 349.754 138.422 349.554 138.118V139H348.306V130H349.554V133.87C349.754 133.562 350.01 133.312 350.322 133.12C350.638 132.928 351.006 132.832 351.426 132.832ZM351.414 137.944C351.762 137.944 352.08 137.856 352.368 137.68C352.656 137.504 352.884 137.268 353.052 136.972C353.224 136.676 353.31 136.35 353.31 135.994C353.31 135.63 353.224 135.3 353.052 135.004C352.88 134.708 352.65 134.474 352.362 134.302C352.074 134.126 351.758 134.038 351.414 134.038C351.066 134.038 350.76 134.126 350.496 134.302C350.232 134.478 350.026 134.714 349.878 135.01C349.73 135.306 349.656 135.634 349.656 135.994C349.656 136.354 349.73 136.682 349.878 136.978C350.026 137.274 350.232 137.51 350.496 137.686C350.76 137.858 351.066 137.944 351.414 137.944ZM359.307 133H360.639L357.351 142H356.025L357.111 139L354.957 133H356.319L357.735 137.29L359.307 133ZM367.364 139.156C366.812 139.156 366.308 139.014 365.852 138.73C365.4 138.446 365.038 138.066 364.766 137.59C364.498 137.11 364.364 136.58 364.364 136C364.364 135.56 364.442 135.15 364.598 134.77C364.754 134.386 364.968 134.05 365.24 133.762C365.516 133.47 365.836 133.242 366.2 133.078C366.564 132.914 366.952 132.832 367.364 132.832C367.824 132.832 368.246 132.928 368.63 133.12C369.014 133.308 369.342 133.57 369.614 133.906C369.886 134.238 370.086 134.622 370.214 135.058C370.342 135.49 370.38 135.95 370.328 136.438H365.702C365.754 136.714 365.854 136.964 366.002 137.188C366.154 137.408 366.346 137.582 366.578 137.71C366.814 137.838 367.076 137.904 367.364 137.908C367.668 137.908 367.944 137.832 368.192 137.68C368.444 137.528 368.65 137.318 368.81 137.05L370.076 137.344C369.836 137.876 369.474 138.312 368.99 138.652C368.506 138.988 367.964 139.156 367.364 139.156ZM365.66 135.484H369.068C369.028 135.196 368.926 134.936 368.762 134.704C368.602 134.468 368.4 134.282 368.156 134.146C367.916 134.006 367.652 133.936 367.364 133.936C367.08 133.936 366.816 134.004 366.572 134.14C366.332 134.276 366.132 134.462 365.972 134.698C365.816 134.93 365.712 135.192 365.66 135.484ZM376.722 135.238V139H375.474V135.544C375.474 135.276 375.408 135.032 375.276 134.812C375.148 134.592 374.974 134.418 374.754 134.29C374.538 134.158 374.294 134.092 374.022 134.092C373.758 134.092 373.516 134.158 373.296 134.29C373.076 134.418 372.9 134.592 372.768 134.812C372.636 135.032 372.57 135.276 372.57 135.544V139H371.322V133H372.57V133.636C372.778 133.388 373.034 133.192 373.338 133.048C373.642 132.904 373.97 132.832 374.322 132.832C374.766 132.832 375.17 132.94 375.534 133.156C375.898 133.372 376.186 133.662 376.398 134.026C376.614 134.39 376.722 134.794 376.722 135.238ZM382.476 130H383.724V139H382.476V138.118C382.28 138.43 382.024 138.682 381.708 138.874C381.392 139.062 381.022 139.156 380.598 139.156C380.162 139.156 379.754 139.074 379.374 138.91C378.994 138.746 378.658 138.52 378.366 138.232C378.078 137.94 377.852 137.604 377.688 137.224C377.524 136.844 377.442 136.436 377.442 136C377.442 135.564 377.524 135.156 377.688 134.776C377.852 134.392 378.078 134.056 378.366 133.768C378.658 133.476 378.994 133.248 379.374 133.084C379.754 132.92 380.162 132.838 380.598 132.838C381.022 132.838 381.392 132.934 381.708 133.126C382.024 133.314 382.28 133.562 382.476 133.87V130ZM380.61 137.95C380.962 137.95 381.27 137.864 381.534 137.692C381.798 137.516 382.002 137.28 382.146 136.984C382.294 136.688 382.368 136.36 382.368 136C382.368 135.636 382.294 135.306 382.146 135.01C381.998 134.714 381.792 134.48 381.528 134.308C381.268 134.132 380.962 134.044 380.61 134.044C380.262 134.044 379.944 134.132 379.656 134.308C379.372 134.484 379.144 134.72 378.972 135.016C378.804 135.312 378.72 135.64 378.72 136C378.72 136.364 378.806 136.694 378.978 136.99C379.154 137.282 379.384 137.516 379.668 137.692C379.956 137.864 380.27 137.95 380.61 137.95ZM245.36 157.156C244.808 157.156 244.304 157.014 243.848 156.73C243.396 156.446 243.034 156.066 242.762 155.59C242.494 155.11 242.36 154.58 242.36 154C242.36 153.56 242.438 153.15 242.594 152.77C242.75 152.386 242.964 152.05 243.236 151.762C243.512 151.47 243.832 151.242 244.196 151.078C244.56 150.914 244.948 150.832 245.36 150.832C245.912 150.832 246.414 150.974 246.866 151.258C247.322 151.542 247.684 151.924 247.952 152.404C248.224 152.884 248.36 153.416 248.36 154C248.36 154.436 248.282 154.844 248.126 155.224C247.97 155.604 247.754 155.94 247.478 156.232C247.206 156.52 246.888 156.746 246.524 156.91C246.164 157.074 245.776 157.156 245.36 157.156ZM245.36 155.908C245.692 155.908 245.99 155.82 246.254 155.644C246.518 155.468 246.726 155.236 246.878 154.948C247.034 154.656 247.112 154.34 247.112 154C247.112 153.652 247.032 153.332 246.872 153.04C246.716 152.748 246.506 152.516 246.242 152.344C245.978 152.168 245.684 152.08 245.36 152.08C245.032 152.08 244.734 152.168 244.466 152.344C244.202 152.52 243.992 152.754 243.836 153.046C243.684 153.338 243.608 153.656 243.608 154C243.608 154.356 243.688 154.678 243.848 154.966C244.008 155.254 244.22 155.484 244.484 155.656C244.752 155.824 245.044 155.908 245.36 155.908ZM250.977 149.638V151H252.669V152.248H250.977V157H249.729V152.248H249.015V151H249.729V149.638C249.729 149.31 249.809 149.012 249.969 148.744C250.129 148.472 250.343 148.256 250.611 148.096C250.883 147.936 251.185 147.856 251.517 147.856C251.757 147.856 251.991 147.904 252.219 148C252.447 148.096 252.651 148.244 252.831 148.444L251.937 149.326C251.893 149.254 251.831 149.2 251.751 149.164C251.675 149.124 251.597 149.104 251.517 149.104C251.369 149.104 251.241 149.156 251.133 149.26C251.029 149.364 250.977 149.49 250.977 149.638ZM259.728 152.248H258.468L258.462 157H257.214L257.22 152.248H256.266V151H257.22L257.214 149.116H258.462L258.468 151H259.728V152.248ZM266.202 153.238V157H264.954V153.544C264.954 153.276 264.888 153.032 264.756 152.812C264.628 152.592 264.454 152.418 264.234 152.29C264.018 152.158 263.774 152.092 263.502 152.092C263.238 152.092 262.996 152.158 262.776 152.29C262.556 152.418 262.38 152.592 262.248 152.812C262.116 153.032 262.05 153.276 262.05 153.544V157H260.802V148H262.05V151.636C262.258 151.388 262.514 151.192 262.818 151.048C263.122 150.904 263.45 150.832 263.802 150.832C264.246 150.832 264.65 150.94 265.014 151.156C265.378 151.372 265.666 151.662 265.878 152.026C266.094 152.39 266.202 152.794 266.202 153.238ZM267.4 151H268.648V157H267.4V151ZM268.036 150.13C267.844 150.13 267.684 150.068 267.556 149.944C267.428 149.82 267.364 149.664 267.364 149.476C267.364 149.292 267.428 149.138 267.556 149.014C267.684 148.886 267.842 148.822 268.03 148.822C268.214 148.822 268.37 148.886 268.498 149.014C268.626 149.138 268.69 149.292 268.69 149.476C268.69 149.664 268.626 149.82 268.498 149.944C268.374 150.068 268.22 150.13 268.036 150.13ZM271.801 157.114C271.485 157.094 271.177 157.03 270.877 156.922C270.577 156.814 270.313 156.668 270.085 156.484C269.861 156.296 269.693 156.076 269.581 155.824L270.643 155.368C270.695 155.476 270.785 155.582 270.913 155.686C271.045 155.79 271.199 155.876 271.375 155.944C271.551 156.008 271.735 156.04 271.927 156.04C272.115 156.04 272.289 156.014 272.449 155.962C272.613 155.906 272.747 155.822 272.851 155.71C272.955 155.598 273.007 155.464 273.007 155.308C273.007 155.132 272.947 154.996 272.827 154.9C272.711 154.8 272.565 154.724 272.389 154.672C272.213 154.62 272.037 154.57 271.861 154.522C271.469 154.434 271.109 154.314 270.781 154.162C270.457 154.006 270.199 153.808 270.007 153.568C269.815 153.324 269.719 153.026 269.719 152.674C269.719 152.29 269.823 151.958 270.031 151.678C270.239 151.394 270.511 151.176 270.847 151.024C271.187 150.872 271.549 150.796 271.933 150.796C272.413 150.796 272.853 150.898 273.253 151.102C273.653 151.306 273.959 151.586 274.171 151.942L273.181 152.53C273.121 152.41 273.031 152.302 272.911 152.206C272.791 152.11 272.655 152.034 272.503 151.978C272.351 151.918 272.193 151.884 272.029 151.876C271.825 151.868 271.635 151.892 271.459 151.948C271.287 152 271.149 152.084 271.045 152.2C270.941 152.316 270.889 152.464 270.889 152.644C270.889 152.82 270.951 152.952 271.075 153.04C271.199 153.124 271.355 153.192 271.543 153.244C271.735 153.296 271.931 153.354 272.131 153.418C272.487 153.53 272.821 153.668 273.133 153.832C273.445 153.992 273.697 154.19 273.889 154.426C274.081 154.662 274.173 154.95 274.165 155.29C274.165 155.666 274.051 155.996 273.823 156.28C273.599 156.564 273.307 156.78 272.947 156.928C272.587 157.076 272.205 157.138 271.801 157.114ZM278.075 157V151H279.323V151.636C279.531 151.388 279.785 151.192 280.085 151.048C280.389 150.904 280.717 150.832 281.069 150.832C281.497 150.832 281.891 150.936 282.251 151.144C282.611 151.348 282.897 151.62 283.109 151.96C283.321 151.62 283.603 151.348 283.955 151.144C284.311 150.936 284.703 150.832 285.131 150.832C285.575 150.832 285.979 150.94 286.343 151.156C286.707 151.372 286.997 151.662 287.213 152.026C287.429 152.39 287.537 152.794 287.537 153.238V157H286.289V153.556C286.289 153.292 286.225 153.05 286.097 152.83C285.969 152.61 285.797 152.432 285.581 152.296C285.365 152.16 285.125 152.092 284.861 152.092C284.597 152.092 284.357 152.156 284.141 152.284C283.925 152.412 283.753 152.586 283.625 152.806C283.497 153.026 283.433 153.276 283.433 153.556V157H282.185V153.556C282.185 153.276 282.121 153.026 281.993 152.806C281.865 152.586 281.691 152.412 281.471 152.284C281.255 152.156 281.015 152.092 280.751 152.092C280.491 152.092 280.251 152.16 280.031 152.296C279.815 152.432 279.643 152.61 279.515 152.83C279.387 153.05 279.323 153.292 279.323 153.556V157H278.075ZM291.262 157.156C290.71 157.156 290.206 157.014 289.75 156.73C289.298 156.446 288.936 156.066 288.664 155.59C288.396 155.11 288.262 154.58 288.262 154C288.262 153.56 288.34 153.15 288.496 152.77C288.652 152.386 288.866 152.05 289.138 151.762C289.414 151.47 289.734 151.242 290.098 151.078C290.462 150.914 290.85 150.832 291.262 150.832C291.814 150.832 292.316 150.974 292.768 151.258C293.224 151.542 293.586 151.924 293.854 152.404C294.126 152.884 294.262 153.416 294.262 154C294.262 154.436 294.184 154.844 294.028 155.224C293.872 155.604 293.656 155.94 293.38 156.232C293.108 156.52 292.79 156.746 292.426 156.91C292.066 157.074 291.678 157.156 291.262 157.156ZM291.262 155.908C291.594 155.908 291.892 155.82 292.156 155.644C292.42 155.468 292.628 155.236 292.78 154.948C292.936 154.656 293.014 154.34 293.014 154C293.014 153.652 292.934 153.332 292.774 153.04C292.618 152.748 292.408 152.516 292.144 152.344C291.88 152.168 291.586 152.08 291.262 152.08C290.934 152.08 290.636 152.168 290.368 152.344C290.104 152.52 289.894 152.754 289.738 153.046C289.586 153.338 289.51 153.656 289.51 154C289.51 154.356 289.59 154.678 289.75 154.966C289.91 155.254 290.122 155.484 290.386 155.656C290.654 155.824 290.946 155.908 291.262 155.908ZM300.632 153.238V157H299.384V153.544C299.384 153.276 299.318 153.032 299.186 152.812C299.058 152.592 298.884 152.418 298.664 152.29C298.448 152.158 298.204 152.092 297.932 152.092C297.668 152.092 297.426 152.158 297.206 152.29C296.986 152.418 296.81 152.592 296.678 152.812C296.546 153.032 296.48 153.276 296.48 153.544V157H295.232V151H296.48V151.636C296.688 151.388 296.944 151.192 297.248 151.048C297.552 150.904 297.88 150.832 298.232 150.832C298.676 150.832 299.08 150.94 299.444 151.156C299.808 151.372 300.096 151.662 300.308 152.026C300.524 152.39 300.632 152.794 300.632 153.238ZM304.997 152.248H303.737L303.731 157H302.483L302.489 152.248H301.535V151H302.489L302.483 149.116H303.731L303.737 151H304.997V152.248ZM311.472 153.238V157H310.224V153.544C310.224 153.276 310.158 153.032 310.026 152.812C309.898 152.592 309.724 152.418 309.504 152.29C309.288 152.158 309.044 152.092 308.772 152.092C308.508 152.092 308.266 152.158 308.046 152.29C307.826 152.418 307.65 152.592 307.518 152.812C307.386 153.032 307.32 153.276 307.32 153.544V157H306.072V148H307.32V151.636C307.528 151.388 307.784 151.192 308.088 151.048C308.392 150.904 308.72 150.832 309.072 150.832C309.516 150.832 309.92 150.94 310.284 151.156C310.648 151.372 310.936 151.662 311.148 152.026C311.364 152.39 311.472 152.794 311.472 153.238ZM315.552 151H316.8V157H315.552V151ZM316.188 150.13C315.996 150.13 315.836 150.068 315.708 149.944C315.58 149.82 315.516 149.664 315.516 149.476C315.516 149.292 315.58 149.138 315.708 149.014C315.836 148.886 315.994 148.822 316.182 148.822C316.366 148.822 316.522 148.886 316.65 149.014C316.778 149.138 316.842 149.292 316.842 149.476C316.842 149.664 316.778 149.82 316.65 149.944C316.526 150.068 316.372 150.13 316.188 150.13ZM319.954 157.114C319.638 157.094 319.33 157.03 319.03 156.922C318.73 156.814 318.466 156.668 318.238 156.484C318.014 156.296 317.846 156.076 317.734 155.824L318.796 155.368C318.848 155.476 318.938 155.582 319.066 155.686C319.198 155.79 319.352 155.876 319.528 155.944C319.704 156.008 319.888 156.04 320.08 156.04C320.268 156.04 320.442 156.014 320.602 155.962C320.766 155.906 320.9 155.822 321.004 155.71C321.108 155.598 321.16 155.464 321.16 155.308C321.16 155.132 321.1 154.996 320.98 154.9C320.864 154.8 320.718 154.724 320.542 154.672C320.366 154.62 320.19 154.57 320.014 154.522C319.622 154.434 319.262 154.314 318.934 154.162C318.61 154.006 318.352 153.808 318.16 153.568C317.968 153.324 317.872 153.026 317.872 152.674C317.872 152.29 317.976 151.958 318.184 151.678C318.392 151.394 318.664 151.176 319 151.024C319.34 150.872 319.702 150.796 320.086 150.796C320.566 150.796 321.006 150.898 321.406 151.102C321.806 151.306 322.112 151.586 322.324 151.942L321.334 152.53C321.274 152.41 321.184 152.302 321.064 152.206C320.944 152.11 320.808 152.034 320.656 151.978C320.504 151.918 320.346 151.884 320.182 151.876C319.978 151.868 319.788 151.892 319.612 151.948C319.44 152 319.302 152.084 319.198 152.2C319.094 152.316 319.042 152.464 319.042 152.644C319.042 152.82 319.104 152.952 319.228 153.04C319.352 153.124 319.508 153.192 319.696 153.244C319.888 153.296 320.084 153.354 320.284 153.418C320.64 153.53 320.974 153.668 321.286 153.832C321.598 153.992 321.85 154.19 322.042 154.426C322.234 154.662 322.326 154.95 322.318 155.29C322.318 155.666 322.204 155.996 321.976 156.28C321.752 156.564 321.46 156.78 321.1 156.928C320.74 157.076 320.358 157.138 319.954 157.114ZM327.476 160H326.228V151H327.476V151.882C327.676 151.574 327.932 151.324 328.244 151.132C328.556 150.94 328.924 150.844 329.348 150.844C329.784 150.844 330.192 150.926 330.572 151.09C330.956 151.254 331.292 151.482 331.58 151.774C331.868 152.062 332.094 152.396 332.258 152.776C332.422 153.156 332.504 153.564 332.504 154C332.504 154.436 332.422 154.846 332.258 155.23C332.094 155.614 331.868 155.952 331.58 156.244C331.292 156.532 330.956 156.758 330.572 156.922C330.192 157.086 329.784 157.168 329.348 157.168C328.924 157.168 328.556 157.072 328.244 156.88C327.932 156.684 327.676 156.434 327.476 156.13V160ZM329.336 152.05C328.988 152.05 328.682 152.138 328.418 152.314C328.154 152.49 327.948 152.726 327.8 153.022C327.652 153.314 327.578 153.64 327.578 154C327.578 154.36 327.652 154.688 327.8 154.984C327.948 155.28 328.154 155.516 328.418 155.692C328.682 155.868 328.988 155.956 329.336 155.956C329.68 155.956 329.996 155.87 330.284 155.698C330.572 155.522 330.802 155.286 330.974 154.99C331.146 154.694 331.232 154.364 331.232 154C331.232 153.644 331.146 153.318 330.974 153.022C330.806 152.726 330.578 152.49 330.29 152.314C330.002 152.138 329.684 152.05 329.336 152.05ZM333.482 157V151H334.73V151.636C334.938 151.388 335.194 151.192 335.498 151.048C335.802 150.904 336.13 150.832 336.482 150.832C336.706 150.832 336.928 150.862 337.148 150.922L336.65 152.182C336.494 152.122 336.338 152.092 336.182 152.092C335.918 152.092 335.676 152.158 335.456 152.29C335.236 152.418 335.06 152.592 334.928 152.812C334.796 153.032 334.73 153.276 334.73 153.544V157H333.482ZM340.2 157.156C339.648 157.156 339.144 157.014 338.688 156.73C338.236 156.446 337.874 156.066 337.602 155.59C337.334 155.11 337.2 154.58 337.2 154C337.2 153.56 337.278 153.15 337.434 152.77C337.59 152.386 337.804 152.05 338.076 151.762C338.352 151.47 338.672 151.242 339.036 151.078C339.4 150.914 339.788 150.832 340.2 150.832C340.752 150.832 341.254 150.974 341.706 151.258C342.162 151.542 342.524 151.924 342.792 152.404C343.064 152.884 343.2 153.416 343.2 154C343.2 154.436 343.122 154.844 342.966 155.224C342.81 155.604 342.594 155.94 342.318 156.232C342.046 156.52 341.728 156.746 341.364 156.91C341.004 157.074 340.616 157.156 340.2 157.156ZM340.2 155.908C340.532 155.908 340.83 155.82 341.094 155.644C341.358 155.468 341.566 155.236 341.718 154.948C341.874 154.656 341.952 154.34 341.952 154C341.952 153.652 341.872 153.332 341.712 153.04C341.556 152.748 341.346 152.516 341.082 152.344C340.818 152.168 340.524 152.08 340.2 152.08C339.872 152.08 339.574 152.168 339.306 152.344C339.042 152.52 338.832 152.754 338.676 153.046C338.524 153.338 338.448 153.656 338.448 154C338.448 154.356 338.528 154.678 338.688 154.966C338.848 155.254 339.06 155.484 339.324 155.656C339.592 155.824 339.884 155.908 340.2 155.908ZM343.004 160V158.752C343.256 158.752 343.482 158.694 343.682 158.578C343.886 158.466 344.046 158.31 344.162 158.11C344.282 157.91 344.342 157.688 344.342 157.444V151H345.59V157.444C345.59 157.912 345.476 158.34 345.248 158.728C345.02 159.116 344.71 159.424 344.318 159.652C343.93 159.884 343.492 160 343.004 160ZM344.978 150.13C344.786 150.13 344.626 150.068 344.498 149.944C344.37 149.82 344.306 149.664 344.306 149.476C344.306 149.292 344.37 149.138 344.498 149.014C344.626 148.886 344.784 148.822 344.972 148.822C345.156 148.822 345.312 148.886 345.44 149.014C345.568 149.138 345.632 149.292 345.632 149.476C345.632 149.664 345.568 149.82 345.44 149.944C345.316 150.068 345.162 150.13 344.978 150.13ZM349.563 157.156C349.011 157.156 348.507 157.014 348.051 156.73C347.599 156.446 347.237 156.066 346.965 155.59C346.697 155.11 346.563 154.58 346.563 154C346.563 153.56 346.641 153.15 346.797 152.77C346.953 152.386 347.167 152.05 347.439 151.762C347.715 151.47 348.035 151.242 348.399 151.078C348.763 150.914 349.151 150.832 349.563 150.832C350.023 150.832 350.445 150.928 350.829 151.12C351.213 151.308 351.541 151.57 351.813 151.906C352.085 152.238 352.285 152.622 352.413 153.058C352.541 153.49 352.579 153.95 352.527 154.438H347.901C347.953 154.714 348.053 154.964 348.201 155.188C348.353 155.408 348.545 155.582 348.777 155.71C349.013 155.838 349.275 155.904 349.563 155.908C349.867 155.908 350.143 155.832 350.391 155.68C350.643 155.528 350.849 155.318 351.009 155.05L352.275 155.344C352.035 155.876 351.673 156.312 351.189 156.652C350.705 156.988 350.163 157.156 349.563 157.156ZM347.859 153.484H351.267C351.227 153.196 351.125 152.936 350.961 152.704C350.801 152.468 350.599 152.282 350.355 152.146C350.115 152.006 349.851 151.936 349.563 151.936C349.279 151.936 349.015 152.004 348.771 152.14C348.531 152.276 348.331 152.462 348.171 152.698C348.015 152.93 347.911 153.192 347.859 153.484ZM357.427 155.296L358.543 155.902C358.271 156.282 357.925 156.586 357.505 156.814C357.089 157.042 356.637 157.156 356.149 157.156C355.597 157.156 355.093 157.014 354.637 156.73C354.185 156.446 353.823 156.066 353.551 155.59C353.283 155.11 353.149 154.58 353.149 154C353.149 153.56 353.227 153.15 353.383 152.77C353.539 152.386 353.753 152.05 354.025 151.762C354.301 151.47 354.621 151.242 354.985 151.078C355.349 150.914 355.737 150.832 356.149 150.832C356.637 150.832 357.089 150.946 357.505 151.174C357.925 151.402 358.271 151.708 358.543 152.092L357.427 152.698C357.259 152.498 357.063 152.346 356.839 152.242C356.615 152.134 356.385 152.08 356.149 152.08C355.821 152.08 355.523 152.17 355.255 152.35C354.991 152.526 354.781 152.76 354.625 153.052C354.473 153.34 354.397 153.656 354.397 154C354.397 154.34 354.475 154.656 354.631 154.948C354.787 155.236 354.997 155.468 355.261 155.644C355.529 155.82 355.825 155.908 356.149 155.908C356.397 155.908 356.633 155.852 356.857 155.74C357.081 155.628 357.271 155.48 357.427 155.296ZM362.794 152.248H361.534L361.528 157H360.28L360.286 152.248H359.332V151H360.286L360.28 149.116H361.528L361.534 151H362.794V152.248ZM366.368 157.156C365.816 157.156 365.312 157.014 364.856 156.73C364.404 156.446 364.042 156.066 363.77 155.59C363.502 155.11 363.368 154.58 363.368 154C363.368 153.56 363.446 153.15 363.602 152.77C363.758 152.386 363.972 152.05 364.244 151.762C364.52 151.47 364.84 151.242 365.204 151.078C365.568 150.914 365.956 150.832 366.368 150.832C366.828 150.832 367.25 150.928 367.634 151.12C368.018 151.308 368.346 151.57 368.618 151.906C368.89 152.238 369.09 152.622 369.218 153.058C369.346 153.49 369.384 153.95 369.332 154.438H364.706C364.758 154.714 364.858 154.964 365.006 155.188C365.158 155.408 365.35 155.582 365.582 155.71C365.818 155.838 366.08 155.904 366.368 155.908C366.672 155.908 366.948 155.832 367.196 155.68C367.448 155.528 367.654 155.318 367.814 155.05L369.08 155.344C368.84 155.876 368.478 156.312 367.994 156.652C367.51 156.988 366.968 157.156 366.368 157.156ZM364.664 153.484H368.072C368.032 153.196 367.93 152.936 367.766 152.704C367.606 152.468 367.404 152.282 367.16 152.146C366.92 152.006 366.656 151.936 366.368 151.936C366.084 151.936 365.82 152.004 365.576 152.14C365.336 152.276 365.136 152.462 364.976 152.698C364.82 152.93 364.716 153.192 364.664 153.484ZM374.988 148H376.236V157H374.988V156.118C374.792 156.43 374.536 156.682 374.22 156.874C373.904 157.062 373.534 157.156 373.11 157.156C372.674 157.156 372.266 157.074 371.886 156.91C371.506 156.746 371.17 156.52 370.878 156.232C370.59 155.94 370.364 155.604 370.2 155.224C370.036 154.844 369.954 154.436 369.954 154C369.954 153.564 370.036 153.156 370.2 152.776C370.364 152.392 370.59 152.056 370.878 151.768C371.17 151.476 371.506 151.248 371.886 151.084C372.266 150.92 372.674 150.838 373.11 150.838C373.534 150.838 373.904 150.934 374.22 151.126C374.536 151.314 374.792 151.562 374.988 151.87V148ZM373.122 155.95C373.474 155.95 373.782 155.864 374.046 155.692C374.31 155.516 374.514 155.28 374.658 154.984C374.806 154.688 374.88 154.36 374.88 154C374.88 153.636 374.806 153.306 374.658 153.01C374.51 152.714 374.304 152.48 374.04 152.308C373.78 152.132 373.474 152.044 373.122 152.044C372.774 152.044 372.456 152.132 372.168 152.308C371.884 152.484 371.656 152.72 371.484 153.016C371.316 153.312 371.232 153.64 371.232 154C371.232 154.364 371.318 154.694 371.49 154.99C371.666 155.282 371.896 155.516 372.18 155.692C372.468 155.864 372.782 155.95 373.122 155.95Z" fill="#B2B3B7"/>
<path d="M483 140C466 134.5 454 162.5 442 163H560V124C538 128 538.5 149 526.5 155C514.5 161 500 145.5 483 140Z" fill="url(#paint0_linear_430_576)"/>
<path d="M442 164C454 163.487 466 134.769 483 140.41C500 146.051 514.5 161.949 526.5 155.795C538.5 149.641 538 128.103 560 124" stroke="#00B473" stroke-width="2" stroke-linecap="round"/>
</g>
<defs>
<filter id="filter0_d_430_576" x="0" y="0" width="622" height="240" filterUnits="userSpaceOnUse" color-interpolation-filters="sRGB">
<feFlood flood-opacity="0" result="BackgroundImageFix"/>
<feColorMatrix in="SourceAlpha" type="matrix" values="0 0 0 0 0 0 0 0 0 0 0 0 0 0 0 0 0 0 127 0" result="hardAlpha"/>
<feOffset dy="4"/>
<feGaussianBlur stdDeviation="10"/>
<feComposite in2="hardAlpha" operator="out"/>
<feColorMatrix type="matrix" values="0 0 0 0 0.589258 0 0 0 0 0.589258 0 0 0 0 0.589258 0 0 0 0.1 0"/>
<feBlend mode="normal" in2="BackgroundImageFix" result="effect1_dropShadow_430_576"/>
<feBlend mode="normal" in="SourceGraphic" in2="effect1_dropShadow_430_576" result="shape"/>
</filter>
<filter id="filter1_d_430_576" x="469" y="21" width="128" height="68" filterUnits="userSpaceOnUse" color-interpolation-filters="sRGB">
<feFlood flood-opacity="0" result="BackgroundImageFix"/>
<feColorMatrix in="SourceAlpha" type="matrix" values="0 0 0 0 0 0 0 0 0 0 0 0 0 0 0 0 0 0 127 0" result="hardAlpha"/>
<feOffset/>
<feGaussianBlur stdDeviation="7.5"/>
<feComposite in2="hardAlpha" operator="out"/>
<feColorMatrix type="matrix" values="0 0 0 0 0 0 0 0 0 0 0 0 0 0 0 0 0 0 0.1 0"/>
<feBlend mode="normal" in2="BackgroundImageFix" result="effect1_dropShadow_430_576"/>
<feBlend mode="normal" in="SourceGraphic" in2="effect1_dropShadow_430_576" result="shape"/>
</filter>
<filter id="filter2_d_430_576" x="79.9199" y="126.752" width="154.027" height="42.8721" filterUnits="userSpaceOnUse" color-interpolation-filters="sRGB">
<feFlood flood-opacity="0" result="BackgroundImageFix"/>
<feColorMatrix in="SourceAlpha" type="matrix" values="0 0 0 0 0 0 0 0 0 0 0 0 0 0 0 0 0 0 127 0" result="hardAlpha"/>
<feOffset dy="4"/>
<feGaussianBlur stdDeviation="2"/>
<feComposite in2="hardAlpha" operator="out"/>
<feColorMatrix type="matrix" values="0 0 0 0 0.168723 0 0 0 0 0.238926 0 0 0 0 0.321338 0 0 0 0.2 0"/>
<feBlend mode="normal" in2="BackgroundImageFix" result="effect1_dropShadow_430_576"/>
<feBlend mode="normal" in="SourceGraphic" in2="effect1_dropShadow_430_576" result="shape"/>
</filter>
<linearGradient id="paint0_linear_430_576" x1="501" y1="95" x2="501" y2="163" gradientUnits="userSpaceOnUse">
<stop stop-color="#26B97B"/>
<stop offset="1" stop-color="#49F1B5" stop-opacity="0"/>
</linearGradient>
</defs>
</svg>
