<svg width="622" height="236" viewBox="0 0 622 236" fill="none" xmlns="http://www.w3.org/2000/svg">
<rect x="52.3335" y="1" width="517.333" height="247.17" rx="12" fill="white" fill-opacity="0.8"/>
<g filter="url(#filter0_d_430_577)">
<g clip-path="url(#clip0_430_577)">
<rect x="20" y="16" width="582" height="250" rx="16" fill="white"/>
<path d="M45.28 117V94.52H41.6L43.08 89H50.8V117H45.28ZM64.3244 117.52C62.6444 117.52 61.111 117.113 59.7244 116.3C58.3377 115.487 57.231 114.393 56.4044 113.02C55.591 111.633 55.1844 110.1 55.1844 108.42H60.7044C60.7044 109.06 60.8644 109.653 61.1844 110.2C61.5044 110.747 61.9377 111.187 62.4844 111.52C63.031 111.84 63.6444 112 64.3244 112C64.9777 112 65.5777 111.84 66.1244 111.52C66.6844 111.187 67.131 110.747 67.4644 110.2C67.7977 109.653 67.9644 109.06 67.9644 108.42C67.9644 107.54 67.7244 106.807 67.2444 106.22C66.7644 105.633 66.091 105.193 65.2244 104.9C64.3577 104.607 63.3444 104.46 62.1844 104.46V100.24C63.731 100.24 64.951 99.9667 65.8444 99.42C66.7377 98.86 67.1844 98.0333 67.1844 96.94C67.1844 96.3933 67.051 95.9 66.7844 95.46C66.5177 95.0067 66.1577 94.6467 65.7044 94.38C65.251 94.1 64.751 93.96 64.2044 93.96C63.6577 93.96 63.1177 94.1 62.5844 94.38C62.051 94.6467 61.611 95.0067 61.2644 95.46C60.931 95.9 60.7644 96.3933 60.7644 96.94H55.2444C55.2444 95.7667 55.4844 94.6667 55.9644 93.64C56.4444 92.6133 57.0977 91.7133 57.9244 90.94C58.7644 90.1533 59.7177 89.54 60.7844 89.1C61.851 88.66 62.971 88.44 64.1444 88.44C65.6777 88.44 67.091 88.82 68.3844 89.58C69.691 90.34 70.7377 91.3667 71.5244 92.66C72.311 93.94 72.7044 95.3667 72.7044 96.94C72.7044 97.94 72.4777 98.9467 72.0244 99.96C71.5844 100.973 70.9377 101.7 70.0844 102.14C70.831 102.42 71.451 102.9 71.9444 103.58C72.451 104.247 72.831 105.013 73.0844 105.88C73.351 106.733 73.4844 107.58 73.4844 108.42C73.4844 110.087 73.071 111.613 72.2444 113C71.4177 114.373 70.311 115.473 68.9244 116.3C67.5377 117.113 66.0044 117.52 64.3244 117.52ZM85.6075 117.52C83.7942 117.52 82.1342 117.073 80.6275 116.18C79.1342 115.287 77.9342 114.087 77.0275 112.58C76.1342 111.073 75.6875 109.4 75.6875 107.56C75.6875 106.68 75.7942 105.827 76.0075 105C76.2342 104.16 76.5742 103.347 77.0275 102.56L84.8475 89H91.2475L86.1675 97.78C87.1942 97.82 88.1808 98.0133 89.1275 98.36C90.0742 98.6933 90.9408 99.16 91.7275 99.76C92.5142 100.36 93.1942 101.067 93.7675 101.88C94.3542 102.68 94.8008 103.56 95.1075 104.52C95.4275 105.48 95.5875 106.493 95.5875 107.56C95.5875 108.933 95.3275 110.22 94.8075 111.42C94.2875 112.62 93.5675 113.68 92.6475 114.6C91.7408 115.507 90.6808 116.22 89.4675 116.74C88.2675 117.26 86.9808 117.52 85.6075 117.52ZM85.6075 112C86.4608 112 87.2208 111.793 87.8875 111.38C88.5675 110.953 89.1008 110.407 89.4875 109.74C89.8742 109.06 90.0675 108.347 90.0675 107.6C90.0675 106.787 89.8742 106.047 89.4875 105.38C89.1008 104.7 88.5675 104.16 87.8875 103.76C87.2208 103.347 86.4742 103.14 85.6475 103.14C84.7675 103.14 83.9942 103.353 83.3275 103.78C82.6608 104.207 82.1408 104.76 81.7675 105.44C81.3942 106.107 81.2075 106.827 81.2075 107.6C81.2075 108.44 81.4142 109.193 81.8275 109.86C82.2542 110.513 82.8008 111.033 83.4675 111.42C84.1342 111.807 84.8475 112 85.6075 112ZM108.957 117.52C107.344 117.52 105.87 117.147 104.537 116.4C103.204 115.64 102.044 114.593 101.057 113.26C100.084 111.927 99.3302 110.387 98.7969 108.64C98.2635 106.88 97.9969 105 97.9969 103C97.9969 101 98.2635 99.1267 98.7969 97.38C99.3302 95.62 100.084 94.0733 101.057 92.74C102.044 91.4067 103.204 90.3667 104.537 89.62C105.87 88.86 107.344 88.48 108.957 88.48C110.57 88.48 112.044 88.86 113.377 89.62C114.71 90.3667 115.857 91.4067 116.817 92.74C117.79 94.0733 118.544 95.62 119.077 97.38C119.61 99.1267 119.877 101 119.877 103C119.877 105 119.61 106.88 119.077 108.64C118.544 110.387 117.79 111.927 116.817 113.26C115.857 114.593 114.71 115.64 113.377 116.4C112.044 117.147 110.57 117.52 108.957 117.52ZM108.957 112C110.277 112 111.364 111.573 112.217 110.72C113.07 109.867 113.697 108.753 114.097 107.38C114.51 106.007 114.717 104.547 114.717 103C114.717 101.36 114.497 99.86 114.057 98.5C113.63 97.14 112.99 96.0533 112.137 95.24C111.284 94.4133 110.224 94 108.957 94C107.957 94 107.09 94.2467 106.357 94.74C105.637 95.2333 105.037 95.9067 104.557 96.76C104.09 97.6133 103.737 98.58 103.497 99.66C103.27 100.727 103.157 101.84 103.157 103C103.157 104.547 103.364 106.007 103.777 107.38C104.204 108.74 104.844 109.853 105.697 110.72C106.564 111.573 107.65 112 108.957 112Z" fill="black"/>
<path d="M44.536 130.456H43.066L43.059 136H41.603L41.61 130.456H40.497V129H41.61L41.603 126.802H43.059L43.066 129H44.536V130.456ZM48.7052 136.182C48.0612 136.182 47.4732 136.016 46.9412 135.685C46.4138 135.354 45.9915 134.91 45.6742 134.355C45.3615 133.795 45.2052 133.177 45.2052 132.5C45.2052 131.987 45.2962 131.508 45.4782 131.065C45.6602 130.617 45.9098 130.225 46.2272 129.889C46.5492 129.548 46.9225 129.282 47.3472 129.091C47.7718 128.9 48.2245 128.804 48.7052 128.804C49.3492 128.804 49.9348 128.97 50.4622 129.301C50.9942 129.632 51.4165 130.078 51.7292 130.638C52.0465 131.198 52.2052 131.819 52.2052 132.5C52.2052 133.009 52.1142 133.485 51.9322 133.928C51.7502 134.371 51.4982 134.763 51.1762 135.104C50.8588 135.44 50.4878 135.704 50.0632 135.895C49.6432 136.086 49.1905 136.182 48.7052 136.182ZM48.7052 134.726C49.0925 134.726 49.4402 134.623 49.7482 134.418C50.0562 134.213 50.2988 133.942 50.4762 133.606C50.6582 133.265 50.7492 132.897 50.7492 132.5C50.7492 132.094 50.6558 131.721 50.4692 131.38C50.2872 131.039 50.0422 130.769 49.7342 130.568C49.4262 130.363 49.0832 130.26 48.7052 130.26C48.3225 130.26 47.9748 130.363 47.6622 130.568C47.3542 130.773 47.1092 131.046 46.9272 131.387C46.7498 131.728 46.6612 132.099 46.6612 132.5C46.6612 132.915 46.7545 133.291 46.9412 133.627C47.1278 133.963 47.3752 134.231 47.6832 134.432C47.9958 134.628 48.3365 134.726 48.7052 134.726ZM56.9911 130.456H55.5211L55.5141 136H54.0581L54.0651 130.456H52.9521V129H54.0651L54.0581 126.802H55.5141L55.5211 129H56.9911V130.456ZM63.5262 129H64.9822V136H63.5192L63.4632 134.985C63.2579 135.344 62.9802 135.634 62.6302 135.853C62.2802 136.072 61.8672 136.182 61.3912 136.182C60.8779 136.182 60.3949 136.086 59.9422 135.895C59.4896 135.699 59.0906 135.428 58.7452 135.083C58.4046 134.738 58.1386 134.341 57.9472 133.893C57.7559 133.44 57.6602 132.955 57.6602 132.437C57.6602 131.938 57.7536 131.469 57.9402 131.03C58.1269 130.587 58.3859 130.199 58.7172 129.868C59.0486 129.537 59.4312 129.278 59.8652 129.091C60.3039 128.9 60.7729 128.804 61.2722 128.804C61.7809 128.804 62.2289 128.921 62.6162 129.154C63.0082 129.383 63.3326 129.677 63.5892 130.036L63.5262 129ZM61.3562 134.775C61.7669 134.775 62.1262 134.675 62.4342 134.474C62.7422 134.269 62.9802 133.993 63.1482 133.648C63.3209 133.303 63.4072 132.92 63.4072 132.5C63.4072 132.075 63.3209 131.69 63.1482 131.345C62.9756 131 62.7352 130.727 62.4272 130.526C62.1239 130.321 61.7669 130.218 61.3562 130.218C60.9502 130.218 60.5792 130.321 60.2432 130.526C59.9072 130.731 59.6412 131.007 59.4452 131.352C59.2492 131.697 59.1512 132.08 59.1512 132.5C59.1512 132.925 59.2516 133.31 59.4522 133.655C59.6576 133.996 59.9259 134.269 60.2572 134.474C60.5932 134.675 60.9596 134.775 61.3562 134.775ZM66.4338 136V125.5H67.8898V136H66.4338ZM75.0279 136.133C74.6592 136.11 74.2999 136.035 73.9499 135.909C73.5999 135.783 73.2919 135.613 73.0259 135.398C72.7646 135.179 72.5686 134.922 72.4379 134.628L73.6769 134.096C73.7376 134.222 73.8426 134.346 73.9919 134.467C74.1459 134.588 74.3256 134.689 74.5309 134.768C74.7362 134.843 74.9509 134.88 75.1749 134.88C75.3942 134.88 75.5972 134.85 75.7839 134.789C75.9752 134.724 76.1316 134.626 76.2529 134.495C76.3742 134.364 76.4349 134.208 76.4349 134.026C76.4349 133.821 76.3649 133.662 76.2249 133.55C76.0896 133.433 75.9192 133.345 75.7139 133.284C75.5086 133.223 75.3032 133.165 75.0979 133.109C74.6406 133.006 74.2206 132.866 73.8379 132.689C73.4599 132.507 73.1589 132.276 72.9349 131.996C72.7109 131.711 72.5989 131.364 72.5989 130.953C72.5989 130.505 72.7202 130.118 72.9629 129.791C73.2056 129.46 73.5229 129.205 73.9149 129.028C74.3116 128.851 74.7339 128.762 75.1819 128.762C75.7419 128.762 76.2552 128.881 76.7219 129.119C77.1886 129.357 77.5456 129.684 77.7929 130.099L76.6379 130.785C76.5679 130.645 76.4629 130.519 76.3229 130.407C76.1829 130.295 76.0242 130.206 75.8469 130.141C75.6696 130.071 75.4852 130.031 75.2939 130.022C75.0559 130.013 74.8342 130.041 74.6289 130.106C74.4282 130.167 74.2672 130.265 74.1459 130.4C74.0246 130.535 73.9639 130.708 73.9639 130.918C73.9639 131.123 74.0362 131.277 74.1809 131.38C74.3256 131.478 74.5076 131.557 74.7269 131.618C74.9509 131.679 75.1796 131.746 75.4129 131.821C75.8282 131.952 76.2179 132.113 76.5819 132.304C76.9459 132.491 77.2399 132.722 77.4639 132.997C77.6879 133.272 77.7952 133.608 77.7859 134.005C77.7859 134.444 77.6529 134.829 77.3869 135.16C77.1256 135.491 76.7849 135.743 76.3649 135.916C75.9449 136.089 75.4992 136.161 75.0279 136.133ZM82.6805 130.456H81.2105L81.2035 136H79.7475L79.7545 130.456H78.6415V129H79.7545L79.7475 126.802H81.2035L81.2105 129H82.6805V130.456ZM86.8497 136.182C86.2057 136.182 85.6177 136.016 85.0857 135.685C84.5584 135.354 84.136 134.91 83.8187 134.355C83.506 133.795 83.3497 133.177 83.3497 132.5C83.3497 131.987 83.4407 131.508 83.6227 131.065C83.8047 130.617 84.0544 130.225 84.3717 129.889C84.6937 129.548 85.067 129.282 85.4917 129.091C85.9164 128.9 86.369 128.804 86.8497 128.804C87.4937 128.804 88.0794 128.97 88.6067 129.301C89.1387 129.632 89.561 130.078 89.8737 130.638C90.191 131.198 90.3497 131.819 90.3497 132.5C90.3497 133.009 90.2587 133.485 90.0767 133.928C89.8947 134.371 89.6427 134.763 89.3207 135.104C89.0034 135.44 88.6324 135.704 88.2077 135.895C87.7877 136.086 87.335 136.182 86.8497 136.182ZM86.8497 134.726C87.237 134.726 87.5847 134.623 87.8927 134.418C88.2007 134.213 88.4434 133.942 88.6207 133.606C88.8027 133.265 88.8937 132.897 88.8937 132.5C88.8937 132.094 88.8004 131.721 88.6137 131.38C88.4317 131.039 88.1867 130.769 87.8787 130.568C87.5707 130.363 87.2277 130.26 86.8497 130.26C86.467 130.26 86.1194 130.363 85.8067 130.568C85.4987 130.773 85.2537 131.046 85.0717 131.387C84.8944 131.728 84.8057 132.099 84.8057 132.5C84.8057 132.915 84.899 133.291 85.0857 133.627C85.2724 133.963 85.5197 134.231 85.8277 134.432C86.1404 134.628 86.481 134.726 86.8497 134.726ZM96.038 134.012L97.34 134.719C97.0226 135.162 96.619 135.517 96.129 135.783C95.6436 136.049 95.1163 136.182 94.547 136.182C93.903 136.182 93.315 136.016 92.783 135.685C92.2556 135.354 91.8333 134.91 91.516 134.355C91.2033 133.795 91.047 133.177 91.047 132.5C91.047 131.987 91.138 131.508 91.32 131.065C91.502 130.617 91.7516 130.225 92.069 129.889C92.391 129.548 92.7643 129.282 93.189 129.091C93.6136 128.9 94.0663 128.804 94.547 128.804C95.1163 128.804 95.6436 128.937 96.129 129.203C96.619 129.469 97.0226 129.826 97.34 130.274L96.038 130.981C95.842 130.748 95.6133 130.57 95.352 130.449C95.0906 130.323 94.8223 130.26 94.547 130.26C94.1643 130.26 93.8166 130.365 93.504 130.575C93.196 130.78 92.951 131.053 92.769 131.394C92.5916 131.73 92.503 132.099 92.503 132.5C92.503 132.897 92.594 133.265 92.776 133.606C92.958 133.942 93.203 134.213 93.511 134.418C93.8236 134.623 94.169 134.726 94.547 134.726C94.8363 134.726 95.1116 134.661 95.373 134.53C95.6343 134.399 95.856 134.227 96.038 134.012ZM104.411 136H102.731L101.009 133.032L99.8819 134.376V136H98.4259V125.5H99.8819V132.115L102.486 129H104.39L102.003 131.849L104.411 136Z" fill="#8E9096"/>
<path d="M40 200C40 197.791 41.7909 196 44 196H300V208H44C41.7909 208 40 206.209 40 204V200Z" fill="#00B473"/>
<path d="M300 196H445V208H300V196Z" fill="#FFC120"/>
<path d="M445 196H582V208H445V196Z" fill="#EEEFEF"/>
<rect x="40" y="167" width="16" height="16" rx="3" fill="#00B473"/>
<path d="M65.388 173H66.636V179H65.382L65.334 178.13C65.158 178.438 64.92 178.686 64.62 178.874C64.32 179.062 63.966 179.156 63.558 179.156C63.118 179.156 62.704 179.074 62.316 178.91C61.928 178.742 61.586 178.51 61.29 178.214C60.998 177.918 60.77 177.578 60.606 177.194C60.442 176.806 60.36 176.39 60.36 175.946C60.36 175.518 60.44 175.116 60.6 174.74C60.76 174.36 60.982 174.028 61.266 173.744C61.55 173.46 61.878 173.238 62.25 173.078C62.626 172.914 63.028 172.832 63.456 172.832C63.892 172.832 64.276 172.932 64.608 173.132C64.944 173.328 65.222 173.58 65.442 173.888L65.388 173ZM63.528 177.95C63.88 177.95 64.188 177.864 64.452 177.692C64.716 177.516 64.92 177.28 65.064 176.984C65.212 176.688 65.286 176.36 65.286 176C65.286 175.636 65.212 175.306 65.064 175.01C64.916 174.714 64.71 174.48 64.446 174.308C64.186 174.132 63.88 174.044 63.528 174.044C63.18 174.044 62.862 174.132 62.574 174.308C62.286 174.484 62.058 174.72 61.89 175.016C61.722 175.312 61.638 175.64 61.638 176C61.638 176.364 61.724 176.694 61.896 176.99C62.072 177.282 62.302 177.516 62.586 177.692C62.874 177.864 63.188 177.95 63.528 177.95ZM71.0426 179H69.4406L67.2506 172.988H68.5826L70.2386 177.56L71.9006 172.988H73.2266L71.0426 179ZM78.5833 173H79.8313V179H78.5773L78.5293 178.13C78.3533 178.438 78.1153 178.686 77.8153 178.874C77.5153 179.062 77.1613 179.156 76.7533 179.156C76.3133 179.156 75.8993 179.074 75.5113 178.91C75.1233 178.742 74.7813 178.51 74.4853 178.214C74.1933 177.918 73.9653 177.578 73.8013 177.194C73.6373 176.806 73.5553 176.39 73.5553 175.946C73.5553 175.518 73.6353 175.116 73.7953 174.74C73.9553 174.36 74.1773 174.028 74.4613 173.744C74.7453 173.46 75.0733 173.238 75.4453 173.078C75.8213 172.914 76.2233 172.832 76.6513 172.832C77.0873 172.832 77.4713 172.932 77.8033 173.132C78.1393 173.328 78.4173 173.58 78.6373 173.888L78.5833 173ZM76.7233 177.95C77.0753 177.95 77.3833 177.864 77.6473 177.692C77.9113 177.516 78.1153 177.28 78.2593 176.984C78.4073 176.688 78.4813 176.36 78.4813 176C78.4813 175.636 78.4073 175.306 78.2593 175.01C78.1113 174.714 77.9053 174.48 77.6413 174.308C77.3813 174.132 77.0753 174.044 76.7233 174.044C76.3753 174.044 76.0573 174.132 75.7693 174.308C75.4813 174.484 75.2533 174.72 75.0853 175.016C74.9173 175.312 74.8333 175.64 74.8333 176C74.8333 176.364 74.9193 176.694 75.0913 176.99C75.2673 177.282 75.4973 177.516 75.7813 177.692C76.0693 177.864 76.3833 177.95 76.7233 177.95ZM81.0286 173H82.2766V179H81.0286V173ZM81.6646 172.13C81.4726 172.13 81.3126 172.068 81.1846 171.944C81.0566 171.82 80.9926 171.664 80.9926 171.476C80.9926 171.292 81.0566 171.138 81.1846 171.014C81.3126 170.886 81.4706 170.822 81.6586 170.822C81.8426 170.822 81.9986 170.886 82.1266 171.014C82.2546 171.138 82.3186 171.292 82.3186 171.476C82.3186 171.664 82.2546 171.82 82.1266 171.944C82.0026 172.068 81.8486 172.13 81.6646 172.13ZM83.7356 179V170H84.9836V179H83.7356ZM91.0052 173H92.2532V179H90.9992L90.9512 178.13C90.7752 178.438 90.5372 178.686 90.2372 178.874C89.9372 179.062 89.5832 179.156 89.1752 179.156C88.7352 179.156 88.3212 179.074 87.9332 178.91C87.5452 178.742 87.2032 178.51 86.9072 178.214C86.6152 177.918 86.3872 177.578 86.2232 177.194C86.0592 176.806 85.9772 176.39 85.9772 175.946C85.9772 175.518 86.0572 175.116 86.2172 174.74C86.3772 174.36 86.5992 174.028 86.8832 173.744C87.1672 173.46 87.4952 173.238 87.8672 173.078C88.2432 172.914 88.6452 172.832 89.0732 172.832C89.5092 172.832 89.8932 172.932 90.2252 173.132C90.5612 173.328 90.8392 173.58 91.0592 173.888L91.0052 173ZM89.1452 177.95C89.4972 177.95 89.8052 177.864 90.0692 177.692C90.3332 177.516 90.5372 177.28 90.6812 176.984C90.8292 176.688 90.9032 176.36 90.9032 176C90.9032 175.636 90.8292 175.306 90.6812 175.01C90.5332 174.714 90.3272 174.48 90.0632 174.308C89.8032 174.132 89.4972 174.044 89.1452 174.044C88.7972 174.044 88.4792 174.132 88.1912 174.308C87.9032 174.484 87.6752 174.72 87.5072 175.016C87.3392 175.312 87.2552 175.64 87.2552 176C87.2552 176.364 87.3412 176.694 87.5132 176.99C87.6892 177.282 87.9192 177.516 88.2032 177.692C88.4912 177.864 88.8052 177.95 89.1452 177.95ZM96.6173 172.832C97.2013 172.832 97.7313 172.974 98.2073 173.258C98.6873 173.542 99.0693 173.924 99.3533 174.404C99.6373 174.88 99.7793 175.41 99.7793 175.994C99.7793 176.43 99.6973 176.84 99.5333 177.224C99.3693 177.604 99.1413 177.94 98.8493 178.232C98.5613 178.52 98.2253 178.746 97.8413 178.91C97.4613 179.074 97.0533 179.156 96.6173 179.156C96.1973 179.156 95.8293 179.06 95.5133 178.868C95.2013 178.672 94.9453 178.422 94.7453 178.118V179H93.4973V170H94.7453V173.87C94.9453 173.562 95.2013 173.312 95.5133 173.12C95.8293 172.928 96.1973 172.832 96.6173 172.832ZM96.6053 177.944C96.9533 177.944 97.2713 177.856 97.5593 177.68C97.8473 177.504 98.0753 177.268 98.2433 176.972C98.4153 176.676 98.5013 176.35 98.5013 175.994C98.5013 175.63 98.4153 175.3 98.2433 175.004C98.0713 174.708 97.8413 174.474 97.5533 174.302C97.2653 174.126 96.9493 174.038 96.6053 174.038C96.2573 174.038 95.9513 174.126 95.6873 174.302C95.4233 174.478 95.2173 174.714 95.0693 175.01C94.9213 175.306 94.8473 175.634 94.8473 175.994C94.8473 176.354 94.9213 176.682 95.0693 176.978C95.2173 177.274 95.4233 177.51 95.6873 177.686C95.9513 177.858 96.2573 177.944 96.6053 177.944ZM100.669 179V170H101.917V179H100.669ZM105.911 179.156C105.359 179.156 104.855 179.014 104.399 178.73C103.947 178.446 103.585 178.066 103.313 177.59C103.045 177.11 102.911 176.58 102.911 176C102.911 175.56 102.989 175.15 103.145 174.77C103.301 174.386 103.515 174.05 103.787 173.762C104.063 173.47 104.383 173.242 104.747 173.078C105.111 172.914 105.499 172.832 105.911 172.832C106.371 172.832 106.793 172.928 107.177 173.12C107.561 173.308 107.889 173.57 108.161 173.906C108.433 174.238 108.633 174.622 108.761 175.058C108.889 175.49 108.927 175.95 108.875 176.438H104.249C104.301 176.714 104.401 176.964 104.549 177.188C104.701 177.408 104.893 177.582 105.125 177.71C105.361 177.838 105.623 177.904 105.911 177.908C106.215 177.908 106.491 177.832 106.739 177.68C106.991 177.528 107.197 177.318 107.357 177.05L108.623 177.344C108.383 177.876 108.021 178.312 107.537 178.652C107.053 178.988 106.511 179.156 105.911 179.156ZM104.207 175.484H107.615C107.575 175.196 107.473 174.936 107.309 174.704C107.149 174.468 106.947 174.282 106.703 174.146C106.463 174.006 106.199 173.936 105.911 173.936C105.627 173.936 105.363 174.004 105.119 174.14C104.879 174.276 104.679 174.462 104.519 174.698C104.363 174.93 104.259 175.192 104.207 175.484ZM114.657 179.114C114.341 179.094 114.033 179.03 113.733 178.922C113.433 178.814 113.169 178.668 112.941 178.484C112.717 178.296 112.549 178.076 112.437 177.824L113.499 177.368C113.551 177.476 113.641 177.582 113.769 177.686C113.901 177.79 114.055 177.876 114.231 177.944C114.407 178.008 114.591 178.04 114.783 178.04C114.971 178.04 115.145 178.014 115.305 177.962C115.469 177.906 115.603 177.822 115.707 177.71C115.811 177.598 115.863 177.464 115.863 177.308C115.863 177.132 115.803 176.996 115.683 176.9C115.567 176.8 115.421 176.724 115.245 176.672C115.069 176.62 114.893 176.57 114.717 176.522C114.325 176.434 113.965 176.314 113.637 176.162C113.313 176.006 113.055 175.808 112.863 175.568C112.671 175.324 112.575 175.026 112.575 174.674C112.575 174.29 112.679 173.958 112.887 173.678C113.095 173.394 113.367 173.176 113.703 173.024C114.043 172.872 114.405 172.796 114.789 172.796C115.269 172.796 115.709 172.898 116.109 173.102C116.509 173.306 116.815 173.586 117.027 173.942L116.037 174.53C115.977 174.41 115.887 174.302 115.767 174.206C115.647 174.11 115.511 174.034 115.359 173.978C115.207 173.918 115.049 173.884 114.885 173.876C114.681 173.868 114.491 173.892 114.315 173.948C114.143 174 114.005 174.084 113.901 174.2C113.797 174.316 113.745 174.464 113.745 174.644C113.745 174.82 113.807 174.952 113.931 175.04C114.055 175.124 114.211 175.192 114.399 175.244C114.591 175.296 114.787 175.354 114.987 175.418C115.343 175.53 115.677 175.668 115.989 175.832C116.301 175.992 116.553 176.19 116.745 176.426C116.937 176.662 117.029 176.95 117.021 177.29C117.021 177.666 116.907 177.996 116.679 178.28C116.455 178.564 116.163 178.78 115.803 178.928C115.443 179.076 115.061 179.138 114.657 179.114ZM121.216 174.248H119.956L119.95 179H118.702L118.708 174.248H117.754V173H118.708L118.702 171.116H119.95L119.956 173H121.216V174.248ZM124.79 179.156C124.238 179.156 123.734 179.014 123.278 178.73C122.826 178.446 122.464 178.066 122.192 177.59C121.924 177.11 121.79 176.58 121.79 176C121.79 175.56 121.868 175.15 122.024 174.77C122.18 174.386 122.394 174.05 122.666 173.762C122.942 173.47 123.262 173.242 123.626 173.078C123.99 172.914 124.378 172.832 124.79 172.832C125.342 172.832 125.844 172.974 126.296 173.258C126.752 173.542 127.114 173.924 127.382 174.404C127.654 174.884 127.79 175.416 127.79 176C127.79 176.436 127.712 176.844 127.556 177.224C127.4 177.604 127.184 177.94 126.908 178.232C126.636 178.52 126.318 178.746 125.954 178.91C125.594 179.074 125.206 179.156 124.79 179.156ZM124.79 177.908C125.122 177.908 125.42 177.82 125.684 177.644C125.948 177.468 126.156 177.236 126.308 176.948C126.464 176.656 126.542 176.34 126.542 176C126.542 175.652 126.462 175.332 126.302 175.04C126.146 174.748 125.936 174.516 125.672 174.344C125.408 174.168 125.114 174.08 124.79 174.08C124.462 174.08 124.164 174.168 123.896 174.344C123.632 174.52 123.422 174.754 123.266 175.046C123.114 175.338 123.038 175.656 123.038 176C123.038 176.356 123.118 176.678 123.278 176.966C123.438 177.254 123.65 177.484 123.914 177.656C124.182 177.824 124.474 177.908 124.79 177.908ZM132.665 177.296L133.781 177.902C133.509 178.282 133.163 178.586 132.743 178.814C132.327 179.042 131.875 179.156 131.387 179.156C130.835 179.156 130.331 179.014 129.875 178.73C129.423 178.446 129.061 178.066 128.789 177.59C128.521 177.11 128.387 176.58 128.387 176C128.387 175.56 128.465 175.15 128.621 174.77C128.777 174.386 128.991 174.05 129.263 173.762C129.539 173.47 129.859 173.242 130.223 173.078C130.587 172.914 130.975 172.832 131.387 172.832C131.875 172.832 132.327 172.946 132.743 173.174C133.163 173.402 133.509 173.708 133.781 174.092L132.665 174.698C132.497 174.498 132.301 174.346 132.077 174.242C131.853 174.134 131.623 174.08 131.387 174.08C131.059 174.08 130.761 174.17 130.493 174.35C130.229 174.526 130.019 174.76 129.863 175.052C129.711 175.34 129.635 175.656 129.635 176C129.635 176.34 129.713 176.656 129.869 176.948C130.025 177.236 130.235 177.468 130.499 177.644C130.767 177.82 131.063 177.908 131.387 177.908C131.635 177.908 131.871 177.852 132.095 177.74C132.319 177.628 132.509 177.48 132.665 177.296ZM139.842 179H138.402L136.926 176.456L135.96 177.608V179H134.712V170H135.96V175.67L138.192 173H139.824L137.778 175.442L139.842 179ZM145.569 179.672C145.161 179.276 144.829 178.844 144.573 178.376C144.317 177.904 144.129 177.398 144.009 176.858C143.889 176.318 143.829 175.744 143.829 175.136C143.829 174.836 143.855 174.508 143.907 174.152C143.959 173.796 144.035 173.436 144.135 173.072C144.235 172.708 144.355 172.362 144.495 172.034C144.639 171.706 144.801 171.416 144.981 171.164C145.161 170.912 145.357 170.724 145.569 170.6H146.817C146.637 170.744 146.463 170.942 146.295 171.194C146.127 171.442 145.971 171.726 145.827 172.046C145.683 172.366 145.555 172.704 145.443 173.06C145.331 173.416 145.243 173.772 145.179 174.128C145.115 174.48 145.081 174.816 145.077 175.136C145.085 175.764 145.169 176.36 145.329 176.924C145.493 177.484 145.705 177.998 145.965 178.466C146.229 178.93 146.513 179.332 146.817 179.672H145.569ZM150.65 179.156C150.142 179.156 149.68 179.04 149.264 178.808C148.848 178.576 148.516 178.266 148.268 177.878C148.024 177.486 147.902 177.05 147.902 176.57C147.902 176.166 148.002 175.79 148.202 175.442C148.402 175.094 148.668 174.806 149 174.578C148.732 174.378 148.514 174.126 148.346 173.822C148.178 173.518 148.094 173.19 148.094 172.838C148.094 172.398 148.208 171.998 148.436 171.638C148.668 171.274 148.978 170.984 149.366 170.768C149.754 170.552 150.182 170.444 150.65 170.444C151.118 170.444 151.546 170.552 151.934 170.768C152.322 170.984 152.63 171.274 152.858 171.638C153.09 171.998 153.206 172.398 153.206 172.838C153.206 173.19 153.122 173.518 152.954 173.822C152.79 174.126 152.572 174.378 152.3 174.578C152.64 174.806 152.908 175.094 153.104 175.442C153.304 175.79 153.404 176.166 153.404 176.57C153.404 177.046 153.28 177.48 153.032 177.872C152.784 178.264 152.452 178.576 152.036 178.808C151.62 179.04 151.158 179.156 150.65 179.156ZM150.65 177.908C150.914 177.908 151.154 177.848 151.37 177.728C151.586 177.608 151.758 177.448 151.886 177.248C152.018 177.044 152.084 176.818 152.084 176.57C152.084 176.326 152.018 176.104 151.886 175.904C151.758 175.7 151.586 175.538 151.37 175.418C151.154 175.298 150.914 175.238 150.65 175.238C150.39 175.238 150.15 175.298 149.93 175.418C149.714 175.538 149.54 175.7 149.408 175.904C149.28 176.104 149.216 176.326 149.216 176.57C149.216 176.818 149.28 177.044 149.408 177.248C149.54 177.448 149.714 177.608 149.93 177.728C150.15 177.848 150.39 177.908 150.65 177.908ZM150.65 173.99C150.878 173.99 151.084 173.938 151.268 173.834C151.456 173.73 151.606 173.592 151.718 173.42C151.83 173.244 151.886 173.05 151.886 172.838C151.886 172.626 151.83 172.434 151.718 172.262C151.606 172.09 151.456 171.952 151.268 171.848C151.084 171.744 150.878 171.692 150.65 171.692C150.422 171.692 150.214 171.744 150.026 171.848C149.842 171.952 149.694 172.09 149.582 172.262C149.47 172.434 149.414 172.626 149.414 172.838C149.414 173.05 149.47 173.244 149.582 173.42C149.694 173.592 149.842 173.73 150.026 173.834C150.214 173.938 150.422 173.99 150.65 173.99ZM157.953 179V176.852H154.359V175.598L157.653 170.6H159.201V175.604H159.969V176.852H159.201V179H157.953ZM155.811 175.598L157.953 175.604L157.941 172.322L155.811 175.598ZM164.762 179V176.852H161.168V175.598L164.462 170.6H166.01V175.604H166.778V176.852H166.01V179H164.762ZM162.62 175.598L164.762 175.604L164.75 172.322L162.62 175.598ZM168.096 179.672C168.4 179.332 168.682 178.93 168.942 178.466C169.206 177.998 169.418 177.484 169.578 176.924C169.742 176.36 169.828 175.764 169.836 175.136C169.832 174.816 169.798 174.48 169.734 174.128C169.67 173.772 169.582 173.416 169.47 173.06C169.358 172.704 169.23 172.366 169.086 172.046C168.942 171.726 168.786 171.442 168.618 171.194C168.45 170.942 168.276 170.744 168.096 170.6H169.344C169.556 170.724 169.75 170.912 169.926 171.164C170.106 171.416 170.268 171.706 170.412 172.034C170.556 172.362 170.678 172.708 170.778 173.072C170.878 173.436 170.954 173.796 171.006 174.152C171.058 174.508 171.084 174.836 171.084 175.136C171.084 175.744 171.024 176.318 170.904 176.858C170.788 177.398 170.602 177.904 170.346 178.376C170.09 178.844 169.756 179.276 169.344 179.672H168.096Z" fill="#25262A"/>
<rect x="300" y="167" width="16" height="16" rx="3" fill="#FFC120"/>
<path d="M325.388 173H326.636V179H325.382L325.334 178.13C325.158 178.438 324.92 178.686 324.62 178.874C324.32 179.062 323.966 179.156 323.558 179.156C323.118 179.156 322.704 179.074 322.316 178.91C321.928 178.742 321.586 178.51 321.29 178.214C320.998 177.918 320.77 177.578 320.606 177.194C320.442 176.806 320.36 176.39 320.36 175.946C320.36 175.518 320.44 175.116 320.6 174.74C320.76 174.36 320.982 174.028 321.266 173.744C321.55 173.46 321.878 173.238 322.25 173.078C322.626 172.914 323.028 172.832 323.456 172.832C323.892 172.832 324.276 172.932 324.608 173.132C324.944 173.328 325.222 173.58 325.442 173.888L325.388 173ZM323.528 177.95C323.88 177.95 324.188 177.864 324.452 177.692C324.716 177.516 324.92 177.28 325.064 176.984C325.212 176.688 325.286 176.36 325.286 176C325.286 175.636 325.212 175.306 325.064 175.01C324.916 174.714 324.71 174.48 324.446 174.308C324.186 174.132 323.88 174.044 323.528 174.044C323.18 174.044 322.862 174.132 322.574 174.308C322.286 174.484 322.058 174.72 321.89 175.016C321.722 175.312 321.638 175.64 321.638 176C321.638 176.364 321.724 176.694 321.896 176.99C322.072 177.282 322.302 177.516 322.586 177.692C322.874 177.864 323.188 177.95 323.528 177.95ZM331.043 179H329.441L327.251 172.988H328.583L330.239 177.56L331.901 172.988H333.227L331.043 179ZM338.583 173H339.831V179H338.577L338.529 178.13C338.353 178.438 338.115 178.686 337.815 178.874C337.515 179.062 337.161 179.156 336.753 179.156C336.313 179.156 335.899 179.074 335.511 178.91C335.123 178.742 334.781 178.51 334.485 178.214C334.193 177.918 333.965 177.578 333.801 177.194C333.637 176.806 333.555 176.39 333.555 175.946C333.555 175.518 333.635 175.116 333.795 174.74C333.955 174.36 334.177 174.028 334.461 173.744C334.745 173.46 335.073 173.238 335.445 173.078C335.821 172.914 336.223 172.832 336.651 172.832C337.087 172.832 337.471 172.932 337.803 173.132C338.139 173.328 338.417 173.58 338.637 173.888L338.583 173ZM336.723 177.95C337.075 177.95 337.383 177.864 337.647 177.692C337.911 177.516 338.115 177.28 338.259 176.984C338.407 176.688 338.481 176.36 338.481 176C338.481 175.636 338.407 175.306 338.259 175.01C338.111 174.714 337.905 174.48 337.641 174.308C337.381 174.132 337.075 174.044 336.723 174.044C336.375 174.044 336.057 174.132 335.769 174.308C335.481 174.484 335.253 174.72 335.085 175.016C334.917 175.312 334.833 175.64 334.833 176C334.833 176.364 334.919 176.694 335.091 176.99C335.267 177.282 335.497 177.516 335.781 177.692C336.069 177.864 336.383 177.95 336.723 177.95ZM341.029 173H342.277V179H341.029V173ZM341.665 172.13C341.473 172.13 341.313 172.068 341.185 171.944C341.057 171.82 340.993 171.664 340.993 171.476C340.993 171.292 341.057 171.138 341.185 171.014C341.313 170.886 341.471 170.822 341.659 170.822C341.843 170.822 341.999 170.886 342.127 171.014C342.255 171.138 342.319 171.292 342.319 171.476C342.319 171.664 342.255 171.82 342.127 171.944C342.003 172.068 341.849 172.13 341.665 172.13ZM343.736 179V170H344.984V179H343.736ZM351.005 173H352.253V179H350.999L350.951 178.13C350.775 178.438 350.537 178.686 350.237 178.874C349.937 179.062 349.583 179.156 349.175 179.156C348.735 179.156 348.321 179.074 347.933 178.91C347.545 178.742 347.203 178.51 346.907 178.214C346.615 177.918 346.387 177.578 346.223 177.194C346.059 176.806 345.977 176.39 345.977 175.946C345.977 175.518 346.057 175.116 346.217 174.74C346.377 174.36 346.599 174.028 346.883 173.744C347.167 173.46 347.495 173.238 347.867 173.078C348.243 172.914 348.645 172.832 349.073 172.832C349.509 172.832 349.893 172.932 350.225 173.132C350.561 173.328 350.839 173.58 351.059 173.888L351.005 173ZM349.145 177.95C349.497 177.95 349.805 177.864 350.069 177.692C350.333 177.516 350.537 177.28 350.681 176.984C350.829 176.688 350.903 176.36 350.903 176C350.903 175.636 350.829 175.306 350.681 175.01C350.533 174.714 350.327 174.48 350.063 174.308C349.803 174.132 349.497 174.044 349.145 174.044C348.797 174.044 348.479 174.132 348.191 174.308C347.903 174.484 347.675 174.72 347.507 175.016C347.339 175.312 347.255 175.64 347.255 176C347.255 176.364 347.341 176.694 347.513 176.99C347.689 177.282 347.919 177.516 348.203 177.692C348.491 177.864 348.805 177.95 349.145 177.95ZM356.617 172.832C357.201 172.832 357.731 172.974 358.207 173.258C358.687 173.542 359.069 173.924 359.353 174.404C359.637 174.88 359.779 175.41 359.779 175.994C359.779 176.43 359.697 176.84 359.533 177.224C359.369 177.604 359.141 177.94 358.849 178.232C358.561 178.52 358.225 178.746 357.841 178.91C357.461 179.074 357.053 179.156 356.617 179.156C356.197 179.156 355.829 179.06 355.513 178.868C355.201 178.672 354.945 178.422 354.745 178.118V179H353.497V170H354.745V173.87C354.945 173.562 355.201 173.312 355.513 173.12C355.829 172.928 356.197 172.832 356.617 172.832ZM356.605 177.944C356.953 177.944 357.271 177.856 357.559 177.68C357.847 177.504 358.075 177.268 358.243 176.972C358.415 176.676 358.501 176.35 358.501 175.994C358.501 175.63 358.415 175.3 358.243 175.004C358.071 174.708 357.841 174.474 357.553 174.302C357.265 174.126 356.949 174.038 356.605 174.038C356.257 174.038 355.951 174.126 355.687 174.302C355.423 174.478 355.217 174.714 355.069 175.01C354.921 175.306 354.847 175.634 354.847 175.994C354.847 176.354 354.921 176.682 355.069 176.978C355.217 177.274 355.423 177.51 355.687 177.686C355.951 177.858 356.257 177.944 356.605 177.944ZM360.669 179V170H361.917V179H360.669ZM365.911 179.156C365.359 179.156 364.855 179.014 364.399 178.73C363.947 178.446 363.585 178.066 363.313 177.59C363.045 177.11 362.911 176.58 362.911 176C362.911 175.56 362.989 175.15 363.145 174.77C363.301 174.386 363.515 174.05 363.787 173.762C364.063 173.47 364.383 173.242 364.747 173.078C365.111 172.914 365.499 172.832 365.911 172.832C366.371 172.832 366.793 172.928 367.177 173.12C367.561 173.308 367.889 173.57 368.161 173.906C368.433 174.238 368.633 174.622 368.761 175.058C368.889 175.49 368.927 175.95 368.875 176.438H364.249C364.301 176.714 364.401 176.964 364.549 177.188C364.701 177.408 364.893 177.582 365.125 177.71C365.361 177.838 365.623 177.904 365.911 177.908C366.215 177.908 366.491 177.832 366.739 177.68C366.991 177.528 367.197 177.318 367.357 177.05L368.623 177.344C368.383 177.876 368.021 178.312 367.537 178.652C367.053 178.988 366.511 179.156 365.911 179.156ZM364.207 175.484H367.615C367.575 175.196 367.473 174.936 367.309 174.704C367.149 174.468 366.947 174.282 366.703 174.146C366.463 174.006 366.199 173.936 365.911 173.936C365.627 173.936 365.363 174.004 365.119 174.14C364.879 174.276 364.679 174.462 364.519 174.698C364.363 174.93 364.259 175.192 364.207 175.484ZM374.657 179.114C374.341 179.094 374.033 179.03 373.733 178.922C373.433 178.814 373.169 178.668 372.941 178.484C372.717 178.296 372.549 178.076 372.437 177.824L373.499 177.368C373.551 177.476 373.641 177.582 373.769 177.686C373.901 177.79 374.055 177.876 374.231 177.944C374.407 178.008 374.591 178.04 374.783 178.04C374.971 178.04 375.145 178.014 375.305 177.962C375.469 177.906 375.603 177.822 375.707 177.71C375.811 177.598 375.863 177.464 375.863 177.308C375.863 177.132 375.803 176.996 375.683 176.9C375.567 176.8 375.421 176.724 375.245 176.672C375.069 176.62 374.893 176.57 374.717 176.522C374.325 176.434 373.965 176.314 373.637 176.162C373.313 176.006 373.055 175.808 372.863 175.568C372.671 175.324 372.575 175.026 372.575 174.674C372.575 174.29 372.679 173.958 372.887 173.678C373.095 173.394 373.367 173.176 373.703 173.024C374.043 172.872 374.405 172.796 374.789 172.796C375.269 172.796 375.709 172.898 376.109 173.102C376.509 173.306 376.815 173.586 377.027 173.942L376.037 174.53C375.977 174.41 375.887 174.302 375.767 174.206C375.647 174.11 375.511 174.034 375.359 173.978C375.207 173.918 375.049 173.884 374.885 173.876C374.681 173.868 374.491 173.892 374.315 173.948C374.143 174 374.005 174.084 373.901 174.2C373.797 174.316 373.745 174.464 373.745 174.644C373.745 174.82 373.807 174.952 373.931 175.04C374.055 175.124 374.211 175.192 374.399 175.244C374.591 175.296 374.787 175.354 374.987 175.418C375.343 175.53 375.677 175.668 375.989 175.832C376.301 175.992 376.553 176.19 376.745 176.426C376.937 176.662 377.029 176.95 377.021 177.29C377.021 177.666 376.907 177.996 376.679 178.28C376.455 178.564 376.163 178.78 375.803 178.928C375.443 179.076 375.061 179.138 374.657 179.114ZM381.216 174.248H379.956L379.95 179H378.702L378.708 174.248H377.754V173H378.708L378.702 171.116H379.95L379.956 173H381.216V174.248ZM384.79 179.156C384.238 179.156 383.734 179.014 383.278 178.73C382.826 178.446 382.464 178.066 382.192 177.59C381.924 177.11 381.79 176.58 381.79 176C381.79 175.56 381.868 175.15 382.024 174.77C382.18 174.386 382.394 174.05 382.666 173.762C382.942 173.47 383.262 173.242 383.626 173.078C383.99 172.914 384.378 172.832 384.79 172.832C385.342 172.832 385.844 172.974 386.296 173.258C386.752 173.542 387.114 173.924 387.382 174.404C387.654 174.884 387.79 175.416 387.79 176C387.79 176.436 387.712 176.844 387.556 177.224C387.4 177.604 387.184 177.94 386.908 178.232C386.636 178.52 386.318 178.746 385.954 178.91C385.594 179.074 385.206 179.156 384.79 179.156ZM384.79 177.908C385.122 177.908 385.42 177.82 385.684 177.644C385.948 177.468 386.156 177.236 386.308 176.948C386.464 176.656 386.542 176.34 386.542 176C386.542 175.652 386.462 175.332 386.302 175.04C386.146 174.748 385.936 174.516 385.672 174.344C385.408 174.168 385.114 174.08 384.79 174.08C384.462 174.08 384.164 174.168 383.896 174.344C383.632 174.52 383.422 174.754 383.266 175.046C383.114 175.338 383.038 175.656 383.038 176C383.038 176.356 383.118 176.678 383.278 176.966C383.438 177.254 383.65 177.484 383.914 177.656C384.182 177.824 384.474 177.908 384.79 177.908ZM392.665 177.296L393.781 177.902C393.509 178.282 393.163 178.586 392.743 178.814C392.327 179.042 391.875 179.156 391.387 179.156C390.835 179.156 390.331 179.014 389.875 178.73C389.423 178.446 389.061 178.066 388.789 177.59C388.521 177.11 388.387 176.58 388.387 176C388.387 175.56 388.465 175.15 388.621 174.77C388.777 174.386 388.991 174.05 389.263 173.762C389.539 173.47 389.859 173.242 390.223 173.078C390.587 172.914 390.975 172.832 391.387 172.832C391.875 172.832 392.327 172.946 392.743 173.174C393.163 173.402 393.509 173.708 393.781 174.092L392.665 174.698C392.497 174.498 392.301 174.346 392.077 174.242C391.853 174.134 391.623 174.08 391.387 174.08C391.059 174.08 390.761 174.17 390.493 174.35C390.229 174.526 390.019 174.76 389.863 175.052C389.711 175.34 389.635 175.656 389.635 176C389.635 176.34 389.713 176.656 389.869 176.948C390.025 177.236 390.235 177.468 390.499 177.644C390.767 177.82 391.063 177.908 391.387 177.908C391.635 177.908 391.871 177.852 392.095 177.74C392.319 177.628 392.509 177.48 392.665 177.296ZM399.842 179H398.402L396.926 176.456L395.96 177.608V179H394.712V170H395.96V175.67L398.192 173H399.824L397.778 175.442L399.842 179ZM405.569 179.672C405.161 179.276 404.829 178.844 404.573 178.376C404.317 177.904 404.129 177.398 404.009 176.858C403.889 176.318 403.829 175.744 403.829 175.136C403.829 174.836 403.855 174.508 403.907 174.152C403.959 173.796 404.035 173.436 404.135 173.072C404.235 172.708 404.355 172.362 404.495 172.034C404.639 171.706 404.801 171.416 404.981 171.164C405.161 170.912 405.357 170.724 405.569 170.6H406.817C406.637 170.744 406.463 170.942 406.295 171.194C406.127 171.442 405.971 171.726 405.827 172.046C405.683 172.366 405.555 172.704 405.443 173.06C405.331 173.416 405.243 173.772 405.179 174.128C405.115 174.48 405.081 174.816 405.077 175.136C405.085 175.764 405.169 176.36 405.329 176.924C405.493 177.484 405.705 177.998 405.965 178.466C406.229 178.93 406.513 179.332 406.817 179.672H405.569ZM410.68 179.156C410.148 179.156 409.666 179.028 409.234 178.772C408.806 178.512 408.466 178.168 408.214 177.74C407.966 177.308 407.842 176.836 407.842 176.324H409.09C409.09 176.616 409.162 176.882 409.306 177.122C409.45 177.362 409.642 177.554 409.882 177.698C410.122 177.838 410.388 177.908 410.68 177.908C410.968 177.908 411.232 177.838 411.472 177.698C411.712 177.554 411.904 177.362 412.048 177.122C412.192 176.882 412.264 176.616 412.264 176.324C412.264 176.032 412.198 175.766 412.066 175.526C411.934 175.282 411.736 175.088 411.472 174.944C411.208 174.796 410.872 174.722 410.464 174.722H408.346L409.198 170.6H413.26V171.848H410.212L409.882 173.474L410.608 173.486C411.18 173.498 411.682 173.63 412.114 173.882C412.55 174.13 412.892 174.466 413.14 174.89C413.388 175.31 413.512 175.788 413.512 176.324C413.512 176.712 413.438 177.078 413.29 177.422C413.142 177.762 412.938 178.062 412.678 178.322C412.422 178.582 412.122 178.786 411.778 178.934C411.438 179.082 411.072 179.156 410.68 179.156ZM415.712 179V171.848H414.71L415.052 170.6H416.96V179H415.712ZM418.648 179L422.77 171.848H418.162V170.6H424.216V171.848L420.082 179H418.648ZM425.061 179.672C425.365 179.332 425.647 178.93 425.907 178.466C426.171 177.998 426.383 177.484 426.543 176.924C426.707 176.36 426.793 175.764 426.801 175.136C426.797 174.816 426.763 174.48 426.699 174.128C426.635 173.772 426.547 173.416 426.435 173.06C426.323 172.704 426.195 172.366 426.051 172.046C425.907 171.726 425.751 171.442 425.583 171.194C425.415 170.942 425.241 170.744 425.061 170.6H426.309C426.521 170.724 426.715 170.912 426.891 171.164C427.071 171.416 427.233 171.706 427.377 172.034C427.521 172.362 427.643 172.708 427.743 173.072C427.843 173.436 427.919 173.796 427.971 174.152C428.023 174.508 428.049 174.836 428.049 175.136C428.049 175.744 427.989 176.318 427.869 176.858C427.753 177.398 427.567 177.904 427.311 178.376C427.055 178.844 426.721 179.276 426.309 179.672H425.061Z" fill="#25262A"/>
<rect x="445" y="167" width="16" height="16" rx="3" fill="#EEEFEF"/>
<path d="M468.36 179.156C467.808 179.156 467.304 179.014 466.848 178.73C466.396 178.446 466.034 178.066 465.762 177.59C465.494 177.11 465.36 176.58 465.36 176C465.36 175.56 465.438 175.15 465.594 174.77C465.75 174.386 465.964 174.05 466.236 173.762C466.512 173.47 466.832 173.242 467.196 173.078C467.56 172.914 467.948 172.832 468.36 172.832C468.912 172.832 469.414 172.974 469.866 173.258C470.322 173.542 470.684 173.924 470.952 174.404C471.224 174.884 471.36 175.416 471.36 176C471.36 176.436 471.282 176.844 471.126 177.224C470.97 177.604 470.754 177.94 470.478 178.232C470.206 178.52 469.888 178.746 469.524 178.91C469.164 179.074 468.776 179.156 468.36 179.156ZM468.36 177.908C468.692 177.908 468.99 177.82 469.254 177.644C469.518 177.468 469.726 177.236 469.878 176.948C470.034 176.656 470.112 176.34 470.112 176C470.112 175.652 470.032 175.332 469.872 175.04C469.716 174.748 469.506 174.516 469.242 174.344C468.978 174.168 468.684 174.08 468.36 174.08C468.032 174.08 467.734 174.168 467.466 174.344C467.202 174.52 466.992 174.754 466.836 175.046C466.684 175.338 466.608 175.656 466.608 176C466.608 176.356 466.688 176.678 466.848 176.966C467.008 177.254 467.22 177.484 467.484 177.656C467.752 177.824 468.044 177.908 468.36 177.908ZM471.972 176.75V173H473.22V176.444C473.22 176.712 473.286 176.956 473.418 177.176C473.55 177.396 473.726 177.572 473.946 177.704C474.166 177.832 474.408 177.896 474.672 177.896C474.94 177.896 475.182 177.832 475.398 177.704C475.618 177.572 475.792 177.396 475.92 177.176C476.052 176.956 476.118 176.712 476.118 176.444V173H477.366L477.372 179H476.124L476.118 178.352C475.914 178.6 475.66 178.796 475.356 178.94C475.052 179.084 474.726 179.156 474.378 179.156C473.934 179.156 473.53 179.048 473.166 178.832C472.802 178.616 472.512 178.326 472.296 177.962C472.08 177.598 471.972 177.194 471.972 176.75ZM481.743 174.248H480.483L480.477 179H479.229L479.235 174.248H478.281V173H479.235L479.229 171.116H480.477L480.483 173H481.743V174.248ZM488.34 179.156C487.788 179.156 487.284 179.014 486.828 178.73C486.376 178.446 486.014 178.066 485.742 177.59C485.474 177.11 485.34 176.58 485.34 176C485.34 175.56 485.418 175.15 485.574 174.77C485.73 174.386 485.944 174.05 486.216 173.762C486.492 173.47 486.812 173.242 487.176 173.078C487.54 172.914 487.928 172.832 488.34 172.832C488.892 172.832 489.394 172.974 489.846 173.258C490.302 173.542 490.664 173.924 490.932 174.404C491.204 174.884 491.34 175.416 491.34 176C491.34 176.436 491.262 176.844 491.106 177.224C490.95 177.604 490.734 177.94 490.458 178.232C490.186 178.52 489.868 178.746 489.504 178.91C489.144 179.074 488.756 179.156 488.34 179.156ZM488.34 177.908C488.672 177.908 488.97 177.82 489.234 177.644C489.498 177.468 489.706 177.236 489.858 176.948C490.014 176.656 490.092 176.34 490.092 176C490.092 175.652 490.012 175.332 489.852 175.04C489.696 174.748 489.486 174.516 489.222 174.344C488.958 174.168 488.664 174.08 488.34 174.08C488.012 174.08 487.714 174.168 487.446 174.344C487.182 174.52 486.972 174.754 486.816 175.046C486.664 175.338 486.588 175.656 486.588 176C486.588 176.356 486.668 176.678 486.828 176.966C486.988 177.254 487.2 177.484 487.464 177.656C487.732 177.824 488.024 177.908 488.34 177.908ZM493.957 171.638V173H495.649V174.248H493.957V179H492.709V174.248H491.995V173H492.709V171.638C492.709 171.31 492.789 171.012 492.949 170.744C493.109 170.472 493.323 170.256 493.591 170.096C493.863 169.936 494.165 169.856 494.497 169.856C494.737 169.856 494.971 169.904 495.199 170C495.427 170.096 495.631 170.244 495.811 170.444L494.917 171.326C494.873 171.254 494.811 171.2 494.731 171.164C494.655 171.124 494.577 171.104 494.497 171.104C494.349 171.104 494.221 171.156 494.113 171.26C494.009 171.364 493.957 171.49 493.957 171.638ZM501.34 179.114C501.024 179.094 500.716 179.03 500.416 178.922C500.116 178.814 499.852 178.668 499.624 178.484C499.4 178.296 499.232 178.076 499.12 177.824L500.182 177.368C500.234 177.476 500.324 177.582 500.452 177.686C500.584 177.79 500.738 177.876 500.914 177.944C501.09 178.008 501.274 178.04 501.466 178.04C501.654 178.04 501.828 178.014 501.988 177.962C502.152 177.906 502.286 177.822 502.39 177.71C502.494 177.598 502.546 177.464 502.546 177.308C502.546 177.132 502.486 176.996 502.366 176.9C502.25 176.8 502.104 176.724 501.928 176.672C501.752 176.62 501.576 176.57 501.4 176.522C501.008 176.434 500.648 176.314 500.32 176.162C499.996 176.006 499.738 175.808 499.546 175.568C499.354 175.324 499.258 175.026 499.258 174.674C499.258 174.29 499.362 173.958 499.57 173.678C499.778 173.394 500.05 173.176 500.386 173.024C500.726 172.872 501.088 172.796 501.472 172.796C501.952 172.796 502.392 172.898 502.792 173.102C503.192 173.306 503.498 173.586 503.71 173.942L502.72 174.53C502.66 174.41 502.57 174.302 502.45 174.206C502.33 174.11 502.194 174.034 502.042 173.978C501.89 173.918 501.732 173.884 501.568 173.876C501.364 173.868 501.174 173.892 500.998 173.948C500.826 174 500.688 174.084 500.584 174.2C500.48 174.316 500.428 174.464 500.428 174.644C500.428 174.82 500.49 174.952 500.614 175.04C500.738 175.124 500.894 175.192 501.082 175.244C501.274 175.296 501.47 175.354 501.67 175.418C502.026 175.53 502.36 175.668 502.672 175.832C502.984 175.992 503.236 176.19 503.428 176.426C503.62 176.662 503.712 176.95 503.704 177.29C503.704 177.666 503.59 177.996 503.362 178.28C503.138 178.564 502.846 178.78 502.486 178.928C502.126 179.076 501.744 179.138 501.34 179.114ZM507.9 174.248H506.64L506.634 179H505.386L505.392 174.248H504.438V173H505.392L505.386 171.116H506.634L506.64 173H507.9V174.248ZM511.473 179.156C510.921 179.156 510.417 179.014 509.961 178.73C509.509 178.446 509.147 178.066 508.875 177.59C508.607 177.11 508.473 176.58 508.473 176C508.473 175.56 508.551 175.15 508.707 174.77C508.863 174.386 509.077 174.05 509.349 173.762C509.625 173.47 509.945 173.242 510.309 173.078C510.673 172.914 511.061 172.832 511.473 172.832C512.025 172.832 512.527 172.974 512.979 173.258C513.435 173.542 513.797 173.924 514.065 174.404C514.337 174.884 514.473 175.416 514.473 176C514.473 176.436 514.395 176.844 514.239 177.224C514.083 177.604 513.867 177.94 513.591 178.232C513.319 178.52 513.001 178.746 512.637 178.91C512.277 179.074 511.889 179.156 511.473 179.156ZM511.473 177.908C511.805 177.908 512.103 177.82 512.367 177.644C512.631 177.468 512.839 177.236 512.991 176.948C513.147 176.656 513.225 176.34 513.225 176C513.225 175.652 513.145 175.332 512.985 175.04C512.829 174.748 512.619 174.516 512.355 174.344C512.091 174.168 511.797 174.08 511.473 174.08C511.145 174.08 510.847 174.168 510.579 174.344C510.315 174.52 510.105 174.754 509.949 175.046C509.797 175.338 509.721 175.656 509.721 176C509.721 176.356 509.801 176.678 509.961 176.966C510.121 177.254 510.333 177.484 510.597 177.656C510.865 177.824 511.157 177.908 511.473 177.908ZM519.349 177.296L520.465 177.902C520.193 178.282 519.847 178.586 519.427 178.814C519.011 179.042 518.559 179.156 518.071 179.156C517.519 179.156 517.015 179.014 516.559 178.73C516.107 178.446 515.745 178.066 515.473 177.59C515.205 177.11 515.071 176.58 515.071 176C515.071 175.56 515.149 175.15 515.305 174.77C515.461 174.386 515.675 174.05 515.947 173.762C516.223 173.47 516.543 173.242 516.907 173.078C517.271 172.914 517.659 172.832 518.071 172.832C518.559 172.832 519.011 172.946 519.427 173.174C519.847 173.402 520.193 173.708 520.465 174.092L519.349 174.698C519.181 174.498 518.985 174.346 518.761 174.242C518.537 174.134 518.307 174.08 518.071 174.08C517.743 174.08 517.445 174.17 517.177 174.35C516.913 174.526 516.703 174.76 516.547 175.052C516.395 175.34 516.319 175.656 516.319 176C516.319 176.34 516.397 176.656 516.553 176.948C516.709 177.236 516.919 177.468 517.183 177.644C517.451 177.82 517.747 177.908 518.071 177.908C518.319 177.908 518.555 177.852 518.779 177.74C519.003 177.628 519.193 177.48 519.349 177.296ZM526.526 179H525.086L523.61 176.456L522.644 177.608V179H521.396V170H522.644V175.67L524.876 173H526.508L524.462 175.442L526.526 179ZM532.253 179.672C531.845 179.276 531.513 178.844 531.257 178.376C531.001 177.904 530.813 177.398 530.693 176.858C530.573 176.318 530.513 175.744 530.513 175.136C530.513 174.836 530.539 174.508 530.591 174.152C530.643 173.796 530.719 173.436 530.819 173.072C530.919 172.708 531.039 172.362 531.179 172.034C531.323 171.706 531.485 171.416 531.665 171.164C531.845 170.912 532.041 170.724 532.253 170.6H533.501C533.321 170.744 533.147 170.942 532.979 171.194C532.811 171.442 532.655 171.726 532.511 172.046C532.367 172.366 532.239 172.704 532.127 173.06C532.015 173.416 531.927 173.772 531.863 174.128C531.799 174.48 531.765 174.816 531.761 175.136C531.769 175.764 531.853 176.36 532.013 176.924C532.177 177.484 532.389 177.998 532.649 178.466C532.913 178.93 533.197 179.332 533.501 179.672H532.253ZM538.179 179V176.852H534.585V175.598L537.879 170.6H539.427V175.604H540.195V176.852H539.427V179H538.179ZM536.037 175.598L538.179 175.604L538.167 172.322L536.037 175.598ZM544.169 179.156C543.673 179.156 543.225 179.044 542.825 178.82C542.429 178.592 542.087 178.278 541.799 177.878C541.511 177.478 541.291 177.016 541.139 176.492C540.987 175.964 540.911 175.4 540.911 174.8C540.911 174.2 540.987 173.636 541.139 173.108C541.291 172.58 541.511 172.118 541.799 171.722C542.087 171.322 542.429 171.01 542.825 170.786C543.225 170.558 543.673 170.444 544.169 170.444C544.657 170.444 545.101 170.558 545.501 170.786C545.901 171.01 546.241 171.322 546.521 171.722C546.805 172.118 547.023 172.58 547.175 173.108C547.327 173.636 547.403 174.2 547.403 174.8C547.403 175.4 547.327 175.964 547.175 176.492C547.023 177.016 546.805 177.478 546.521 177.878C546.241 178.278 545.901 178.592 545.501 178.82C545.101 179.044 544.657 179.156 544.169 179.156ZM544.169 177.908C544.629 177.908 545.011 177.764 545.315 177.476C545.623 177.184 545.853 176.802 546.005 176.33C546.157 175.858 546.233 175.348 546.233 174.8C546.233 174.224 546.153 173.702 545.993 173.234C545.837 172.762 545.605 172.388 545.297 172.112C544.993 171.832 544.617 171.692 544.169 171.692C543.813 171.692 543.503 171.776 543.239 171.944C542.979 172.112 542.763 172.342 542.591 172.634C542.423 172.926 542.295 173.258 542.207 173.63C542.123 174.002 542.081 174.392 542.081 174.8C542.081 175.348 542.159 175.858 542.315 176.33C542.471 176.802 542.703 177.184 543.011 177.476C543.323 177.764 543.709 177.908 544.169 177.908ZM550.986 179.156C550.478 179.156 550.016 179.04 549.6 178.808C549.184 178.576 548.852 178.266 548.604 177.878C548.36 177.486 548.238 177.05 548.238 176.57C548.238 176.166 548.338 175.79 548.538 175.442C548.738 175.094 549.004 174.806 549.336 174.578C549.068 174.378 548.85 174.126 548.682 173.822C548.514 173.518 548.43 173.19 548.43 172.838C548.43 172.398 548.544 171.998 548.772 171.638C549.004 171.274 549.314 170.984 549.702 170.768C550.09 170.552 550.518 170.444 550.986 170.444C551.454 170.444 551.882 170.552 552.27 170.768C552.658 170.984 552.966 171.274 553.194 171.638C553.426 171.998 553.542 172.398 553.542 172.838C553.542 173.19 553.458 173.518 553.29 173.822C553.126 174.126 552.908 174.378 552.636 174.578C552.976 174.806 553.244 175.094 553.44 175.442C553.64 175.79 553.74 176.166 553.74 176.57C553.74 177.046 553.616 177.48 553.368 177.872C553.12 178.264 552.788 178.576 552.372 178.808C551.956 179.04 551.494 179.156 550.986 179.156ZM550.986 177.908C551.25 177.908 551.49 177.848 551.706 177.728C551.922 177.608 552.094 177.448 552.222 177.248C552.354 177.044 552.42 176.818 552.42 176.57C552.42 176.326 552.354 176.104 552.222 175.904C552.094 175.7 551.922 175.538 551.706 175.418C551.49 175.298 551.25 175.238 550.986 175.238C550.726 175.238 550.486 175.298 550.266 175.418C550.05 175.538 549.876 175.7 549.744 175.904C549.616 176.104 549.552 176.326 549.552 176.57C549.552 176.818 549.616 177.044 549.744 177.248C549.876 177.448 550.05 177.608 550.266 177.728C550.486 177.848 550.726 177.908 550.986 177.908ZM550.986 173.99C551.214 173.99 551.42 173.938 551.604 173.834C551.792 173.73 551.942 173.592 552.054 173.42C552.166 173.244 552.222 173.05 552.222 172.838C552.222 172.626 552.166 172.434 552.054 172.262C551.942 172.09 551.792 171.952 551.604 171.848C551.42 171.744 551.214 171.692 550.986 171.692C550.758 171.692 550.55 171.744 550.362 171.848C550.178 171.952 550.03 172.09 549.918 172.262C549.806 172.434 549.75 172.626 549.75 172.838C549.75 173.05 549.806 173.244 549.918 173.42C550.03 173.592 550.178 173.73 550.362 173.834C550.55 173.938 550.758 173.99 550.986 173.99ZM554.815 179.672C555.119 179.332 555.401 178.93 555.661 178.466C555.925 177.998 556.137 177.484 556.297 176.924C556.461 176.36 556.547 175.764 556.555 175.136C556.551 174.816 556.517 174.48 556.453 174.128C556.389 173.772 556.301 173.416 556.189 173.06C556.077 172.704 555.949 172.366 555.805 172.046C555.661 171.726 555.505 171.442 555.337 171.194C555.169 170.942 554.995 170.744 554.815 170.6H556.063C556.275 170.724 556.469 170.912 556.645 171.164C556.825 171.416 556.987 171.706 557.131 172.034C557.275 172.362 557.397 172.708 557.497 173.072C557.597 173.436 557.673 173.796 557.725 174.152C557.777 174.508 557.803 174.836 557.803 175.136C557.803 175.744 557.743 176.318 557.623 176.858C557.507 177.398 557.321 177.904 557.065 178.376C556.809 178.844 556.475 179.276 556.063 179.672H554.815Z" fill="#25262A"/>
<rect width="288" height="108" transform="translate(314 16)" fill="white"/>
<mask id="path-14-inside-1_430_577" fill="white">
<path d="M314 16H350V52H314V16Z"/>
</mask>
<path d="M314 16H350V52H314V16Z" fill="white"/>
<path d="M350 52V52.5H350.5V52H350ZM314 52H313.5V52.5H314V52ZM349.5 16V52H350.5V16H349.5ZM350 51.5H314V52.5H350V51.5ZM314.5 52V16H313.5V52H314.5Z" fill="#FEF2E6" mask="url(#path-14-inside-1_430_577)"/>
<mask id="path-16-inside-2_430_577" fill="white">
<path d="M350 16H386V52H350V16Z"/>
</mask>
<path d="M350 16H386V52H350V16Z" fill="white"/>
<path d="M386 52V52.5H386.5V52H386ZM385.5 16V52H386.5V16H385.5ZM386 51.5H350V52.5H386V51.5Z" fill="#FEF2E6" mask="url(#path-16-inside-2_430_577)"/>
<mask id="path-18-inside-3_430_577" fill="white">
<path d="M386 16H422V52H386V16Z"/>
</mask>
<path d="M386 16H422V52H386V16Z" fill="white"/>
<path d="M422 52V52.5H422.5V52H422ZM421.5 16V52H422.5V16H421.5ZM422 51.5H386V52.5H422V51.5Z" fill="#FEF2E6" mask="url(#path-18-inside-3_430_577)"/>
<mask id="path-20-inside-4_430_577" fill="white">
<path d="M422 16H458V52H422V16Z"/>
</mask>
<path d="M422 16H458V52H422V16Z" fill="white"/>
<path d="M458 52V52.5H458.5V52H458ZM457.5 16V52H458.5V16H457.5ZM458 51.5H422V52.5H458V51.5Z" fill="#FEF2E6" mask="url(#path-20-inside-4_430_577)"/>
<path d="M458 16H494V52H458V16Z" fill="#FEF2E6"/>
<mask id="path-23-inside-5_430_577" fill="white">
<path d="M494 16H530V52H494V16Z"/>
</mask>
<path d="M494 16H530V52H494V16Z" fill="white"/>
<path d="M530 52V52.5H530.5V52H530ZM529.5 16V52H530.5V16H529.5ZM530 51.5H494V52.5H530V51.5Z" fill="#FEF2E6" mask="url(#path-23-inside-5_430_577)"/>
<mask id="path-25-inside-6_430_577" fill="white">
<path d="M530 16H566V52H530V16Z"/>
</mask>
<path d="M530 16H566V52H530V16Z" fill="white"/>
<path d="M566 52V52.5H566.5V52H566ZM565.5 16V52H566.5V16H565.5ZM566 51.5H530V52.5H566V51.5Z" fill="#FEF2E6" mask="url(#path-25-inside-6_430_577)"/>
<mask id="path-27-inside-7_430_577" fill="white">
<path d="M566 16H602V52H566V16Z"/>
</mask>
<path d="M566 16H602V52H566V16Z" fill="white"/>
<path d="M602 51.5H566V52.5H602V51.5Z" fill="#FEF2E6" mask="url(#path-27-inside-7_430_577)"/>
<mask id="path-29-inside-8_430_577" fill="white">
<path d="M314 52H350V88H314V52Z"/>
</mask>
<path d="M314 52H350V88H314V52Z" fill="white"/>
<path d="M349.5 52V88H350.5V52H349.5Z" fill="#FEF2E6" mask="url(#path-29-inside-8_430_577)"/>
<mask id="path-31-inside-9_430_577" fill="white">
<path d="M350 52H386V88H350V52Z"/>
</mask>
<path d="M350 52H386V88H350V52Z" fill="white"/>
<path d="M386 88V88.5H386.5V88H386ZM385.5 52V88H386.5V52H385.5ZM386 87.5H350V88.5H386V87.5Z" fill="#FEF2E6" mask="url(#path-31-inside-9_430_577)"/>
<path d="M386 52H422V88H386V52Z" fill="#FEF2E6"/>
<mask id="path-34-inside-10_430_577" fill="white">
<path d="M422 52H458V88H422V52Z"/>
</mask>
<path d="M422 52H458V88H422V52Z" fill="white"/>
<path d="M458 88V88.5H458.5V88H458ZM457.5 52V88H458.5V52H457.5ZM458 87.5H422V88.5H458V87.5Z" fill="#FEF2E6" mask="url(#path-34-inside-10_430_577)"/>
<mask id="path-36-inside-11_430_577" fill="white">
<path d="M458 52H494V88H458V52Z"/>
</mask>
<path d="M458 52H494V88H458V52Z" fill="white"/>
<path d="M494 88V88.5H494.5V88H494ZM493.5 52V88H494.5V52H493.5ZM494 87.5H458V88.5H494V87.5Z" fill="#FEF2E6" mask="url(#path-36-inside-11_430_577)"/>
<mask id="path-38-inside-12_430_577" fill="white">
<path d="M494 52H530V88H494V52Z"/>
</mask>
<path d="M494 52H530V88H494V52Z" fill="white"/>
<path d="M530 88V88.5H530.5V88H530ZM529.5 52V88H530.5V52H529.5ZM530 87.5H494V88.5H530V87.5Z" fill="#FEF2E6" mask="url(#path-38-inside-12_430_577)"/>
<mask id="path-40-inside-13_430_577" fill="white">
<path d="M530 52H566V88H530V52Z"/>
</mask>
<path d="M530 52H566V88H530V52Z" fill="white"/>
<path d="M566 88V88.5H566.5V88H566ZM565.5 52V88H566.5V52H565.5ZM566 87.5H530V88.5H566V87.5Z" fill="#FEF2E6" mask="url(#path-40-inside-13_430_577)"/>
<mask id="path-42-inside-14_430_577" fill="white">
<path d="M566 52H602V88H566V52Z"/>
</mask>
<path d="M566 52H602V88H566V52Z" fill="white"/>
<path d="M602 87.5H566V88.5H602V87.5Z" fill="#FEF2E6" mask="url(#path-42-inside-14_430_577)"/>
<path d="M314 88H350V124H314V88Z" fill="white"/>
<mask id="path-45-inside-15_430_577" fill="white">
<path d="M350 88H386V124H350V88Z"/>
</mask>
<path d="M350 88H386V124H350V88Z" fill="white"/>
<path d="M385.5 88V124H386.5V88H385.5Z" fill="#FEF2E6" mask="url(#path-45-inside-15_430_577)"/>
<mask id="path-47-inside-16_430_577" fill="white">
<path d="M386 88H422V124H386V88Z"/>
</mask>
<path d="M386 88H422V124H386V88Z" fill="white"/>
<path d="M422 124V124.5H422.5V124H422ZM421.5 88V124H422.5V88H421.5ZM422 123.5H386V124.5H422V123.5Z" fill="#FEF2E6" mask="url(#path-47-inside-16_430_577)"/>
<mask id="path-49-inside-17_430_577" fill="white">
<path d="M422 88H458V124H422V88Z"/>
</mask>
<path d="M422 88H458V124H422V88Z" fill="white"/>
<path d="M458 124V124.5H458.5V124H458ZM457.5 88V124H458.5V88H457.5ZM458 123.5H422V124.5H458V123.5Z" fill="#FEF2E6" mask="url(#path-49-inside-17_430_577)"/>
<mask id="path-51-inside-18_430_577" fill="white">
<path d="M458 88H494V124H458V88Z"/>
</mask>
<path d="M458 88H494V124H458V88Z" fill="white"/>
<path d="M494 124V124.5H494.5V124H494ZM493.5 88V124H494.5V88H493.5ZM494 123.5H458V124.5H494V123.5Z" fill="#FEF2E6" mask="url(#path-51-inside-18_430_577)"/>
<path d="M494 88H530V124H494V88Z" fill="#FEF2E6"/>
<mask id="path-54-inside-19_430_577" fill="white">
<path d="M530 88H566V124H530V88Z"/>
</mask>
<path d="M530 88H566V124H530V88Z" fill="white"/>
<path d="M566 124V124.5H566.5V124H566ZM565.5 88V124H566.5V88H565.5ZM566 123.5H530V124.5H566V123.5Z" fill="#FEF2E6" mask="url(#path-54-inside-19_430_577)"/>
<mask id="path-56-inside-20_430_577" fill="white">
<path d="M566 88H602V124H566V88Z"/>
</mask>
<path d="M566 88H602V124H566V88Z" fill="white"/>
<path d="M602 123.5H566V124.5H602V123.5Z" fill="#FEF2E6" mask="url(#path-56-inside-20_430_577)"/>
<g filter="url(#filter1_f_430_577)">
<path d="M314 16H602V124H314V16Z" fill="url(#paint0_linear_430_577)"/>
</g>
<path d="M44.992 58.208C44.3733 58.208 43.7787 58.112 43.208 57.92C42.6427 57.7227 42.1467 57.4427 41.72 57.08C41.2933 56.712 40.9867 56.272 40.8 55.76L42.632 55.088C42.7067 55.3013 42.8587 55.496 43.088 55.672C43.3173 55.848 43.5973 55.9893 43.928 56.096C44.2587 56.2027 44.6133 56.256 44.992 56.256C45.3813 56.256 45.744 56.1973 46.08 56.08C46.4213 55.9573 46.696 55.7893 46.904 55.576C47.112 55.3573 47.216 55.104 47.216 54.816C47.216 54.5227 47.1067 54.2827 46.888 54.096C46.6693 53.904 46.3893 53.752 46.048 53.64C45.7067 53.528 45.3547 53.4427 44.992 53.384C44.1973 53.2613 43.4853 53.072 42.856 52.816C42.2267 52.56 41.728 52.2053 41.36 51.752C40.9973 51.2987 40.816 50.712 40.816 49.992C40.816 49.3147 41.0107 48.7227 41.4 48.216C41.7893 47.7093 42.3013 47.3147 42.936 47.032C43.5707 46.7493 44.256 46.608 44.992 46.608C45.6053 46.608 46.1973 46.704 46.768 46.896C47.3387 47.088 47.8373 47.368 48.264 47.736C48.696 48.104 49.0053 48.5467 49.192 49.064L47.352 49.728C47.2773 49.5147 47.1253 49.32 46.896 49.144C46.6667 48.968 46.3867 48.8293 46.056 48.728C45.7253 48.6213 45.3707 48.568 44.992 48.568C44.6133 48.5627 44.2533 48.624 43.912 48.752C43.576 48.8747 43.3013 49.0427 43.088 49.256C42.8747 49.4693 42.768 49.7147 42.768 49.992C42.768 50.3493 42.8667 50.6187 43.064 50.8C43.2667 50.9813 43.536 51.1147 43.872 51.2C44.208 51.28 44.5813 51.3547 44.992 51.424C45.7387 51.5413 46.4293 51.7387 47.064 52.016C47.6987 52.2933 48.208 52.664 48.592 53.128C48.976 53.5867 49.168 54.1493 49.168 54.816C49.168 55.4933 48.976 56.088 48.592 56.6C48.208 57.1067 47.6987 57.5013 47.064 57.784C46.4293 58.0667 45.7387 58.208 44.992 58.208ZM55.0449 51.952H53.4929V58H51.5409V51.952H50.3569V50H51.5409V47.488H53.4929V50H55.0449V51.952ZM59.8238 58.208C59.0878 58.208 58.4158 58.0187 57.8078 57.64C57.2051 57.2613 56.7224 56.7547 56.3598 56.12C56.0024 55.48 55.8238 54.7733 55.8238 54C55.8238 53.4133 55.9278 52.8667 56.1358 52.36C56.3438 51.848 56.6291 51.4 56.9918 51.016C57.3598 50.6267 57.7864 50.3227 58.2718 50.104C58.7571 49.8853 59.2744 49.776 59.8238 49.776C60.5598 49.776 61.2291 49.9653 61.8318 50.344C62.4398 50.7227 62.9224 51.232 63.2798 51.872C63.6424 52.512 63.8238 53.2213 63.8238 54C63.8238 54.5813 63.7198 55.1253 63.5118 55.632C63.3038 56.1387 63.0158 56.5867 62.6478 56.976C62.2851 57.36 61.8611 57.6613 61.3758 57.88C60.8958 58.0987 60.3784 58.208 59.8238 58.208ZM59.8238 56.256C60.2131 56.256 60.5624 56.152 60.8718 55.944C61.1811 55.736 61.4238 55.4613 61.5998 55.12C61.7811 54.7787 61.8718 54.4053 61.8718 54C61.8718 53.584 61.7784 53.2053 61.5918 52.864C61.4104 52.5173 61.1624 52.2427 60.8478 52.04C60.5384 51.832 60.1971 51.728 59.8238 51.728C59.4398 51.728 59.0931 51.832 58.7838 52.04C58.4744 52.248 58.2291 52.5253 58.0478 52.872C57.8664 53.2187 57.7758 53.5947 57.7758 54C57.7758 54.4213 57.8691 54.8027 58.0558 55.144C58.2424 55.4853 58.4904 55.7573 58.7998 55.96C59.1144 56.1573 59.4558 56.256 59.8238 56.256ZM70.0606 55.592L71.8206 56.544C71.4526 57.0453 70.9913 57.448 70.4366 57.752C69.882 58.056 69.2766 58.208 68.6206 58.208C67.8846 58.208 67.2126 58.0187 66.6046 57.64C66.002 57.2613 65.5193 56.7547 65.1566 56.12C64.7993 55.48 64.6206 54.7733 64.6206 54C64.6206 53.4133 64.7246 52.8667 64.9326 52.36C65.1406 51.848 65.426 51.4 65.7886 51.016C66.1566 50.6267 66.5833 50.3227 67.0686 50.104C67.554 49.8853 68.0713 49.776 68.6206 49.776C69.2766 49.776 69.882 49.928 70.4366 50.232C70.9913 50.536 71.4526 50.944 71.8206 51.456L70.0606 52.4C69.874 52.1867 69.6526 52.0213 69.3966 51.904C69.146 51.7867 68.8873 51.728 68.6206 51.728C68.2366 51.728 67.89 51.8347 67.5806 52.048C67.2713 52.256 67.026 52.5333 66.8446 52.88C66.6633 53.2213 66.5726 53.5947 66.5726 54C66.5726 54.4 66.6633 54.7733 66.8446 55.12C67.026 55.4613 67.2713 55.736 67.5806 55.944C67.89 56.152 68.2366 56.256 68.6206 56.256C68.898 56.256 69.162 56.1973 69.4126 56.08C69.6633 55.9573 69.8793 55.7947 70.0606 55.592ZM80.1509 58H77.9029L76.0789 54.856L74.9589 56.192V58H73.0069V46H74.9589V53.16L77.6069 50H80.1589L77.4149 53.272L80.1509 58ZM89.1571 46.8H91.4051L95.4771 58H93.4051L92.6851 56.016H87.8851L87.1651 58H85.0931L89.1571 46.8ZM88.5971 54.064H91.9651L90.2771 49.448L88.5971 54.064ZM100.709 58H98.1889L95.2769 49.992H97.3569L99.4529 55.752L101.541 49.992H103.621L100.709 58ZM110.523 50H112.475V58H110.523L110.435 57.008C110.217 57.3653 109.926 57.656 109.563 57.88C109.206 58.0987 108.782 58.208 108.291 58.208C107.699 58.208 107.145 58.096 106.627 57.872C106.11 57.648 105.654 57.3387 105.259 56.944C104.87 56.5493 104.563 56.0933 104.339 55.576C104.121 55.0587 104.011 54.504 104.011 53.912C104.011 53.3413 104.115 52.8053 104.323 52.304C104.537 51.8027 104.833 51.3627 105.211 50.984C105.59 50.6053 106.027 50.3093 106.523 50.096C107.019 49.8827 107.553 49.776 108.123 49.776C108.651 49.776 109.123 49.8933 109.539 50.128C109.961 50.3627 110.318 50.6613 110.611 51.024L110.523 50ZM108.243 56.328C108.659 56.328 109.027 56.224 109.347 56.016C109.667 55.808 109.918 55.528 110.099 55.176C110.281 54.8187 110.371 54.4267 110.371 54C110.371 53.568 110.281 53.176 110.099 52.824C109.918 52.4667 109.665 52.184 109.339 51.976C109.019 51.768 108.654 51.664 108.243 51.664C107.833 51.664 107.457 51.7707 107.115 51.984C106.779 52.192 106.51 52.472 106.307 52.824C106.11 53.176 106.011 53.568 106.011 54C106.011 54.432 106.113 54.824 106.315 55.176C106.518 55.528 106.787 55.808 107.123 56.016C107.465 56.224 107.838 56.328 108.243 56.328ZM114.069 50H116.021V58H114.069V50ZM115.061 48.968C114.773 48.968 114.531 48.8747 114.333 48.688C114.136 48.496 114.037 48.256 114.037 47.968C114.037 47.6853 114.136 47.448 114.333 47.256C114.531 47.064 114.771 46.968 115.053 46.968C115.336 46.968 115.573 47.064 115.765 47.256C115.963 47.448 116.061 47.6853 116.061 47.968C116.061 48.256 115.965 48.496 115.773 48.688C115.581 48.8747 115.344 48.968 115.061 48.968ZM117.976 58V46H119.928V58H117.976ZM127.758 50H129.71V58H127.758L127.67 57.008C127.451 57.3653 127.16 57.656 126.798 57.88C126.44 58.0987 126.016 58.208 125.526 58.208C124.934 58.208 124.379 58.096 123.862 57.872C123.344 57.648 122.888 57.3387 122.494 56.944C122.104 56.5493 121.798 56.0933 121.574 55.576C121.355 55.0587 121.246 54.504 121.246 53.912C121.246 53.3413 121.35 52.8053 121.558 52.304C121.771 51.8027 122.067 51.3627 122.446 50.984C122.824 50.6053 123.262 50.3093 123.758 50.096C124.254 49.8827 124.787 49.776 125.358 49.776C125.886 49.776 126.358 49.8933 126.774 50.128C127.195 50.3627 127.552 50.6613 127.846 51.024L127.758 50ZM125.478 56.328C125.894 56.328 126.262 56.224 126.582 56.016C126.902 55.808 127.152 55.528 127.334 55.176C127.515 54.8187 127.606 54.4267 127.606 54C127.606 53.568 127.515 53.176 127.334 52.824C127.152 52.4667 126.899 52.184 126.574 51.976C126.254 51.768 125.888 51.664 125.478 51.664C125.067 51.664 124.691 51.7707 124.35 51.984C124.014 52.192 123.744 52.472 123.542 52.824C123.344 53.176 123.246 53.568 123.246 54C123.246 54.432 123.347 54.824 123.55 55.176C123.752 55.528 124.022 55.808 124.358 56.016C124.699 56.224 125.072 56.328 125.478 56.328ZM135.607 49.776C136.385 49.776 137.095 49.9653 137.735 50.344C138.375 50.7227 138.884 51.232 139.263 51.872C139.641 52.5067 139.831 53.2107 139.831 53.984C139.831 54.5653 139.721 55.112 139.503 55.624C139.284 56.136 138.98 56.5867 138.591 56.976C138.207 57.36 137.759 57.6613 137.247 57.88C136.74 58.0987 136.193 58.208 135.607 58.208C135.105 58.208 134.66 58.096 134.271 57.872C133.887 57.6427 133.564 57.3467 133.303 56.984V58H131.351V46H133.303V51C133.564 50.6373 133.887 50.344 134.271 50.12C134.66 49.8907 135.105 49.776 135.607 49.776ZM135.583 56.32C135.999 56.32 136.375 56.216 136.711 56.008C137.052 55.7947 137.324 55.512 137.527 55.16C137.729 54.808 137.831 54.416 137.831 53.984C137.831 53.5573 137.729 53.168 137.527 52.816C137.324 52.4587 137.052 52.176 136.711 51.968C136.369 51.76 135.993 51.656 135.583 51.656C135.177 51.656 134.815 51.7627 134.495 51.976C134.175 52.184 133.924 52.4667 133.743 52.824C133.561 53.176 133.471 53.5627 133.471 53.984C133.471 54.416 133.561 54.8107 133.743 55.168C133.924 55.52 134.175 55.8 134.495 56.008C134.815 56.216 135.177 56.32 135.583 56.32ZM140.913 50H142.865V58H140.913V50ZM141.905 48.968C141.617 48.968 141.374 48.8747 141.177 48.688C140.98 48.496 140.881 48.256 140.881 47.968C140.881 47.6853 140.98 47.448 141.177 47.256C141.374 47.064 141.614 46.968 141.897 46.968C142.18 46.968 142.417 47.064 142.609 47.256C142.806 47.448 142.905 47.6853 142.905 47.968C142.905 48.256 142.809 48.496 142.617 48.688C142.425 48.8747 142.188 48.968 141.905 48.968ZM144.819 58V46H146.771V58H144.819ZM148.694 50H150.646V58H148.694V50ZM149.686 48.968C149.398 48.968 149.156 48.8747 148.958 48.688C148.761 48.496 148.662 48.256 148.662 47.968C148.662 47.6853 148.761 47.448 148.958 47.256C149.156 47.064 149.396 46.968 149.678 46.968C149.961 46.968 150.198 47.064 150.39 47.256C150.588 47.448 150.686 47.6853 150.686 47.968C150.686 48.256 150.59 48.496 150.398 48.688C150.206 48.8747 149.969 48.968 149.686 48.968ZM156.857 51.952H155.305V58H153.353V51.952H152.169V50H153.353V47.488H155.305V50H156.857V51.952ZM163.479 50H165.551L161.175 62H159.103L160.551 58L157.671 50H159.807L161.527 55.328L163.479 50Z" fill="black"/>
<g filter="url(#filter2_d_430_577)">
<rect x="550" y="36" width="32" height="32" rx="16" fill="white" shape-rendering="crispEdges"/>
<path d="M566.013 48C565.277 48 564.677 47.4027 564.677 46.6667C564.677 45.9307 565.27 45.3334 566.007 45.3334H566.013C566.749 45.3334 567.347 45.9307 567.347 46.6667C567.347 47.4027 566.75 48 566.013 48ZM567.347 52C567.347 51.264 566.749 50.6667 566.013 50.6667H566.007C565.271 50.6667 564.677 51.264 564.677 52C564.677 52.736 565.277 53.3334 566.013 53.3334C566.75 53.3334 567.347 52.736 567.347 52ZM567.347 57.3334C567.347 56.5974 566.749 56 566.013 56H566.007C565.271 56 564.677 56.5974 564.677 57.3334C564.677 58.0694 565.277 58.6667 566.013 58.6667C566.75 58.6667 567.347 58.0694 567.347 57.3334Z" fill="black"/>
</g>
</g>
</g>
<defs>
<filter id="filter0_d_430_577" x="0" y="0" width="622" height="290" filterUnits="userSpaceOnUse" color-interpolation-filters="sRGB">
<feFlood flood-opacity="0" result="BackgroundImageFix"/>
<feColorMatrix in="SourceAlpha" type="matrix" values="0 0 0 0 0 0 0 0 0 0 0 0 0 0 0 0 0 0 127 0" result="hardAlpha"/>
<feOffset dy="4"/>
<feGaussianBlur stdDeviation="10"/>
<feComposite in2="hardAlpha" operator="out"/>
<feColorMatrix type="matrix" values="0 0 0 0 0.211765 0 0 0 0 0.4 0 0 0 0 0.678431 0 0 0 0.1 0"/>
<feBlend mode="normal" in2="BackgroundImageFix" result="effect1_dropShadow_430_577"/>
<feBlend mode="normal" in="SourceGraphic" in2="effect1_dropShadow_430_577" result="shape"/>
</filter>
<filter id="filter1_f_430_577" x="309" y="11" width="298" height="118" filterUnits="userSpaceOnUse" color-interpolation-filters="sRGB">
<feFlood flood-opacity="0" result="BackgroundImageFix"/>
<feBlend mode="normal" in="SourceGraphic" in2="BackgroundImageFix" result="shape"/>
<feGaussianBlur stdDeviation="2.5" result="effect1_foregroundBlur_430_577"/>
</filter>
<filter id="filter2_d_430_577" x="535" y="21" width="62" height="62" filterUnits="userSpaceOnUse" color-interpolation-filters="sRGB">
<feFlood flood-opacity="0" result="BackgroundImageFix"/>
<feColorMatrix in="SourceAlpha" type="matrix" values="0 0 0 0 0 0 0 0 0 0 0 0 0 0 0 0 0 0 127 0" result="hardAlpha"/>
<feOffset/>
<feGaussianBlur stdDeviation="7.5"/>
<feComposite in2="hardAlpha" operator="out"/>
<feColorMatrix type="matrix" values="0 0 0 0 0 0 0 0 0 0 0 0 0 0 0 0 0 0 0.1 0"/>
<feBlend mode="normal" in2="BackgroundImageFix" result="effect1_dropShadow_430_577"/>
<feBlend mode="normal" in="SourceGraphic" in2="effect1_dropShadow_430_577" result="shape"/>
</filter>
<linearGradient id="paint0_linear_430_577" x1="607.5" y1="13" x2="309" y2="124" gradientUnits="userSpaceOnUse">
<stop stop-color="white" stop-opacity="0"/>
<stop offset="1" stop-color="white" stop-opacity="0.4"/>
</linearGradient>
<clipPath id="clip0_430_577">
<rect x="20" y="16" width="582" height="250" rx="16" fill="white"/>
</clipPath>
</defs>
</svg>
