<svg width="64" height="64" viewBox="0 0 64 64" fill="none" xmlns="http://www.w3.org/2000/svg">
<rect width="64" height="64" rx="32" fill="black" fill-opacity="0.05"/>
<path d="M46.8845 40.0732C46.808 40.2577 46.6986 40.4226 46.5591 40.5621L43.5605 43.5606C43.268 43.8531 42.884 44.0001 42.5 44.0001C42.116 44.0001 41.732 43.8531 41.4395 43.5606C40.853 42.9741 40.853 42.026 41.4395 41.4395L41.8791 41.0001H40.1616C38.3286 41.0001 36.623 40.1796 35.477 38.7486L26.1785 27.1265C25.607 26.411 24.7535 26.0015 23.837 26.0015H18.5C17.6705 26.0015 17 25.3295 17 24.5015C17 23.6735 17.6705 23.0015 18.5 23.0015H23.8384C25.6714 23.0015 27.377 23.822 28.523 25.253L37.8215 36.8751C38.393 37.5906 39.2465 38.0001 40.163 38.0001H41.8806L41.4409 37.5606C40.8544 36.9741 40.8544 36.026 41.4409 35.4395C42.0274 34.853 42.9755 34.853 43.562 35.4395L46.5605 38.438C46.7 38.5775 46.8094 38.7424 46.8859 38.9269C47.0359 39.2929 47.036 39.7072 46.8845 40.0732ZM34.9985 29.7501C35.4395 29.7501 35.8745 29.5581 36.17 29.1876L37.8215 27.1251C38.393 26.4096 39.2465 26.0001 40.163 26.0001H41.8806L41.4409 26.4395C40.8544 27.026 40.8544 27.9741 41.4409 28.5606C41.7334 28.8531 42.1175 29.0001 42.5015 29.0001C42.8855 29.0001 43.2695 28.8531 43.562 28.5606L46.5605 25.5621C46.7 25.4226 46.8094 25.2577 46.8859 25.0732C47.0374 24.7072 47.0374 24.2929 46.8859 23.9269C46.8094 23.7424 46.7 23.5775 46.5605 23.438L43.562 20.4395C42.9755 19.853 42.0274 19.853 41.4409 20.4395C40.8544 21.026 40.8544 21.9741 41.4409 22.5606L41.8806 23.0001H40.163C38.33 23.0001 36.6244 23.8205 35.4799 25.2515L33.83 27.3126C33.311 27.9591 33.4175 28.9041 34.0625 29.4216C34.34 29.6421 34.67 29.7501 34.9985 29.7501ZM27.83 34.8126L26.1785 36.8751C25.607 37.5906 24.7535 38.0001 23.837 38.0001H18.5C17.6705 38.0001 17 38.6721 17 39.5001C17 40.3281 17.6705 41.0001 18.5 41.0001H23.8384C25.6714 41.0001 27.377 40.1796 28.5215 38.7486L30.1715 36.6876C30.6905 36.0411 30.584 35.096 29.939 34.5785C29.288 34.0625 28.346 34.1676 27.83 34.8126Z" fill="black"/>
</svg>
