<svg width="64" height="64" viewBox="0 0 64 64" fill="none" xmlns="http://www.w3.org/2000/svg">
<rect width="64" height="64" rx="32" fill="black" fill-opacity="0.05"/>
<path d="M28.22 30.7249C28.595 30.8899 28.985 30.995 29.375 31.085V45.365C29.135 45.305 28.895 45.2149 28.67 45.1099L19.67 41.105C18.05 40.385 17 38.7799 17 36.9949V27.005C17 26.6 17.06 26.195 17.165 25.82L28.22 30.7249ZM42.695 23.8399C42.305 23.4499 41.855 23.1199 41.33 22.8949L32.33 18.89C31.16 18.365 29.84 18.365 28.67 18.89L19.67 22.8949C19.145 23.1199 18.695 23.4499 18.305 23.8399L29.1199 28.6549C29.9899 29.0449 30.9951 29.0449 31.8801 28.6549L42.695 23.8399ZM32.8384 38.2639C33.3904 34.3924 36.7834 31.3924 40.6909 31.2559C41.6449 31.2229 42.554 31.3445 43.406 31.6085C43.7015 31.7 44 31.4989 44 31.1899V27.005C44 26.6 43.94 26.195 43.835 25.82L32.78 30.7249C32.405 30.8749 32.015 30.995 31.625 31.085V45.365C31.6535 45.383 31.6534 45.3829 31.6819 45.4009L33.788 44.4545C34.0385 44.342 34.121 44.0374 33.9755 43.8034C32.9945 42.2254 32.5444 40.3219 32.8384 38.2639ZM47 39.5C47 42.815 44.315 45.5 41 45.5C37.685 45.5 35 42.815 35 39.5C35 36.185 37.685 33.5 41 33.5C44.315 33.5 47 36.185 47 39.5ZM43.4 37.7149C43.115 37.4299 42.635 37.4299 42.35 37.7149L40.3699 39.6799L39.65 38.9749C39.365 38.6749 38.885 38.6749 38.6 38.9749C38.3 39.2599 38.3 39.74 38.6 40.025L39.845 41.285C39.98 41.42 40.1749 41.4949 40.3699 41.4949C40.5799 41.4949 40.7599 41.42 40.9099 41.285L43.4 38.7799C43.7 38.4799 43.7 38.0149 43.4 37.7149Z" fill="black"/>
</svg>
