<svg width="64" height="64" viewBox="0 0 64 64" fill="none" xmlns="http://www.w3.org/2000/svg">
<rect width="64" height="64" rx="32" fill="black" fill-opacity="0.05"/>
<path d="M45.0499 30.125H18.9501C18.7011 30.125 18.5 30.326 18.5 30.575V41C18.5 44 20 45.5 23 45.5H41C44 45.5 45.5 44 45.5 41V30.575C45.5 30.326 45.2989 30.125 45.0499 30.125ZM37.0729 36.35L35.1829 38.153C35.0449 38.285 34.982 38.4755 35.015 38.6615L35.447 41.1305C35.534 41.6315 35 42.0125 34.541 41.777L32.273 40.61C32.1035 40.523 31.8994 40.523 31.7299 40.61L29.4634 41.7755C29.0044 42.0125 28.4675 41.6285 28.556 41.1275L28.9879 38.6615C29.0209 38.4755 28.958 38.285 28.82 38.153L26.93 36.35C26.582 36.0185 26.7741 35.4395 27.2541 35.372L29.8685 35C30.059 34.973 30.2239 34.856 30.3079 34.6865L31.4404 32.4395C31.6699 31.9835 32.333 31.9835 32.5625 32.4395L33.695 34.6865C33.7805 34.856 33.9455 34.973 34.1345 35L36.749 35.372C37.229 35.4395 37.4194 36.0185 37.0729 36.35ZM18.9891 27.302L20.57 21.77C21.125 19.835 21.5 18.5 24.89 18.5H30.4249C30.6739 18.5 30.875 18.701 30.875 18.95V27.425C30.875 27.674 30.6739 27.875 30.4249 27.875H19.421C19.1225 27.875 18.9066 27.5885 18.9891 27.302ZM33.125 27.425V18.95C33.125 18.701 33.3261 18.5 33.5751 18.5H39.11C42.5 18.5 42.875 19.835 43.43 21.77L45.0109 27.302C45.0934 27.59 44.8775 27.875 44.579 27.875H33.5751C33.3261 27.875 33.125 27.674 33.125 27.425Z" fill="black"/>
</svg>
