<svg width="64" height="64" viewBox="0 0 64 64" fill="none" xmlns="http://www.w3.org/2000/svg">
<rect width="64" height="64" rx="32" fill="black" fill-opacity="0.05"/>
<path d="M45.5 31.25V41.375C45.5 42.41 44.66 43.25 43.625 43.25C42.59 43.25 41.75 42.41 41.75 41.375V29H43.25C44.492 29 45.5 30.008 45.5 31.25ZM42.5 45.5H23C20 45.5 18.5 44 18.5 41V23C18.5 20 20 18.5 23 18.5H35C38 18.5 39.5 20 39.5 23V42.5C39.5 44.1575 40.844 45.5 42.5 45.5ZM23.375 26C23.375 26.621 23.879 27.125 24.5 27.125H29C29.621 27.125 30.125 26.621 30.125 26C30.125 25.379 29.621 24.875 29 24.875H24.5C23.879 24.875 23.375 25.379 23.375 26ZM34.625 38C34.625 37.379 34.121 36.875 33.5 36.875H24.5C23.879 36.875 23.375 37.379 23.375 38C23.375 38.621 23.879 39.125 24.5 39.125H33.5C34.121 39.125 34.625 38.621 34.625 38ZM34.625 32C34.625 31.379 34.121 30.875 33.5 30.875H24.5C23.879 30.875 23.375 31.379 23.375 32C23.375 32.621 23.879 33.125 24.5 33.125H33.5C34.121 33.125 34.625 32.621 34.625 32Z" fill="black"/>
</svg>
