<svg width="64" height="64" viewBox="0 0 64 64" fill="none" xmlns="http://www.w3.org/2000/svg">
<rect width="64" height="64" rx="32" fill="black" fill-opacity="0.05"/>
<path d="M23.0135 23.75C23.0135 20.441 25.7045 17.75 29.0135 17.75C32.3225 17.75 35.0135 20.441 35.0135 23.75C35.0135 27.059 32.3225 29.75 29.0135 29.75C25.7045 29.75 23.0135 27.059 23.0135 23.75ZM32.9 41.0751C32.48 38.9451 32.915 36.8901 34.1 35.4351C34.52 34.9401 35.015 34.52 35.585 34.22C35.657 34.1765 35.6945 34.1601 35.75 34.1151C35.84 34.0401 35.8849 33.9199 35.8849 33.7999C35.8849 33.4759 35.54 33.3651 35.54 33.3651C34.55 32.9751 33.38 32.75 32 32.75H26C19.91 32.75 17.75 37.205 17.75 41.03C17.75 44.45 19.565 46.25 23 46.25H34.9399C35.1799 46.25 35.39 46.0549 35.39 45.7999C35.39 45.6799 35.3301 45.56 35.2551 45.485C34.1751 44.315 33.245 42.8301 32.9 41.0751ZM43.658 35.75C41.672 35.741 41.006 37.709 41.006 37.709C41.006 37.709 40.3384 35.741 38.3539 35.75C35.6869 35.7635 34.6385 38.2099 35.1185 40.6429C35.9015 44.6089 41.006 46.892 41.006 46.892C41.006 46.892 46.1104 44.6074 46.8934 40.6429C47.3734 38.2099 46.3295 35.7635 43.658 35.75Z" fill="black"/>
</svg>
