<svg width="16" height="16" viewBox="0 0 16 16" fill="none" xmlns="http://www.w3.org/2000/svg">
<path d="M15.4499 4.90829C15.3916 3.70829 15.1166 2.64163 14.2416 1.76663C13.3666 0.891632 12.2999 0.616634 11.0999 0.558301C9.85828 0.491634 6.14994 0.491634 4.9166 0.558301C3.7166 0.616634 2.65828 0.891632 1.77494 1.76663C0.891612 2.64163 0.624935 3.70829 0.566602 4.90829C0.499935 6.14996 0.499935 9.8583 0.566602 11.1C0.624935 12.3 0.899945 13.3666 1.77494 14.2416C2.65828 15.1166 3.7166 15.3916 4.9166 15.45C6.15827 15.5166 9.86661 15.5166 11.0999 15.45C12.2999 15.3916 13.3666 15.1166 14.2416 14.2416C15.1166 13.3666 15.3916 12.3 15.4499 11.1C15.5166 9.8583 15.5166 6.14996 15.4499 4.91663V4.90829ZM7.99995 11.9583C5.81661 11.9583 4.04161 10.1833 4.04161 7.99996C4.04161 5.81663 5.81661 4.04163 7.99995 4.04163C10.1833 4.04163 11.9583 5.81663 11.9583 7.99996C11.9583 10.1833 10.1833 11.9583 7.99995 11.9583ZM12.5999 4.24996C12.1416 4.24996 11.7666 3.87496 11.7666 3.41663C11.7666 2.95829 12.1333 2.58329 12.5999 2.58329C13.0583 2.58329 13.4333 2.95829 13.4333 3.41663C13.4333 3.87496 13.0583 4.24996 12.5999 4.24996ZM10.7083 7.99996C10.7083 9.49163 9.49161 10.7083 7.99995 10.7083C6.50828 10.7083 5.29161 9.49163 5.29161 7.99996C5.29161 6.50829 6.50828 5.29163 7.99995 5.29163C9.49161 5.29163 10.7083 6.50829 10.7083 7.99996Z" fill="black"/>
</svg>
