<svg width="16" height="16" viewBox="0 0 16 16" fill="none" xmlns="http://www.w3.org/2000/svg">
<path d="M3.86674 15.5001H0.708415V6.02509H3.86674V15.5001ZM4.18341 2.34175C4.18341 1.34175 3.39175 0.533415 2.39175 0.500082C1.37509 0.475082 0.525082 1.27508 0.500082 2.29174C0.475082 3.30841 1.27508 4.15841 2.29174 4.18341C3.32508 4.19175 4.16675 3.37509 4.18341 2.34175ZM15.4584 9.77509C15.4584 6.82509 13.5501 5.92508 11.9251 5.92508C10.7834 5.89174 9.70842 6.45008 9.08342 7.40008V6.03341H6.03342V15.5084H9.19174V10.5917C9.19174 10.5417 9.19174 10.4917 9.19174 10.4417C9.19174 10.4417 9.19174 10.4417 9.19174 10.4334C9.12508 9.42508 9.89175 8.55008 10.9001 8.48342C11.7251 8.48342 12.3501 9.01675 12.3501 10.5168V15.5084H15.5084L15.4668 9.78341L15.4584 9.77509Z" fill="black"/>
</svg>
