<svg width="161" height="36" viewBox="0 0 161 36" fill="none" xmlns="http://www.w3.org/2000/svg">
<circle cx="3.75" cy="31.75" r="3.75" fill="#217EFD"/>
<path d="M17.46 35.5C15.9667 35.5 14.5267 35.3533 13.14 35.06C11.7533 34.7667 10.54 34.38 9.5 33.9L10.74 29.66C13.1133 30.62 15.3267 31.1 17.38 31.1C18.6067 31.1 19.5933 30.9133 20.34 30.54C21.1133 30.14 21.5 29.54 21.5 28.74C21.5 28.0733 21.14 27.5267 20.42 27.1C19.7267 26.6733 18.62 26.1933 17.1 25.66C15.6067 25.1267 14.3933 24.6333 13.46 24.18C12.5267 23.7 11.7133 23.06 11.02 22.26C10.3533 21.4333 10.02 20.42 10.02 19.22C10.02 16.8733 10.8733 15.1 12.58 13.9C14.2867 12.6733 16.6067 12.06 19.54 12.06C20.7667 12.06 22.0067 12.1933 23.26 12.46C24.5133 12.7 25.62 13.0467 26.58 13.5L25.3 17.78C23.38 16.9267 21.5133 16.5 19.7 16.5C18.5533 16.5 17.66 16.6733 17.02 17.02C16.38 17.34 16.06 17.8333 16.06 18.5C16.06 19.1667 16.3933 19.7 17.06 20.1C17.7267 20.4733 18.78 20.9 20.22 21.38C21.7133 21.86 22.9533 22.34 23.94 22.82C24.9267 23.3 25.7667 23.9933 26.46 24.9C27.18 25.8067 27.54 26.9533 27.54 28.34C27.54 30.58 26.6733 32.34 24.94 33.62C23.2067 34.8733 20.7133 35.5 17.46 35.5Z" fill="#222222"/>
<path d="M42.3872 35.5C39.8805 35.5 37.7605 34.9933 36.0272 33.98C34.2939 32.9667 33.0005 31.58 32.1472 29.82C31.2939 28.06 30.8672 26.06 30.8672 23.82C30.8672 21.5267 31.2939 19.5 32.1472 17.74C33.0005 15.9533 34.2939 14.5667 36.0272 13.58C37.7605 12.5667 39.8805 12.06 42.3872 12.06C44.8939 12.06 47.0139 12.5933 48.7472 13.66C50.4805 14.7267 51.7739 16.1533 52.6272 17.94C53.5072 19.7 53.9472 21.6333 53.9472 23.74C53.9472 25.8467 53.5072 27.7933 52.6272 29.58C51.7739 31.3667 50.4805 32.8067 48.7472 33.9C47.0139 34.9667 44.8939 35.5 42.3872 35.5ZM42.4272 31.1C45.9739 31.1 47.7472 28.66 47.7472 23.78C47.7472 18.9267 45.9739 16.5 42.4272 16.5C38.8539 16.5 37.0672 18.9267 37.0672 23.78C37.0672 28.66 38.8539 31.1 42.4272 31.1Z" fill="#222222"/>
<path d="M90.0334 12.58L82.9534 35.22H77.0734L73.0734 19.02L69.0334 35.22H63.1534L56.0734 12.58H62.3134L66.0334 28.82L70.1534 12.58H76.0334L80.0734 28.82L83.8734 12.58H90.0334Z" fill="#222222"/>
<path d="M124.916 12.58L117.836 35.22H111.956L107.956 19.02L103.916 35.22H98.0362L90.9563 12.58H97.1963L100.916 28.82L105.036 12.58H110.916L114.956 28.82L118.756 12.58H124.916Z" fill="#222222"/>
<path d="M156.129 33.66C155.329 34.22 154.422 34.6333 153.409 34.9C152.395 35.1667 151.395 35.3 150.409 35.3C147.715 35.3 145.715 34.6867 144.409 33.46C143.102 32.2067 142.449 30.42 142.449 28.1V16.98H139.049V14.38L143.169 12.82L144.889 6.94H148.569V12.58H154.969V16.98H148.569V26.7C148.569 28.1933 148.795 29.26 149.249 29.9C149.729 30.54 150.462 30.86 151.449 30.86C152.649 30.86 153.875 30.5133 155.129 29.82L156.129 33.66Z" fill="#222222"/>
<path d="M129 12.5H135V34.5H129V12.5Z" fill="#FF8A36"/>
<circle cx="131.75" cy="4.25" r="3.75" fill="#217EFD"/>
</svg>
