<svg width="36" height="36" viewBox="0 0 36 36" fill="none" xmlns="http://www.w3.org/2000/svg">
<path fill-rule="evenodd" clip-rule="evenodd" d="M18 10C10.82 10 5 15.82 5 23C5 30.18 10.82 36 18 36C25.18 36 31 30.18 31 23C31 15.82 25.18 10 18 10ZM23.8 22.28L21.6399 24.38C21.4799 24.52 21.3999 24.74 21.4399 24.96L21.9399 27.84C22.0399 28.42 21.4199 28.86 20.8999 28.58L18.3201 27.22C18.1201 27.12 17.8799 27.12 17.6799 27.22L15.1001 28.58C14.5801 28.86 13.9601 28.42 14.0601 27.82L14.5601 24.96C14.6001 24.74 14.5201 24.52 14.3601 24.38L12.2 22.28C11.8 21.9 12.0201 21.22 12.5801 21.14L15.5601 20.7C15.7801 20.68 15.9601 20.54 16.0601 20.34L17.3601 17.74C17.6201 17.2 18.3799 17.2 18.6399 17.74L19.9399 20.34C20.0399 20.54 20.2199 20.68 20.4399 20.7L23.4199 21.14C23.9799 21.22 24.2 21.9 23.8 22.28ZM28.3259 10.8C26.5579 9.28999 24.4519 8.162 22.1379 7.534C21.7459 7.428 21.5621 6.99001 21.7781 6.64801L26 0H36L29.21 10.678C29.014 10.986 28.6019 11.038 28.3259 10.8ZM6.79004 10.678L0 0H10L14.22 6.64801C14.438 6.99001 14.2521 7.428 13.8601 7.534C11.5481 8.162 9.44012 9.29199 7.67212 10.8C7.39812 11.038 6.98604 10.986 6.79004 10.678Z" fill="#F77D08"/>
</svg>
