<svg width="19" height="19" viewBox="0 0 19 19" fill="none" xmlns="http://www.w3.org/2000/svg">
<path d="M4.53005 16.68C3.77005 17.44 0.880048 18.16 0.560048 18.24C0.540048 18.24 0.520051 18.24 0.500051 18.24C0.430051 18.24 0.370058 18.21 0.320058 18.17C0.260058 18.11 0.230061 18.02 0.260061 17.93C0.350061 17.59 1.17006 14.58 1.92006 13.82C2.31006 13.43 2.82004 13.21 3.33004 13.23C3.82004 13.24 4.30006 13.45 4.67006 13.82C5.42006 14.57 5.35004 15.85 4.52004 16.68H4.53005ZM5.24004 4.32C3.44004 4.61 1.90006 5.85 1.23006 7.54L0.27004 9.93C0.23004 10.01 0.250048 10.11 0.310048 10.18C0.360048 10.24 0.430051 10.27 0.500051 10.27C0.520051 10.27 0.540039 10.27 0.550039 10.26L3.92006 9.51C4.56006 7.44 5.19004 5.78 6.40004 4.08L5.24004 4.32ZM9.01006 14.58C11.0601 14 12.72 13.4 14.43 12.2L14.2001 13.28C13.9201 15.07 12.6801 16.6 10.9801 17.27L8.59005 18.23C8.59005 18.23 8.53005 18.25 8.50005 18.25C8.44005 18.25 8.38005 18.23 8.34005 18.19C8.27005 18.13 8.24006 18.04 8.26006 17.95L9.01006 14.58ZM5.77004 7.27L11.28 12.77C10.65 13.03 9.99006 13.25 9.26006 13.46C8.78006 13.6 8.26005 13.74 7.72005 13.89C7.68005 13.89 7.63005 13.91 7.59005 13.91C7.46005 13.91 7.33006 13.86 7.23006 13.76L4.71004 11.24C4.58004 11.11 4.53005 10.91 4.59005 10.74C4.75005 10.22 4.90004 9.73 5.05004 9.26C5.28004 8.55 5.51004 7.89 5.77004 7.27ZM18.27 0.580002C18.23 0.380002 18.08 0.229999 17.87 0.189999C17.45 0.109999 16.6601 0 15.6701 0C13.7501 0 11.1 0.429998 9.12005 2.42C8.62005 2.92 8.19005 3.39 7.81005 3.85C7.14005 4.67 6.63005 5.47 6.22005 6.31C6.22005 6.31 6.22671 6.31333 6.24004 6.32L12.24 12.31L12.2601 12.33C13.0801 11.94 13.85 11.45 14.65 10.81C15.13 10.42 15.63 9.97 16.15 9.45C19.16 6.44 18.51 1.83 18.27 0.580002ZM12.7501 8.02C11.5101 8.02 10.5001 7.02 10.5001 5.78C10.5001 4.54 11.5101 3.53 12.7501 3.53C13.9901 3.53 15.0001 4.54 15.0001 5.78C15.0001 7.02 13.9901 8.02 12.7501 8.02Z" fill="#227EFD"/>
</svg>
