<svg width="19" height="20" viewBox="0 0 19 20" fill="none" xmlns="http://www.w3.org/2000/svg">
<path d="M18.53 17.47C18.823 17.763 18.823 18.238 18.53 18.531C18.384 18.677 18.192 18.751 18 18.751C17.808 18.751 17.616 18.678 17.47 18.531L10 11.061L6.94202 14.119C7.29102 14.663 7.5 15.307 7.5 16C7.5 17.93 5.93 19.5 4 19.5C2.07 19.5 0.5 17.93 0.5 16C0.5 14.07 2.07 12.5 4 12.5C4.694 12.5 5.33698 12.709 5.88098 13.058L8.93903 10L5.88098 6.94199C5.33698 7.29099 4.693 7.5 4 7.5C2.07 7.5 0.5 5.93 0.5 4C0.5 2.07 2.07 0.5 4 0.5C5.93 0.5 7.5 2.07 7.5 4C7.5 4.694 7.29102 5.33701 6.94202 5.88101L10.53 9.46899L18.53 17.47ZM12.5 8.25C12.692 8.25 12.884 8.177 13.03 8.03L18.53 2.53C18.823 2.237 18.823 1.76199 18.53 1.46899C18.237 1.17599 17.762 1.17599 17.469 1.46899L11.969 6.96899C11.676 7.26199 11.676 7.737 11.969 8.03C12.116 8.177 12.308 8.25 12.5 8.25Z" fill="#F77D08"/>
</svg>
