<svg width="20" height="19" viewBox="0 0 20 19" fill="none" xmlns="http://www.w3.org/2000/svg">
<path d="M3.22403 10.359L7.25003 11.619C7.55203 11.713 7.78809 11.95 7.88309 12.252L9.142 16.275C9.397 17.09 10.4751 17.262 10.9671 16.565L13.386 13.138C13.569 12.879 13.8681 12.727 14.1851 12.732L18.5251 12.797C19.3231 12.809 19.785 11.901 19.307 11.261L16.7011 7.77298C16.5111 7.51898 16.458 7.18895 16.559 6.88895L17.902 2.90598C18.174 2.09798 17.402 1.32599 16.594 1.59799L12.6121 2.94095C12.3121 3.04195 11.9821 2.98898 11.7281 2.79898L8.241 0.192963C7.601 -0.285037 6.69299 0.176945 6.70499 0.974945L6.77005 5.31595C6.77505 5.63295 6.62304 5.93196 6.36404 6.11496L2.93509 8.53598C2.23909 9.02798 2.41003 10.104 3.22403 10.359ZM0.970001 17.4699L3.97 14.4699C4.263 14.1769 4.73804 14.1769 5.03104 14.4699C5.32404 14.7629 5.32404 15.238 5.03104 15.531L2.03104 18.531C1.88504 18.677 1.69301 18.7509 1.50101 18.7509C1.30901 18.7509 1.11698 18.678 0.970978 18.531C0.676977 18.238 0.677002 17.7619 0.970001 17.4699Z" fill="#227EFD"/>
</svg>
