<svg width="18" height="14" viewBox="0 0 18 14" fill="none" xmlns="http://www.w3.org/2000/svg">
<path d="M15.6168 3.65843C15.6251 3.8001 15.6251 3.9501 15.6251 4.1001C15.6251 8.5501 12.1917 13.6751 5.90841 13.6751C3.97508 13.6751 2.17508 13.1251 0.666748 12.1668C0.941748 12.2001 1.20842 12.2084 1.49175 12.2084C3.09175 12.2084 4.55842 11.6751 5.73342 10.7751C4.23342 10.7418 2.97508 9.77509 2.54175 8.44176C2.75008 8.47509 2.96675 8.49176 3.18342 8.49176C3.49175 8.49176 3.80009 8.45009 4.08342 8.37509C2.51675 8.05842 1.34175 6.70843 1.34175 5.0751V5.03343C1.80008 5.28343 2.32508 5.44176 2.88342 5.45842C1.96675 4.85009 1.35842 3.82509 1.35842 2.65842C1.35842 2.03342 1.52508 1.45843 1.82508 0.958427C3.50841 3.00009 6.03341 4.33342 8.86675 4.48342C8.81675 4.23342 8.78342 3.97509 8.78342 3.71676C8.78342 1.85843 10.3084 0.350098 12.2001 0.350098C13.1834 0.350098 14.0751 0.758422 14.6918 1.40842C15.4668 1.26676 16.2001 0.983434 16.8584 0.6001C16.6084 1.38343 16.0668 2.04176 15.3584 2.45009C16.0418 2.37509 16.7084 2.19176 17.3251 1.93343C16.8584 2.60009 16.2751 3.19176 15.6084 3.67509L15.6168 3.65843Z" fill="black"/>
</svg>
